<svg version="1.1" xmlns="http://www.w3.org/2000/svg" xmlns:xlink="http://www.w3.org/1999/xlink" width="652" height="530"><defs></defs><g><g transform="translate(-82,-66) scale(1,1)"><rect fill="#C0C0C0" stroke="none" x="103" y="165" width="88" height="44" opacity="0.2"></rect></g><g transform="translate(-82,-66) scale(1,1)"><rect fill="#ffffff" stroke="none" x="96" y="158" width="88" height="44"></rect></g><g transform="translate(-82,-66) scale(1,1)"><path fill="none" stroke="#000000" d="M 96 158 L 184 158 L 184 202 L 96 202 L 96 158 Z Z" stroke-miterlimit="10"></path></g><g transform="translate(-82,-66) scale(1,1)"><path fill="none" stroke="#000000" d="M 96 183 L 184 183" stroke-miterlimit="10"></path></g><g transform="translate(-82,-66) scale(1,1)"><path fill="none" stroke="#000000" d="M 96 193 L 184 193" stroke-miterlimit="10"></path></g><g transform="translate(-82,-66) scale(1,1)"><g><path fill="none" stroke="none"></path><text fill="#000000" stroke="none" font-family="Arial" font-size="13px" font-style="normal" font-weight="bold" text-decoration="none" x="122" y="177.5">Métier</text></g></g><g transform="translate(-82,-66) scale(1,1)"><rect fill="#C0C0C0" stroke="none" x="99" y="241" width="94" height="44" opacity="0.2"></rect></g><g transform="translate(-82,-66) scale(1,1)"><rect fill="#ffffff" stroke="none" x="92" y="234" width="94" height="44"></rect></g><g transform="translate(-82,-66) scale(1,1)"><path fill="none" stroke="#000000" d="M 92 234 L 186 234 L 186 278 L 92 278 L 92 234 Z Z" stroke-miterlimit="10"></path></g><g transform="translate(-82,-66) scale(1,1)"><path fill="none" stroke="#000000" d="M 92 259 L 186 259" stroke-miterlimit="10"></path></g><g transform="translate(-82,-66) scale(1,1)"><path fill="none" stroke="#000000" d="M 92 269 L 186 269" stroke-miterlimit="10"></path></g><g transform="translate(-82,-66) scale(1,1)"><g><path fill="none" stroke="none"></path><text fill="#000000" stroke="none" font-family="Arial" font-size="13px" font-style="normal" font-weight="bold" text-decoration="none" x="100.5" y="253.5">Fonctionnelle</text></g></g><g transform="translate(-82,-66) scale(1,1)"><rect fill="#C0C0C0" stroke="none" x="104" y="321" width="88" height="44" opacity="0.2"></rect></g><g transform="translate(-82,-66) scale(1,1)"><rect fill="#ffffff" stroke="none" x="97" y="314" width="88" height="44"></rect></g><g transform="translate(-82,-66) scale(1,1)"><path fill="none" stroke="#000000" d="M 97 314 L 185 314 L 185 358 L 97 358 L 97 314 Z Z" stroke-miterlimit="10"></path></g><g transform="translate(-82,-66) scale(1,1)"><path fill="none" stroke="#000000" d="M 97 339 L 185 339" stroke-miterlimit="10"></path></g><g transform="translate(-82,-66) scale(1,1)"><path fill="none" stroke="#000000" d="M 97 349 L 185 349" stroke-miterlimit="10"></path></g><g transform="translate(-82,-66) scale(1,1)"><g><path fill="none" stroke="none"></path><text fill="#000000" stroke="none" font-family="Arial" font-size="13px" font-style="normal" font-weight="bold" text-decoration="none" x="109" y="333.5">Applicative</text></g></g><g transform="translate(-82,-66) scale(1,1)"><rect fill="#C0C0C0" stroke="none" x="376" y="281" width="88" height="44" opacity="0.2"></rect></g><g transform="translate(-82,-66) scale(1,1)"><rect fill="#ffffff" stroke="none" x="369" y="274" width="88" height="44"></rect></g><g transform="translate(-82,-66) scale(1,1)"><path fill="none" stroke="#000000" d="M 369 274 L 457 274 L 457 318 L 369 318 L 369 274 Z Z" stroke-miterlimit="10"></path></g><g transform="translate(-82,-66) scale(1,1)"><path fill="none" stroke="#000000" d="M 369 299 L 457 299" stroke-miterlimit="10"></path></g><g transform="translate(-82,-66) scale(1,1)"><path fill="none" stroke="#000000" d="M 369 309 L 457 309" stroke-miterlimit="10"></path></g><g transform="translate(-82,-66) scale(1,1)"><g><path fill="none" stroke="none"></path><text fill="#000000" stroke="none" font-family="Arial" font-size="13px" font-style="normal" font-weight="bold" text-decoration="none" x="401.5" y="293.5">Vue</text></g></g><g transform="translate(-82,-66) scale(1,1)"><rect fill="#C0C0C0" stroke="none" x="108" y="473" width="88" height="44" opacity="0.2"></rect></g><g transform="translate(-82,-66) scale(1,1)"><rect fill="#ffffff" stroke="none" x="101" y="466" width="88" height="44"></rect></g><g transform="translate(-82,-66) scale(1,1)"><path fill="none" stroke="#000000" d="M 101 466 L 189 466 L 189 510 L 101 510 L 101 466 Z Z" stroke-miterlimit="10"></path></g><g transform="translate(-82,-66) scale(1,1)"><path fill="none" stroke="#000000" d="M 101 491 L 189 491" stroke-miterlimit="10"></path></g><g transform="translate(-82,-66) scale(1,1)"><path fill="none" stroke="#000000" d="M 101 501 L 189 501" stroke-miterlimit="10"></path></g><g transform="translate(-82,-66) scale(1,1)"><g><path fill="none" stroke="none"></path><text fill="#000000" stroke="none" font-family="Arial" font-size="13px" font-style="normal" font-weight="bold" text-decoration="none" x="114.5" y="485.5">Integration</text></g></g><g transform="translate(-82,-66) scale(1,1)"><rect fill="#C0C0C0" stroke="none" x="248" y="85" width="88" height="44" opacity="0.2"></rect></g><g transform="translate(-82,-66) scale(1,1)"><rect fill="#ffffff" stroke="none" x="241" y="78" width="88" height="44"></rect></g><g transform="translate(-82,-66) scale(1,1)"><path fill="none" stroke="#000000" d="M 241 78 L 329 78 L 329 122 L 241 122 L 241 78 Z Z" stroke-miterlimit="10"></path></g><g transform="translate(-82,-66) scale(1,1)"><path fill="none" stroke="#000000" d="M 241 103 L 329 103" stroke-miterlimit="10"></path></g><g transform="translate(-82,-66) scale(1,1)"><path fill="none" stroke="#000000" d="M 241 113 L 329 113" stroke-miterlimit="10"></path></g><g transform="translate(-82,-66) scale(1,1)"><g><path fill="none" stroke="none"></path><text fill="#000000" stroke="none" font-family="Arial" font-size="13px" font-style="normal" font-weight="bold" text-decoration="none" x="252.5" y="97.5">Information</text></g></g><g transform="translate(-82,-66) scale(1,1)"><rect fill="#C0C0C0" stroke="none" x="371" y="83" width="88" height="44" opacity="0.2"></rect></g><g transform="translate(-82,-66) scale(1,1)"><rect fill="#ffffff" stroke="none" x="364" y="76" width="88" height="44"></rect></g><g transform="translate(-82,-66) scale(1,1)"><path fill="none" stroke="#000000" d="M 364 76 L 452 76 L 452 120 L 364 120 L 364 76 Z Z" stroke-miterlimit="10"></path></g><g transform="translate(-82,-66) scale(1,1)"><path fill="none" stroke="#000000" d="M 364 101 L 452 101" stroke-miterlimit="10"></path></g><g transform="translate(-82,-66) scale(1,1)"><path fill="none" stroke="#000000" d="M 364 111 L 452 111" stroke-miterlimit="10"></path></g><g transform="translate(-82,-66) scale(1,1)"><g><path fill="none" stroke="none"></path><text fill="#000000" stroke="none" font-family="Arial" font-size="13px" font-style="normal" font-weight="bold" text-decoration="none" x="377" y="95.5">Processus</text></g></g><g transform="translate(-82,-66) scale(1,1)"><rect fill="#C0C0C0" stroke="none" x="376" y="185" width="88" height="44" opacity="0.2"></rect></g><g transform="translate(-82,-66) scale(1,1)"><rect fill="#ffffff" stroke="none" x="369" y="178" width="88" height="44"></rect></g><g transform="translate(-82,-66) scale(1,1)"><path fill="none" stroke="#000000" d="M 369 178 L 457 178 L 457 222 L 369 222 L 369 178 Z Z" stroke-miterlimit="10"></path></g><g transform="translate(-82,-66) scale(1,1)"><path fill="none" stroke="#000000" d="M 369 203 L 457 203" stroke-miterlimit="10"></path></g><g transform="translate(-82,-66) scale(1,1)"><path fill="none" stroke="#000000" d="M 369 213 L 457 213" stroke-miterlimit="10"></path></g><g transform="translate(-82,-66) scale(1,1)"><g><path fill="none" stroke="none"></path><text fill="#000000" stroke="none" font-family="Arial" font-size="13px" font-style="normal" font-weight="bold" text-decoration="none" x="392.5" y="197.5">Aspect</text></g></g><g transform="translate(-82,-66) scale(1,1)"><rect fill="#C0C0C0" stroke="none" x="551" y="283" width="88" height="44" opacity="0.2"></rect></g><g transform="translate(-82,-66) scale(1,1)"><rect fill="#ffffff" stroke="none" x="544" y="276" width="88" height="44"></rect></g><g transform="translate(-82,-66) scale(1,1)"><path fill="none" stroke="#000000" d="M 544 276 L 632 276 L 632 320 L 544 320 L 544 276 Z Z" stroke-miterlimit="10"></path></g><g transform="translate(-82,-66) scale(1,1)"><path fill="none" stroke="#000000" d="M 544 301 L 632 301" stroke-miterlimit="10"></path></g><g transform="translate(-82,-66) scale(1,1)"><path fill="none" stroke="#000000" d="M 544 311 L 632 311" stroke-miterlimit="10"></path></g><g transform="translate(-82,-66) scale(1,1)"><g><path fill="none" stroke="none"></path><text fill="#000000" stroke="none" font-family="Arial" font-size="13px" font-style="normal" font-weight="bold" text-decoration="none" x="571" y="295.5">Entité</text></g></g><g transform="translate(-82,-66) scale(1,1)"><path fill="none" stroke="#000000" d="M 547 275 L 454 223" stroke-miterlimit="10"></path></g><g transform="translate(-82,-66) scale(1,1)"><path fill="#000000" stroke="none" d="M 464.9246239955053 224.28553123526018 L 454 223 L 460.8158678552555 231.63388356301468 L 473.20217000861425 233.73669720911766"></path></g><g transform="translate(-82,-66) scale(1,1)"><path fill="none" stroke="#000000" d="M 464.9246239955053 224.28553123526018 L 454 223 L 460.8158678552555 231.63388356301468 L 473.20217000861425 233.73669720911766 L 464.9246239955053 224.28553123526018" stroke-miterlimit="10"></path></g><g transform="translate(-82,-66) scale(1,1)"><g><path fill="none" stroke="none"></path><text fill="#000000" stroke="none" font-family="Arial" font-size="13px" font-style="normal" font-weight="normal" text-decoration="none" x="533" y="267">1</text></g></g><g transform="translate(-82,-66) scale(1,1)"><g><path fill="none" stroke="none"></path><text fill="#000000" stroke="none" font-family="Arial" font-size="13px" font-style="normal" font-weight="normal" text-decoration="none" x="473" y="231">*</text></g></g><g transform="translate(-82,-66) scale(1,1)"><path fill="none" stroke="#000000" d="M 413 223 L 413 273" stroke-miterlimit="10"></path></g><g transform="translate(-82,-66) scale(1,1)"><path fill="#000000" stroke="none" d="M 408.790482243984 262.83732514237585 L 413 273 L 417.209517756016 262.83732514237585 L 413 251"></path></g><g transform="translate(-82,-66) scale(1,1)"><path fill="none" stroke="#000000" d="M 408.790482243984 262.83732514237585 L 413 273 L 417.209517756016 262.83732514237585 L 413 251 L 408.790482243984 262.83732514237585" stroke-miterlimit="10"></path></g><g transform="translate(-82,-66) scale(1,1)"><g><path fill="none" stroke="none"></path><text fill="#000000" stroke="none" font-family="Arial" font-size="13px" font-style="normal" font-weight="normal" text-decoration="none" x="420" y="238">3</text></g></g><g transform="translate(-82,-66) scale(1,1)"><g><path fill="none" stroke="none"></path><text fill="#000000" stroke="none" font-family="Arial" font-size="13px" font-style="normal" font-weight="normal" text-decoration="none" x="421" y="258">1</text></g></g><g transform="translate(-82,-66) scale(1,1)"><path fill="none" stroke="#000000" d="M 588 276 L 588 256 L 662 256 L 662 298 L 632 298" stroke-miterlimit="10"></path></g><g transform="translate(-82,-66) scale(1,1)"><g><path fill="none" stroke="none"></path><text fill="#000000" stroke="none" font-family="Arial" font-size="13px" font-style="normal" font-weight="normal" text-decoration="none" x="639" y="312">+relation</text></g></g><g transform="translate(-82,-66) scale(1,1)"><rect fill="#C0C0C0" stroke="none" x="344" y="473" width="132" height="44" opacity="0.2"></rect></g><g transform="translate(-82,-66) scale(1,1)"><rect fill="#ffffff" stroke="none" x="337" y="466" width="132" height="44"></rect></g><g transform="translate(-82,-66) scale(1,1)"><path fill="none" stroke="#000000" d="M 337 466 L 469 466 L 469 510 L 337 510 L 337 466 Z Z" stroke-miterlimit="10"></path></g><g transform="translate(-82,-66) scale(1,1)"><path fill="none" stroke="#000000" d="M 337 491 L 469 491" stroke-miterlimit="10"></path></g><g transform="translate(-82,-66) scale(1,1)"><path fill="none" stroke="#000000" d="M 337 501 L 469 501" stroke-miterlimit="10"></path></g><g transform="translate(-82,-66) scale(1,1)"><g><path fill="none" stroke="none"></path><text fill="#000000" stroke="none" font-family="Arial" font-size="13px" font-style="normal" font-weight="bold" text-decoration="none" x="352" y="485.5">LienDeCohérence</text></g></g><g transform="translate(-82,-66) scale(1,1)"><path fill="none" stroke="#000000" d="M 336 488 L 190 488" stroke-miterlimit="10"></path></g><g transform="translate(-82,-66) scale(1,1)"><path fill="#000000" stroke="none" d="M 200.16267485762415 483.790482243984 L 190 488 L 200.16267485762415 492.209517756016 L 212 488"></path></g><g transform="translate(-82,-66) scale(1,1)"><path fill="none" stroke="#000000" d="M 200.16267485762415 483.790482243984 L 190 488 L 200.16267485762415 492.209517756016 L 212 488 L 200.16267485762415 483.790482243984" stroke-miterlimit="10"></path></g><g transform="translate(-82,-66) scale(1,1)"><g><path fill="none" stroke="none"></path><text fill="#000000" stroke="none" font-family="Arial" font-size="13px" font-style="normal" font-weight="normal" text-decoration="none" x="312" y="482">*</text></g></g><g transform="translate(-82,-66) scale(1,1)"><g><path fill="none" stroke="none"></path><text fill="#000000" stroke="none" font-family="Arial" font-size="13px" font-style="normal" font-weight="normal" text-decoration="none" x="208" y="482">1</text></g></g><g transform="translate(-82,-66) scale(1,1)"><path fill="none" stroke="#000000" d="M 566 321 L 425 465" stroke-miterlimit="10"></path></g><g transform="translate(-82,-66) scale(1,1)"><g><path fill="none" stroke="none"></path><text fill="#000000" stroke="none" font-family="Arial" font-size="13px" font-style="normal" font-weight="normal" text-decoration="none" x="519" y="312">1..*</text></g></g><g transform="translate(-82,-66) scale(1,1)"><path fill="#ffffff" stroke="none" d="M 584 340 L 713 340 L 723 350 L 723 441 L 584 441 L 584 340"></path></g><g transform="translate(-82,-66) scale(1,1)"><path fill="none" stroke="#000000" d="M 584 340 L 713 340 L 723 350 L 723 441 L 584 441 L 584 340 L 584 340" stroke-miterlimit="10"></path></g><g transform="translate(-82,-66) scale(1,1)"><path fill="none" stroke="#000000" d="M 713 340 L 713 350 L 723 350 L 713 340" stroke-miterlimit="10"></path></g><g transform="translate(-82,-66) scale(1,1)"><g><path fill="none" stroke="none"></path><text fill="#000000" stroke="none" font-family="Arial" font-size="13px" font-style="normal" font-weight="normal" text-decoration="none" x="589" y="358">Un lien de cohérence</text><text fill="#000000" stroke="none" font-family="Arial" font-size="13px" font-style="normal" font-weight="normal" text-decoration="none" x="589" y="371">est uniquement</text><text fill="#000000" stroke="none" font-family="Arial" font-size="13px" font-style="normal" font-weight="normal" text-decoration="none" x="589" y="384">appliqué aux vues</text><text fill="#000000" stroke="none" font-family="Arial" font-size="13px" font-style="normal" font-weight="normal" text-decoration="none" x="589" y="397">métier, fonctionnelle,</text><text fill="#000000" stroke="none" font-family="Arial" font-size="13px" font-style="normal" font-weight="normal" text-decoration="none" x="589" y="410">applicative.</text></g></g><g transform="translate(-82,-66) scale(1,1)"><path fill="none" stroke="#000000" d="M 495 393 L 583 392" stroke-miterlimit="10" stroke-dasharray="3"></path></g><g transform="translate(-82,-66) scale(1,1)"><rect fill="#C0C0C0" stroke="none" x="284" y="549" width="92" height="44" opacity="0.2"></rect></g><g transform="translate(-82,-66) scale(1,1)"><rect fill="#ffffff" stroke="none" x="277" y="542" width="92" height="44"></rect></g><g transform="translate(-82,-66) scale(1,1)"><path fill="none" stroke="#000000" d="M 277 542 L 369 542 L 369 586 L 277 586 L 277 542 Z Z" stroke-miterlimit="10"></path></g><g transform="translate(-82,-66) scale(1,1)"><path fill="none" stroke="#000000" d="M 277 567 L 369 567" stroke-miterlimit="10"></path></g><g transform="translate(-82,-66) scale(1,1)"><path fill="none" stroke="#000000" d="M 277 577 L 369 577" stroke-miterlimit="10"></path></g><g transform="translate(-82,-66) scale(1,1)"><g><path fill="none" stroke="none"></path><text fill="#000000" stroke="none" font-family="Arial" font-size="13px" font-style="normal" font-weight="bold" text-decoration="none" x="298.5" y="561.5">IntraVue</text></g></g><g transform="translate(-82,-66) scale(1,1)"><rect fill="#C0C0C0" stroke="none" x="439" y="547" width="92" height="44" opacity="0.2"></rect></g><g transform="translate(-82,-66) scale(1,1)"><rect fill="#ffffff" stroke="none" x="432" y="540" width="92" height="44"></rect></g><g transform="translate(-82,-66) scale(1,1)"><path fill="none" stroke="#000000" d="M 432 540 L 524 540 L 524 584 L 432 584 L 432 540 Z Z" stroke-miterlimit="10"></path></g><g transform="translate(-82,-66) scale(1,1)"><path fill="none" stroke="#000000" d="M 432 565 L 524 565" stroke-miterlimit="10"></path></g><g transform="translate(-82,-66) scale(1,1)"><path fill="none" stroke="#000000" d="M 432 575 L 524 575" stroke-miterlimit="10"></path></g><g transform="translate(-82,-66) scale(1,1)"><g><path fill="none" stroke="none"></path><text fill="#000000" stroke="none" font-family="Arial" font-size="13px" font-style="normal" font-weight="bold" text-decoration="none" x="450" y="559.5">InterVues</text></g></g><g transform="translate(-82,-66) scale(1,1)"><path fill="none" stroke="#000000" d="M 347 541 L 379 511" stroke-miterlimit="10"></path></g><g transform="translate(-82,-66) scale(1,1)"><path fill="#FFFFFF" stroke="none" d="M 369.93002584775945 531.0433422581586 L 379 511 L 358.41377654337714 518.7593430001508"></path></g><g transform="translate(-82,-66) scale(1,1)"><path fill="none" stroke="#000000" d="M 369.93002584775945 531.0433422581586 L 379 511 L 358.41377654337714 518.7593430001508 L 369.93002584775945 531.0433422581586" stroke-miterlimit="10"></path></g><g transform="translate(-82,-66) scale(1,1)"><path fill="none" stroke="#000000" d="M 455 539 L 426 511" stroke-miterlimit="10"></path></g><g transform="translate(-82,-66) scale(1,1)"><path fill="#FFFFFF" stroke="none" d="M 446.4699021500085 519.0612099568909 L 426 511 L 434.77427039541004 531.1745428455822"></path></g><g transform="translate(-82,-66) scale(1,1)"><path fill="none" stroke="#000000" d="M 446.4699021500085 519.0612099568909 L 426 511 L 434.77427039541004 531.1745428455822 L 446.4699021500085 519.0612099568909" stroke-miterlimit="10"></path></g><g transform="translate(-82,-66) scale(1,1)"><rect fill="#C0C0C0" stroke="none" x="520" y="473" width="173" height="44" opacity="0.2"></rect></g><g transform="translate(-82,-66) scale(1,1)"><rect fill="#ffffff" stroke="none" x="513" y="466" width="173" height="44"></rect></g><g transform="translate(-82,-66) scale(1,1)"><path fill="none" stroke="#000000" d="M 513 466 L 686 466 L 686 510 L 513 510 L 513 466 Z Z" stroke-miterlimit="10"></path></g><g transform="translate(-82,-66) scale(1,1)"><path fill="none" stroke="#000000" d="M 513 491 L 686 491" stroke-miterlimit="10"></path></g><g transform="translate(-82,-66) scale(1,1)"><path fill="none" stroke="#000000" d="M 513 501 L 686 501" stroke-miterlimit="10"></path></g><g transform="translate(-82,-66) scale(1,1)"><g><path fill="none" stroke="none"></path><text fill="#000000" stroke="none" font-family="Arial" font-size="13px" font-style="normal" font-weight="bold" text-decoration="none" x="524" y="485.5">Transformation de modèle</text></g></g><g transform="translate(-82,-66) scale(1,1)"><path fill="none" stroke="#000000" d="M 470 488 L 512 488" stroke-miterlimit="10"></path></g><g transform="translate(-82,-66) scale(1,1)"><rect fill="#C0C0C0" stroke="none" x="491" y="83" width="88" height="44" opacity="0.2"></rect></g><g transform="translate(-82,-66) scale(1,1)"><rect fill="#ffffff" stroke="none" x="484" y="76" width="88" height="44"></rect></g><g transform="translate(-82,-66) scale(1,1)"><path fill="none" stroke="#000000" d="M 484 76 L 572 76 L 572 120 L 484 120 L 484 76 Z Z" stroke-miterlimit="10"></path></g><g transform="translate(-82,-66) scale(1,1)"><path fill="none" stroke="#000000" d="M 484 101 L 572 101" stroke-miterlimit="10"></path></g><g transform="translate(-82,-66) scale(1,1)"><path fill="none" stroke="#000000" d="M 484 111 L 572 111" stroke-miterlimit="10"></path></g><g transform="translate(-82,-66) scale(1,1)"><g><path fill="none" stroke="none"></path><text fill="#000000" stroke="none" font-family="Arial" font-size="13px" font-style="normal" font-weight="bold" text-decoration="none" x="505.5" y="95.5">Objectif</text></g></g><g transform="translate(-82,-66) scale(1,1)"><path fill="none" stroke="#000000" d="M 185 199 L 368 277" stroke-miterlimit="10"></path></g><g transform="translate(-82,-66) scale(1,1)"><path fill="#FFFFFF" stroke="none" d="M 346.0011472388046 276.77532870400375 L 368 277 L 352.6033286311712 261.2855954372974"></path></g><g transform="translate(-82,-66) scale(1,1)"><path fill="none" stroke="#000000" d="M 346.0011472388046 276.77532870400375 L 368 277 L 352.6033286311712 261.2855954372974 L 346.0011472388046 276.77532870400375" stroke-miterlimit="10"></path></g><g transform="translate(-82,-66) scale(1,1)"><path fill="none" stroke="#000000" d="M 187 263 L 368 289" stroke-miterlimit="10"></path></g><g transform="translate(-82,-66) scale(1,1)"><path fill="#FFFFFF" stroke="none" d="M 346.6840825720852 294.44349742411237 L 368 289 L 349.07823629754756 277.7765041814703"></path></g><g transform="translate(-82,-66) scale(1,1)"><path fill="none" stroke="#000000" d="M 346.6840825720852 294.44349742411237 L 368 289 L 349.07823629754756 277.7765041814703 L 346.6840825720852 294.44349742411237" stroke-miterlimit="10"></path></g><g transform="translate(-82,-66) scale(1,1)"><path fill="none" stroke="#000000" d="M 186 329 L 368 303" stroke-miterlimit="10"></path></g><g transform="translate(-82,-66) scale(1,1)"><path fill="#FFFFFF" stroke="none" d="M 349.06956176122543 314.20885846497947 L 368 303 L 346.68829892058216 297.5400185804766"></path></g><g transform="translate(-82,-66) scale(1,1)"><path fill="none" stroke="#000000" d="M 349.06956176122543 314.20885846497947 L 368 303 L 346.68829892058216 297.5400185804766 L 349.06956176122543 314.20885846497947" stroke-miterlimit="10"></path></g><g transform="translate(-82,-66) scale(1,1)"><path fill="none" stroke="#000000" d="M 177 465 L 381 319" stroke-miterlimit="10"></path></g><g transform="translate(-82,-66) scale(1,1)"><path fill="#FFFFFF" stroke="none" d="M 369.3713507761539 337.6755058091807 L 381 319 L 359.57172647801826 323.9828800775392"></path></g><g transform="translate(-82,-66) scale(1,1)"><path fill="none" stroke="#000000" d="M 369.3713507761539 337.6755058091807 L 381 319 L 359.57172647801826 323.9828800775392 L 369.3713507761539 337.6755058091807" stroke-miterlimit="10"></path></g><g transform="translate(-82,-66) scale(1,1)"><path fill="none" stroke="#000000" d="M 314 123 L 384 177" stroke-miterlimit="10"></path></g><g transform="translate(-82,-66) scale(1,1)"><path fill="#FFFFFF" stroke="none" d="M 362.76437278478966 171.25124911162268 L 384 177 L 373.04912472989895 157.9191632568514"></path></g><g transform="translate(-82,-66) scale(1,1)"><path fill="none" stroke="#000000" d="M 362.76437278478966 171.25124911162268 L 384 177 L 373.04912472989895 157.9191632568514 L 362.76437278478966 171.25124911162268" stroke-miterlimit="10"></path></g><g transform="translate(-82,-66) scale(1,1)"><path fill="none" stroke="#000000" d="M 409 121 L 412 177" stroke-miterlimit="10"></path></g><g transform="translate(-82,-66) scale(1,1)"><path fill="#FFFFFF" stroke="none" d="M 402.5057205134369 157.15412745604198 L 412 177 L 419.3196816469675 156.25337953817424"></path></g><g transform="translate(-82,-66) scale(1,1)"><path fill="none" stroke="#000000" d="M 402.5057205134369 157.15412745604198 L 412 177 L 419.3196816469675 156.25337953817424 L 402.5057205134369 157.15412745604198" stroke-miterlimit="10"></path></g><g transform="translate(-82,-66) scale(1,1)"><path fill="none" stroke="#000000" d="M 502 121 L 439 177" stroke-miterlimit="10"></path></g><g transform="translate(-82,-66) scale(1,1)"><path fill="#FFFFFF" stroke="none" d="M 448.5980530306619 157.20410704159565 L 439 177 L 459.7846585346998 169.78903823363837"></path></g><g transform="translate(-82,-66) scale(1,1)"><path fill="none" stroke="#000000" d="M 448.5980530306619 157.20410704159565 L 439 177 L 459.7846585346998 169.78903823363837 L 448.5980530306619 157.20410704159565" stroke-miterlimit="10"></path></g><g transform="translate(-82,-66) scale(1,1)"><path fill="none" stroke="#000000" d="M 458 297 L 543 297" stroke-miterlimit="10"></path></g><g transform="translate(-82,-66) scale(1,1)"><g><path fill="none" stroke="none"></path><text fill="#000000" stroke="none" font-family="Arial" font-size="13px" font-style="normal" font-weight="normal" text-decoration="none" x="492" y="293">+entités</text></g></g><g transform="translate(-82,-66) scale(1,1)"><g><path fill="none" stroke="none"></path><text fill="#000000" stroke="none" font-family="Arial" font-size="13px" font-style="normal" font-weight="normal" text-decoration="none" x="459" y="313">1..2</text></g></g></g></svg>