<svg version="1.1" xmlns="http://www.w3.org/2000/svg" xmlns:xlink="http://www.w3.org/1999/xlink" width="401" height="208"><defs></defs><g><g transform="translate(-150,-170) scale(1,1)"><rect fill="#C0C0C0" stroke="none" x="343" y="187" width="50" height="44" opacity="0.2"></rect></g><g transform="translate(-150,-170) scale(1,1)"><rect fill="#ffffff" stroke="none" x="336" y="180" width="50" height="44"></rect></g><g transform="translate(-150,-170) scale(1,1)"><path fill="none" stroke="#000000" d="M 336 180 L 386 180 L 386 224 L 336 224 L 336 180 Z Z" stroke-miterlimit="10"></path></g><g transform="translate(-150,-170) scale(1,1)"><path fill="none" stroke="#000000" d="M 336 205 L 386 205" stroke-miterlimit="10"></path></g><g transform="translate(-150,-170) scale(1,1)"><path fill="none" stroke="#000000" d="M 336 215 L 386 215" stroke-miterlimit="10"></path></g><g transform="translate(-150,-170) scale(1,1)"><g><path fill="none" stroke="none"></path><text fill="#000000" stroke="none" font-family="Arial" font-size="13px" font-style="normal" font-weight="bold" text-decoration="none" x="344" y="199.5">Entité</text></g></g><g transform="translate(-150,-170) scale(1,1)"><rect fill="#C0C0C0" stroke="none" x="167" y="287" width="81" height="44" opacity="0.2"></rect></g><g transform="translate(-150,-170) scale(1,1)"><rect fill="#ffffff" stroke="none" x="160" y="280" width="81" height="44"></rect></g><g transform="translate(-150,-170) scale(1,1)"><path fill="none" stroke="#000000" d="M 160 280 L 241 280 L 241 324 L 160 324 L 160 280 Z Z" stroke-miterlimit="10"></path></g><g transform="translate(-150,-170) scale(1,1)"><path fill="none" stroke="#000000" d="M 160 305 L 241 305" stroke-miterlimit="10"></path></g><g transform="translate(-150,-170) scale(1,1)"><path fill="none" stroke="#000000" d="M 160 315 L 241 315" stroke-miterlimit="10"></path></g><g transform="translate(-150,-170) scale(1,1)"><g><path fill="none" stroke="none"></path><text fill="#000000" stroke="none" font-family="Arial" font-size="13px" font-style="normal" font-weight="bold" text-decoration="none" x="168" y="299.5">Information</text></g></g><g transform="translate(-150,-170) scale(1,1)"><rect fill="#C0C0C0" stroke="none" x="343" y="287" width="50" height="44" opacity="0.2"></rect></g><g transform="translate(-150,-170) scale(1,1)"><rect fill="#ffffff" stroke="none" x="336" y="280" width="50" height="44"></rect></g><g transform="translate(-150,-170) scale(1,1)"><path fill="none" stroke="#000000" d="M 336 280 L 386 280 L 386 324 L 336 324 L 336 280 Z Z" stroke-miterlimit="10"></path></g><g transform="translate(-150,-170) scale(1,1)"><path fill="none" stroke="#000000" d="M 336 305 L 386 305" stroke-miterlimit="10"></path></g><g transform="translate(-150,-170) scale(1,1)"><path fill="none" stroke="#000000" d="M 336 315 L 386 315" stroke-miterlimit="10"></path></g><g transform="translate(-150,-170) scale(1,1)"><g><path fill="none" stroke="none"></path><text fill="#000000" stroke="none" font-family="Arial" font-size="13px" font-style="normal" font-weight="bold" text-decoration="none" x="342.5" y="299.5">Action</text></g></g><g transform="translate(-150,-170) scale(1,1)"><rect fill="#C0C0C0" stroke="none" x="491" y="287" width="57" height="44" opacity="0.2"></rect></g><g transform="translate(-150,-170) scale(1,1)"><rect fill="#ffffff" stroke="none" x="484" y="280" width="57" height="44"></rect></g><g transform="translate(-150,-170) scale(1,1)"><path fill="none" stroke="#000000" d="M 484 280 L 541 280 L 541 324 L 484 324 L 484 280 Z Z" stroke-miterlimit="10"></path></g><g transform="translate(-150,-170) scale(1,1)"><path fill="none" stroke="#000000" d="M 484 305 L 541 305" stroke-miterlimit="10"></path></g><g transform="translate(-150,-170) scale(1,1)"><path fill="none" stroke="#000000" d="M 484 315 L 541 315" stroke-miterlimit="10"></path></g><g transform="translate(-150,-170) scale(1,1)"><g><path fill="none" stroke="none"></path><text fill="#000000" stroke="none" font-family="Arial" font-size="13px" font-style="normal" font-weight="bold" text-decoration="none" x="490" y="299.5">Objectif</text></g></g><g transform="translate(-150,-170) scale(1,1)"><path fill="none" stroke="#000000" d="M 237 279 L 335 218" stroke-miterlimit="10"></path></g><g transform="translate(-150,-170) scale(1,1)"><path fill="#FFFFFF" stroke="none" d="M 322.19334364760334 235.88825181708984 L 335 218 L 313.29542228545773 221.59323061233135"></path></g><g transform="translate(-150,-170) scale(1,1)"><path fill="none" stroke="#000000" d="M 322.19334364760334 235.88825181708984 L 335 218 L 313.29542228545773 221.59323061233135 L 322.19334364760334 235.88825181708984" stroke-miterlimit="10"></path></g><g transform="translate(-150,-170) scale(1,1)"><path fill="none" stroke="#000000" d="M 361 279 L 361 225" stroke-miterlimit="10"></path></g><g transform="translate(-150,-170) scale(1,1)"><path fill="#FFFFFF" stroke="none" d="M 369.419035512032 245.3253497152483 L 361 225 L 352.580964487968 245.3253497152483"></path></g><g transform="translate(-150,-170) scale(1,1)"><path fill="none" stroke="#000000" d="M 369.419035512032 245.3253497152483 L 361 225 L 352.580964487968 245.3253497152483 L 369.419035512032 245.3253497152483" stroke-miterlimit="10"></path></g><g transform="translate(-150,-170) scale(1,1)"><path fill="none" stroke="#000000" d="M 483 283 L 387 219" stroke-miterlimit="10"></path></g><g transform="translate(-150,-170) scale(1,1)"><path fill="#FFFFFF" stroke="none" d="M 408.58175386364326 223.2694144995677 L 387 219 L 399.24167256254066 237.27953645122162"></path></g><g transform="translate(-150,-170) scale(1,1)"><path fill="none" stroke="#000000" d="M 408.58175386364326 223.2694144995677 L 387 219 L 399.24167256254066 237.27953645122162 L 408.58175386364326 223.2694144995677" stroke-miterlimit="10"></path></g><g transform="translate(-150,-170) scale(1,1)"><path fill="none" stroke="#000000" d="M 242 302 L 335 302" stroke-miterlimit="10"></path></g><g transform="translate(-150,-170) scale(1,1)"><g><path fill="none" stroke="none"></path><text fill="#000000" stroke="none" font-family="Arial" font-size="13px" font-style="normal" font-weight="normal" text-decoration="none" x="246" y="296">+utilise</text></g></g><g transform="translate(-150,-170) scale(1,1)"><path fill="none" stroke="#000000" d="M 387 302 L 483 302" stroke-miterlimit="10"></path></g><g transform="translate(-150,-170) scale(1,1)"><g><path fill="none" stroke="none"></path><text fill="#000000" stroke="none" font-family="Arial" font-size="13px" font-style="normal" font-weight="normal" text-decoration="none" x="424" y="297">+remplit</text></g></g><g transform="translate(-150,-170) scale(1,1)"><path fill="none" stroke="#000000" d="M 361 324 L 361 352 L 416 352 L 416 312 L 386 312" stroke-miterlimit="10"></path></g><g transform="translate(-150,-170) scale(1,1)"><g><path fill="none" stroke="none"></path><text fill="#000000" stroke="none" font-family="Arial" font-size="13px" font-style="normal" font-weight="normal" text-decoration="none" x="380" y="369">+déclenche</text></g></g></g></svg>