<svg version="1.1" xmlns="http://www.w3.org/2000/svg" xmlns:xlink="http://www.w3.org/1999/xlink" width="714" height="280"><defs></defs><g><g transform="translate(10,-26) scale(1,1)"><rect fill="#ffffff" stroke="none" x="152" y="120" width="81" height="44"></rect></g><g transform="translate(10,-26) scale(1,1)"><path fill="none" stroke="#000000" d="M 152 120 L 233 120 L 233 164 L 152 164 L 152 120 Z Z" stroke-miterlimit="10"></path></g><g transform="translate(10,-26) scale(1,1)"><path fill="none" stroke="#000000" d="M 152 145 L 233 145" stroke-miterlimit="10"></path></g><g transform="translate(10,-26) scale(1,1)"><path fill="none" stroke="#000000" d="M 152 155 L 233 155" stroke-miterlimit="10"></path></g><g transform="translate(10,-26) scale(1,1)"><g><path fill="none" stroke="none"></path><text fill="#000000" stroke="none" font-family="Arial" font-size="13px" font-style="normal" font-weight="bold" text-decoration="none" x="160" y="139.5">Information</text></g></g><g transform="translate(10,-26) scale(1,1)"><rect fill="#ffffff" stroke="none" x="304" y="120" width="49" height="44"></rect></g><g transform="translate(10,-26) scale(1,1)"><path fill="none" stroke="#000000" d="M 304 120 L 353 120 L 353 164 L 304 164 L 304 120 Z Z" stroke-miterlimit="10"></path></g><g transform="translate(10,-26) scale(1,1)"><path fill="none" stroke="#000000" d="M 304 145 L 353 145" stroke-miterlimit="10"></path></g><g transform="translate(10,-26) scale(1,1)"><path fill="none" stroke="#000000" d="M 304 155 L 353 155" stroke-miterlimit="10"></path></g><g transform="translate(10,-26) scale(1,1)"><g><path fill="none" stroke="none"></path><text fill="#000000" stroke="none" font-family="Arial" font-size="13px" font-style="normal" font-weight="bold" text-decoration="none" x="310" y="139.5">Action</text></g></g><g transform="translate(10,-26) scale(1,1)"><path fill="none" stroke="#000000" d="M 234 142 L 303 142" stroke-miterlimit="10"></path></g><g transform="translate(10,-26) scale(1,1)"><g><path fill="none" stroke="none"></path><text fill="#000000" stroke="none" font-family="Arial" font-size="13px" font-style="normal" font-weight="normal" text-decoration="none" x="235" y="138">+utilise</text></g></g><g transform="translate(10,-26) scale(1,1)"><path fill="none" stroke="#000000" d="M 328 120 L 328 100 L 360 100 L 360 132 L 353 132" stroke-miterlimit="10"></path></g><g transform="translate(10,-26) scale(1,1)"><g><path fill="none" stroke="none"></path><text fill="#000000" stroke="none" font-family="Arial" font-size="13px" font-style="normal" font-weight="normal" text-decoration="none" x="341" y="97">+déclenche</text></g></g><g transform="translate(10,-26) scale(1,1)"><rect fill="#ffffff" stroke="none" x="428" y="120" width="57" height="44"></rect></g><g transform="translate(10,-26) scale(1,1)"><path fill="none" stroke="#000000" d="M 428 120 L 485 120 L 485 164 L 428 164 L 428 120 Z Z" stroke-miterlimit="10"></path></g><g transform="translate(10,-26) scale(1,1)"><path fill="none" stroke="#000000" d="M 428 145 L 485 145" stroke-miterlimit="10"></path></g><g transform="translate(10,-26) scale(1,1)"><path fill="none" stroke="#000000" d="M 428 155 L 485 155" stroke-miterlimit="10"></path></g><g transform="translate(10,-26) scale(1,1)"><g><path fill="none" stroke="none"></path><text fill="#000000" stroke="none" font-family="Arial" font-size="13px" font-style="normal" font-weight="bold" text-decoration="none" x="434" y="139.5">Objectif</text></g></g><g transform="translate(10,-26) scale(1,1)"><path fill="none" stroke="#000000" d="M 354 142 L 427 142" stroke-miterlimit="10"></path></g><g transform="translate(10,-26) scale(1,1)"><g><path fill="none" stroke="none"></path><text fill="#000000" stroke="none" font-family="Arial" font-size="13px" font-style="normal" font-weight="normal" text-decoration="none" x="376" y="137">+remplit</text></g></g><g transform="translate(10,-26) scale(1,1)"><rect fill="#ffffff" stroke="none" x="236" y="252" width="46" height="44"></rect></g><g transform="translate(10,-26) scale(1,1)"><path fill="none" stroke="#000000" d="M 236 252 L 282 252 L 282 296 L 236 296 L 236 252 Z Z" stroke-miterlimit="10"></path></g><g transform="translate(10,-26) scale(1,1)"><path fill="none" stroke="#000000" d="M 236 277 L 282 277" stroke-miterlimit="10"></path></g><g transform="translate(10,-26) scale(1,1)"><path fill="none" stroke="#000000" d="M 236 287 L 282 287" stroke-miterlimit="10"></path></g><g transform="translate(10,-26) scale(1,1)"><g><path fill="none" stroke="none"></path><text fill="#000000" stroke="none" font-family="Arial" font-size="13px" font-style="normal" font-weight="bold" text-decoration="none" x="241" y="271.5">Tâche</text></g></g><g transform="translate(10,-26) scale(1,1)"><rect fill="#ffffff" stroke="none" x="0" y="52" width="60" height="44"></rect></g><g transform="translate(10,-26) scale(1,1)"><path fill="none" stroke="#000000" d="M 0 52 L 60 52 L 60 96 L 0 96 L 0 52 Z Z" stroke-miterlimit="10"></path></g><g transform="translate(10,-26) scale(1,1)"><path fill="none" stroke="#000000" d="M 0 77 L 60 77" stroke-miterlimit="10"></path></g><g transform="translate(10,-26) scale(1,1)"><path fill="none" stroke="#000000" d="M 0 87 L 60 87" stroke-miterlimit="10"></path></g><g transform="translate(10,-26) scale(1,1)"><g><path fill="none" stroke="none"></path><text fill="#000000" stroke="none" font-family="Arial" font-size="13px" font-style="normal" font-weight="bold" text-decoration="none" x="6" y="71.5">Concept</text></g></g><g transform="translate(10,-26) scale(1,1)"><rect fill="#ffffff" stroke="none" x="20" y="120" width="39" height="44"></rect></g><g transform="translate(10,-26) scale(1,1)"><path fill="none" stroke="#000000" d="M 20 120 L 59 120 L 59 164 L 20 164 L 20 120 Z Z" stroke-miterlimit="10"></path></g><g transform="translate(10,-26) scale(1,1)"><path fill="none" stroke="#000000" d="M 20 145 L 59 145" stroke-miterlimit="10"></path></g><g transform="translate(10,-26) scale(1,1)"><path fill="none" stroke="#000000" d="M 20 155 L 59 155" stroke-miterlimit="10"></path></g><g transform="translate(10,-26) scale(1,1)"><g><path fill="none" stroke="none"></path><text fill="#000000" stroke="none" font-family="Arial" font-size="13px" font-style="normal" font-weight="bold" text-decoration="none" x="25" y="139.5">Type</text></g></g><g transform="translate(10,-26) scale(1,1)"><rect fill="#ffffff" stroke="none" x="12" y="184" width="53" height="44"></rect></g><g transform="translate(10,-26) scale(1,1)"><path fill="none" stroke="#000000" d="M 12 184 L 65 184 L 65 228 L 12 228 L 12 184 Z Z" stroke-miterlimit="10"></path></g><g transform="translate(10,-26) scale(1,1)"><path fill="none" stroke="#000000" d="M 12 209 L 65 209" stroke-miterlimit="10"></path></g><g transform="translate(10,-26) scale(1,1)"><path fill="none" stroke="#000000" d="M 12 219 L 65 219" stroke-miterlimit="10"></path></g><g transform="translate(10,-26) scale(1,1)"><g><path fill="none" stroke="none"></path><text fill="#000000" stroke="none" font-family="Arial" font-size="13px" font-style="normal" font-weight="bold" text-decoration="none" x="18" y="203.5">Format</text></g></g><g transform="translate(10,-26) scale(1,1)"><rect fill="#ffffff" stroke="none" x="292" y="252" width="64" height="44"></rect></g><g transform="translate(10,-26) scale(1,1)"><path fill="none" stroke="#000000" d="M 292 252 L 356 252 L 356 296 L 292 296 L 292 252 Z Z" stroke-miterlimit="10"></path></g><g transform="translate(10,-26) scale(1,1)"><path fill="none" stroke="#000000" d="M 292 277 L 356 277" stroke-miterlimit="10"></path></g><g transform="translate(10,-26) scale(1,1)"><path fill="none" stroke="#000000" d="M 292 287 L 356 287" stroke-miterlimit="10"></path></g><g transform="translate(10,-26) scale(1,1)"><g><path fill="none" stroke="none"></path><text fill="#000000" stroke="none" font-family="Arial" font-size="13px" font-style="normal" font-weight="bold" text-decoration="none" x="299" y="271.5">Fonction</text></g></g><g transform="translate(10,-26) scale(1,1)"><rect fill="#ffffff" stroke="none" x="364" y="252" width="55" height="44"></rect></g><g transform="translate(10,-26) scale(1,1)"><path fill="none" stroke="#000000" d="M 364 252 L 419 252 L 419 296 L 364 296 L 364 252 Z Z" stroke-miterlimit="10"></path></g><g transform="translate(10,-26) scale(1,1)"><path fill="none" stroke="#000000" d="M 364 277 L 419 277" stroke-miterlimit="10"></path></g><g transform="translate(10,-26) scale(1,1)"><path fill="none" stroke="#000000" d="M 364 287 L 419 287" stroke-miterlimit="10"></path></g><g transform="translate(10,-26) scale(1,1)"><g><path fill="none" stroke="none"></path><text fill="#000000" stroke="none" font-family="Arial" font-size="13px" font-style="normal" font-weight="bold" text-decoration="none" x="370.5" y="271.5">Module</text></g></g><g transform="translate(10,-26) scale(1,1)"><rect fill="#ffffff" stroke="none" x="568" y="36" width="102" height="44"></rect></g><g transform="translate(10,-26) scale(1,1)"><path fill="none" stroke="#000000" d="M 568 36 L 670 36 L 670 80 L 568 80 L 568 36 Z Z" stroke-miterlimit="10"></path></g><g transform="translate(10,-26) scale(1,1)"><path fill="none" stroke="#000000" d="M 568 61 L 670 61" stroke-miterlimit="10"></path></g><g transform="translate(10,-26) scale(1,1)"><path fill="none" stroke="#000000" d="M 568 71 L 670 71" stroke-miterlimit="10"></path></g><g transform="translate(10,-26) scale(1,1)"><g><path fill="none" stroke="none"></path><text fill="#000000" stroke="none" font-family="Arial" font-size="13px" font-style="normal" font-weight="bold" text-decoration="none" x="575" y="55.5">Objectif_Métier</text></g></g><g transform="translate(10,-26) scale(1,1)"><rect fill="#ffffff" stroke="none" x="556" y="120" width="138" height="44"></rect></g><g transform="translate(10,-26) scale(1,1)"><path fill="none" stroke="#000000" d="M 556 120 L 694 120 L 694 164 L 556 164 L 556 120 Z Z" stroke-miterlimit="10"></path></g><g transform="translate(10,-26) scale(1,1)"><path fill="none" stroke="#000000" d="M 556 145 L 694 145" stroke-miterlimit="10"></path></g><g transform="translate(10,-26) scale(1,1)"><path fill="none" stroke="#000000" d="M 556 155 L 694 155" stroke-miterlimit="10"></path></g><g transform="translate(10,-26) scale(1,1)"><g><path fill="none" stroke="none"></path><text fill="#000000" stroke="none" font-family="Arial" font-size="13px" font-style="normal" font-weight="bold" text-decoration="none" x="565.5" y="139.5">Objectif_Fonctionnel</text></g></g><g transform="translate(10,-26) scale(1,1)"><rect fill="#ffffff" stroke="none" x="564" y="192" width="123" height="44"></rect></g><g transform="translate(10,-26) scale(1,1)"><path fill="none" stroke="#000000" d="M 564 192 L 687 192 L 687 236 L 564 236 L 564 192 Z Z" stroke-miterlimit="10"></path></g><g transform="translate(10,-26) scale(1,1)"><path fill="none" stroke="#000000" d="M 564 217 L 687 217" stroke-miterlimit="10"></path></g><g transform="translate(10,-26) scale(1,1)"><path fill="none" stroke="#000000" d="M 564 227 L 687 227" stroke-miterlimit="10"></path></g><g transform="translate(10,-26) scale(1,1)"><g><path fill="none" stroke="none"></path><text fill="#000000" stroke="none" font-family="Arial" font-size="13px" font-style="normal" font-weight="bold" text-decoration="none" x="572.5" y="211.5">Objectif_Applicatif</text></g></g><g transform="translate(10,-26) scale(1,1)"><path fill="none" stroke="#000000" d="M 61 87 L 139 120 L 151 125" stroke-miterlimit="10"></path></g><g transform="translate(10,-26) scale(1,1)"><path fill="#FFFFFF" stroke="none" d="M 129.00004814283542 124.9539751975494 L 151 125 L 135.47622930593693 109.41114040610574"></path></g><g transform="translate(10,-26) scale(1,1)"><path fill="none" stroke="#000000" d="M 129.00004814283542 124.9539751975494 L 151 125 L 135.47622930593693 109.41114040610574 L 129.00004814283542 124.9539751975494" stroke-miterlimit="10"></path></g><g transform="translate(10,-26) scale(1,1)"><path fill="none" stroke="#000000" d="M 60 142 L 151 142" stroke-miterlimit="10"></path></g><g transform="translate(10,-26) scale(1,1)"><path fill="#FFFFFF" stroke="none" d="M 130.6746502847517 150.41903551203197 L 151 142 L 130.6746502847517 133.58096448796803"></path></g><g transform="translate(10,-26) scale(1,1)"><path fill="none" stroke="#000000" d="M 130.6746502847517 150.41903551203197 L 151 142 L 130.6746502847517 133.58096448796803 L 130.6746502847517 150.41903551203197" stroke-miterlimit="10"></path></g><g transform="translate(10,-26) scale(1,1)"><path fill="none" stroke="#000000" d="M 66 194 L 151 159" stroke-miterlimit="10"></path></g><g transform="translate(10,-26) scale(1,1)"><path fill="#FFFFFF" stroke="none" d="M 135.41114040610574 174.52377069406307 L 151 159 L 129.00004814283542 158.9539751975494"></path></g><g transform="translate(10,-26) scale(1,1)"><path fill="none" stroke="#000000" d="M 135.41114040610574 174.52377069406307 L 151 159 L 129.00004814283542 158.9539751975494 L 135.41114040610574 174.52377069406307" stroke-miterlimit="10"></path></g><g transform="translate(10,-26) scale(1,1)"><path fill="none" stroke="#000000" d="M 271 251 L 316 165" stroke-miterlimit="10"></path></g><g transform="translate(10,-26) scale(1,1)"><path fill="#FFFFFF" stroke="none" d="M 314.03626542538075 186.91218260512733 L 316 165 L 299.1171770551528 179.1056828765197"></path></g><g transform="translate(10,-26) scale(1,1)"><path fill="none" stroke="#000000" d="M 314.03626542538075 186.91218260512733 L 316 165 L 299.1171770551528 179.1056828765197 L 314.03626542538075 186.91218260512733" stroke-miterlimit="10"></path></g><g transform="translate(10,-26) scale(1,1)"><path fill="none" stroke="#000000" d="M 325 251 L 327 165" stroke-miterlimit="10"></path></g><g transform="translate(10,-26) scale(1,1)"><path fill="#FFFFFF" stroke="none" d="M 334.9442050072491 185.5155942346986 L 327 165 L 318.11068542833493 185.124117035189"></path></g><g transform="translate(10,-26) scale(1,1)"><path fill="none" stroke="#000000" d="M 334.9442050072491 185.5155942346986 L 327 165 L 318.11068542833493 185.124117035189 L 334.9442050072491 185.5155942346986" stroke-miterlimit="10"></path></g><g transform="translate(10,-26) scale(1,1)"><path fill="none" stroke="#000000" d="M 380 251 L 339 165" stroke-miterlimit="10"></path></g><g transform="translate(10,-26) scale(1,1)"><path fill="#FFFFFF" stroke="none" d="M 355.34641119377414 179.72395466863625 L 339 165 L 340.14725001110537 186.9700663952574"></path></g><g transform="translate(10,-26) scale(1,1)"><path fill="none" stroke="#000000" d="M 355.34641119377414 179.72395466863625 L 339 165 L 340.14725001110537 186.9700663952574 L 355.34641119377414 179.72395466863625" stroke-miterlimit="10"></path></g><g transform="translate(10,-26) scale(1,1)"><path fill="none" stroke="#000000" d="M 574 81 L 486 127" stroke-miterlimit="10"></path></g><g transform="translate(10,-26) scale(1,1)"><path fill="#FFFFFF" stroke="none" d="M 500.1126884355127 110.1230327036477 L 486 127 L 507.9129957146383 125.0453596724097"></path></g><g transform="translate(10,-26) scale(1,1)"><path fill="none" stroke="#000000" d="M 500.1126884355127 110.1230327036477 L 486 127 L 507.9129957146383 125.0453596724097 L 500.1126884355127 110.1230327036477" stroke-miterlimit="10"></path></g><g transform="translate(10,-26) scale(1,1)"><path fill="none" stroke="#000000" d="M 555 142 L 486 142" stroke-miterlimit="10"></path></g><g transform="translate(10,-26) scale(1,1)"><path fill="#FFFFFF" stroke="none" d="M 506.3253497152483 133.58096448796803 L 486 142 L 506.3253497152483 150.41903551203197"></path></g><g transform="translate(10,-26) scale(1,1)"><path fill="none" stroke="#000000" d="M 506.3253497152483 133.58096448796803 L 486 142 L 506.3253497152483 150.41903551203197 L 506.3253497152483 133.58096448796803" stroke-miterlimit="10"></path></g><g transform="translate(10,-26) scale(1,1)"><path fill="none" stroke="#000000" d="M 571 191 L 486 155" stroke-miterlimit="10"></path></g><g transform="translate(10,-26) scale(1,1)"><path fill="#FFFFFF" stroke="none" d="M 507.9993090885339 155.17435488852126 L 486 155 L 501.4325731139147 170.67914816192754"></path></g><g transform="translate(10,-26) scale(1,1)"><path fill="none" stroke="#000000" d="M 507.9993090885339 155.17435488852126 L 486 155 L 501.4325731139147 170.67914816192754 L 507.9993090885339 155.17435488852126" stroke-miterlimit="10"></path></g></g></svg>