<?xml version="1.0" encoding="UTF-8" standalone="no"?>
<!-- Created with Inkscape (http://www.inkscape.org/) -->
<svg
   xmlns:svg="http://www.w3.org/2000/svg"
   xmlns="http://www.w3.org/2000/svg"
   version="1.0"
   width="56.279999"
   height="24.51"
   id="svg2"
   xml:space="preserve"><defs
     id="defs5"><clipPath
       id="clipPath17"><path
         d="M 503.938,1692.324 L 1143.7,1692.324 L 1143.7,2203.617 L 503.938,2203.617 L 503.938,1692.324 z"
         id="path19" /></clipPath><clipPath
       id="clipPath31"><path
         d="M 503.938,1565.723 L 1143.7,1565.723 L 1143.7,1693.45 L 503.938,1693.45 L 503.938,1565.723 z"
         id="path33" /></clipPath><clipPath
       id="clipPath45"><path
         d="M 0,819.09 L 446.539,819.09 L 446.539,1231.301 L 0,1231.301 L 0,819.09 z"
         id="path47" /></clipPath><clipPath
       id="clipPath59"><path
         d="M 445.668,819.09 L 892.695,819.09 L 892.695,1231.301 L 445.668,1231.301 L 445.668,819.09 z"
         id="path61" /></clipPath><clipPath
       id="clipPath73"><path
         d="M 891.824,681.98 L 1189.558,681.98 L 1189.558,1231.3 L 891.824,1231.3 L 891.824,681.98 z"
         id="path75" /></clipPath><clipPath
       id="clipPath87"><path
         d="M 0,407.316 L 446.539,407.316 L 446.539,819.961 L 0,819.961 L 0,407.316 z"
         id="path89" /></clipPath><clipPath
       id="clipPath101"><path
         d="M 445.668,819.961 L 445.668,407.316 L 892.695,407.316 L 892.695,819.961 L 445.668,819.961 z"
         id="path103" /></clipPath><clipPath
       id="clipPath115"><path
         d="M 891.824,132.66 L 1189.558,132.66 L 1189.558,682.851 L 891.824,682.851 L 891.824,132.66 z"
         id="path117" /></clipPath><clipPath
       id="clipPath129"><path
         d="M 0,0 L 446.539,0 L 446.539,408.188 L 0,408.188 L 0,0 z"
         id="path131" /></clipPath><clipPath
       id="clipPath143"><path
         d="M 445.668,0 L 892.695,0 L 892.695,408.188 L 445.668,408.188 L 445.668,0 z"
         id="path145" /></clipPath><clipPath
       id="clipPath157"><path
         d="M 891.824,0 L 1189.558,0 L 1189.558,133.523 L 891.824,133.523 L 891.824,0 z"
         id="path159" /></clipPath><clipPath
       id="clipPath171"><path
         d="M 503.938,1529.336 L 35.434,1529.336 L 35.434,2217.52 L 503.938,2217.52 L 503.938,2203.617 L 231.086,2203.617 L 231.086,1565.723 L 503.938,1565.723 L 503.938,1529.336"
         id="path173" /></clipPath><clipPath
       id="clipPath185"><path
         d="M 503.938,1565.723 L 231.086,1565.723 L 231.086,2203.617 L 503.938,2203.617 L 503.938,1565.723"
         id="path187" /></clipPath><clipPath
       id="clipPath223"><path
         d="M 1017.52,168.895 L 1017.52,71.859 L 1229.996,71.859 L 1229.996,168.895 L 1017.52,168.895"
         id="path225" /></clipPath></defs><g
     transform="matrix(1.25,0,0,-1.25,-309.5006,48.486872)"
     id="g11"><path
       d="M 256.35267,25.547001 C 256.20075,25.386677 255.78722,25.327636 255.67105,25.143792 C 255.49393,24.866345 255.08688,24.234411 254.76911,23.933444 C 253.74357,22.959502 251.54776,22.47013 250.46486,23.400152 C 250.39381,23.395352 250.43485,23.354071 250.5203,23.087905 C 250.59902,22.584373 251.00487,21.402106 250.85486,21.100419 C 250.95255,20.764651 251.05383,20.887534 251.23839,20.70105 C 251.36416,20.575287 251.41552,20.24624 251.56,20.157197 C 251.72488,20.168478 251.89001,20.180718 252.05489,20.191998 C 252.08417,20.100076 252.11585,20.008154 252.14489,19.914312 C 252.35586,19.929432 252.56874,19.945273 252.78067,19.960393 C 252.89971,19.933032 253.25972,19.747508 253.36556,19.718467 C 253.60101,19.735268 253.83621,19.751348 254.0707,19.767189 C 254.60975,19.623665 255.0804,19.84879 255.53497,20.156237 C 255.78818,20.325921 256.06562,20.298801 256.29075,20.491045 C 256.61692,20.771372 257.06141,21.317864 257.26949,21.696593 C 257.7795,22.622774 257.60598,24.842825 257.14397,25.391477 C 256.963,25.589242 256.74916,25.592842 256.35267,25.547001 M 260.61829,26.155415 C 260.23572,25.862848 260.0754,25.93509 259.85147,25.48316 C 259.82795,25.48316 259.88507,25.415718 259.86275,25.415718 C 260.09052,24.960188 260.61277,24.777303 260.99702,24.457616 C 261.11606,24.356334 261.44055,23.793761 261.59439,23.75344 C 261.76767,23.547275 261.88024,22.976302 261.99376,22.976302 C 262.11088,22.815978 261.98344,22.43821 262.09864,22.291086 C 262.10608,21.614031 262.01248,21.56723 261.8944,21.436907 C 261.8944,21.390106 261.95896,21.267223 261.95896,21.221382 C 261.99088,21.189461 262.26281,20.994337 262.38089,21.017857 C 262.7493,21.007537 264.25869,19.82911 264.37869,19.602065 C 265.4616,19.520703 265.38288,19.85167 266.13001,20.168478 C 266.33162,20.2556 266.4929,20.173038 266.62491,20.311041 C 266.76387,20.452404 266.77491,20.732011 266.90811,20.877214 C 266.92587,23.540795 263.30251,26.063493 260.61829,26.155415 M 263.55932,31.783304 C 262.21768,31.581939 261.39735,31.153289 260.89021,30.802641 C 260.53573,30.555196 260.43276,30.390312 260.35764,30.28615 C 260.27988,30.182227 260.22828,29.952302 260.26572,29.709656 C 260.30508,29.469651 260.40372,29.213565 260.61277,29.070282 C 262.25993,29.192205 265.12127,29.296127 265.67808,27.912255 C 265.70712,27.719291 265.75129,27.602888 265.75489,27.557047 C 266.30066,27.69217 265.90129,27.644169 266.70555,27.518646 C 266.88939,27.489606 267.34324,27.591848 267.64421,27.66577 C 267.78101,27.69769 267.85877,27.821533 267.85877,27.821533 C 267.85877,27.821533 267.83261,27.953536 267.84005,28.025778 C 267.84005,28.025778 268.1223,28.004177 268.2375,28.093219 C 268.99976,28.216102 268.59943,28.57419 268.95848,28.97836 C 268.74295,31.565859 266.08777,32.166833 263.55932,31.783304 M 253.34324,27.065756 C 253.63845,27.141838 254.14102,27.181198 254.40431,27.312241 C 254.82431,27.522246 256.26627,28.530269 255.8069,29.351568 C 255.66625,31.081288 253.57845,29.619654 252.68875,30.226148 C 251.78969,30.342311 250.77902,32.04299 250.50806,32.772367 C 250.40317,33.060373 250.44613,32.961971 250.30189,33.189736 C 250.30285,33.213017 250.20997,33.111014 250.21093,33.134295 C 249.94836,32.828768 249.99348,32.560682 249.9522,31.814265 C 249.83412,31.821945 249.71676,31.828425 249.59868,31.836825 C 249.57611,31.565859 249.54899,31.418736 249.42251,31.279052 C 249.39707,31.232971 249.36995,31.18905 249.34379,31.142249 C 249.11962,31.217131 249.23219,31.111289 249.14122,31.298733 C 248.31345,31.256492 248.37417,30.423913 247.99376,29.951582 C 248.01056,28.397066 251.08551,26.480862 253.34324,27.065756 M 259.33402,35.514669 C 259.40506,36.101723 259.31794,36.959503 259.78115,37.363432 C 259.91699,37.989846 260.90341,37.843443 260.74957,38.242812 C 260.65405,38.492418 260.19084,38.373135 260.00339,38.327294 C 259.86083,38.293453 258.50888,37.866003 257.98951,37.807922 C 257.76918,37.868883 257.54886,37.929845 257.32949,37.991766 C 256.48011,37.877284 255.99074,37.202388 255.51913,36.665976 C 255.1236,36.216926 254.58719,35.1153 255.01392,34.456245 C 254.9904,34.312722 254.96592,34.168479 254.94264,34.023995 L 255.90626,32.615883 C 256.23915,32.376838 256.28331,32.199713 256.6414,31.964268 C 256.71532,31.853626 256.78852,31.742983 256.86268,31.63162 C 257.15501,31.439376 258.01951,31.436496 258.16399,31.562259 C 259.55434,31.432656 259.40338,34.24624 259.84403,34.837854 C 259.78859,35.10306 259.55506,35.378826 259.33402,35.514669"
       id="path233"
       style="fill:#f1471c;fill-opacity:1;fill-rule:evenodd;stroke:none" /><path
       d="M 281.69654,25.088566 C 282.92753,25.088566 283.92883,25.495375 283.92883,27.669585 C 283.92883,29.519308 282.92753,30.134202 281.69654,30.134202 L 281.05069,30.134202 L 281.05069,25.088566 L 281.69654,25.088566 z M 282.34911,31.600635 C 284.57757,31.600635 286.086,30.191563 286.086,27.669585 C 286.086,24.500793 284.01499,23.562371 281.8439,23.562371 L 278.9384,23.562371 C 278.94872,23.738535 278.9384,24.207266 278.9384,24.795039 L 278.9384,30.368687 C 278.9384,30.9555 278.94872,31.330629 278.9384,31.600635"
       id="path237"
       style="fill:#13356d;fill-opacity:1;fill-rule:nonzero;stroke:none" /><path
       d="M 289.24543,24.795109 C 289.24543,24.207336 289.27471,23.562201 289.27471,23.562201 L 287.11922,23.562201 C 287.11922,23.562201 287.13338,24.207336 287.13338,24.795109 L 287.13338,30.369717 C 287.13338,30.95653 287.11922,31.600465 287.11922,31.600465 L 292.21478,31.600465 L 292.21478,30.045229 C 292.21478,30.045229 291.07547,30.07427 290.6893,30.07427 L 289.24543,30.07427 L 289.24543,28.455193 L 290.6893,28.440313 C 290.95931,28.440313 291.88933,28.455193 291.88933,28.455193 L 291.88933,26.973879 C 291.88933,26.973879 291.06443,26.996439 290.6893,26.996439 L 289.24543,26.988039"
       id="path241"
       style="fill:#13356d;fill-opacity:1;fill-rule:nonzero;stroke:none" /><path
       d="M 272.84273,28.563008 C 272.87465,29.028139 273.04049,30.108163 274.21508,30.108163 C 275.41895,30.108163 275.48471,29.09366 275.48471,28.556528 L 275.48471,28.448525 C 275.48471,28.448525 274.68021,28.426205 274.2002,28.426205 C 273.72019,28.426205 272.83505,28.448525 272.83505,28.448525 L 272.84273,28.563008 z M 274.63605,25.187091 C 273.62275,25.187091 272.84273,25.869426 272.84273,26.935531 L 272.84273,27.026493 C 272.84273,27.026493 274.72605,27.072334 275.36471,27.072334 C 276.45025,27.072334 276.89834,27.082654 277.75444,27.093934 L 277.75444,27.700428 C 277.75444,30.438891 276.59282,31.772122 274.2002,31.772122 C 273.09762,31.772122 270.53364,31.357872 270.53364,27.522344 C 270.53364,24.962925 271.82535,23.43385 274.08404,23.43385 C 275.85672,23.43385 276.94514,23.886741 277.7338,24.462274 C 277.64476,24.595477 276.98474,25.782304 276.89834,25.911667 C 276.42481,25.550699 275.64407,25.187091 274.63605,25.187091"
       id="path245"
       style="fill:#13356d;fill-opacity:1;fill-rule:nonzero;stroke:none" /></g></svg>