<svg version="1.1" xmlns="http://www.w3.org/2000/svg" xmlns:xlink="http://www.w3.org/1999/xlink" width="946" height="496"><defs></defs><g><g transform="translate(-42,-10) scale(1,1)"><rect fill="#ffffff" stroke="none" x="468" y="136" width="179" height="61"></rect></g><g transform="translate(-42,-10) scale(1,1)"><path fill="none" stroke="#000000" d="M 468 136 L 647 136 L 647 197 L 468 197 L 468 136 Z Z" stroke-miterlimit="10"></path></g><g transform="translate(-42,-10) scale(1,1)"><path fill="none" stroke="#000000" d="M 468 178 L 647 178" stroke-miterlimit="10"></path></g><g transform="translate(-42,-10) scale(1,1)"><path fill="none" stroke="#000000" d="M 468 188 L 647 188" stroke-miterlimit="10"></path></g><g transform="translate(-42,-10) scale(1,1)"><g><path fill="none" stroke="none"></path><text fill="#000000" stroke="none" font-family="Times" font-size="15px" font-style="normal" font-weight="normal" text-decoration="none" x="523.5" y="155.5">«fonction»</text></g></g><g transform="translate(-42,-10) scale(1,1)"><g><path fill="none" stroke="none"></path><text fill="#000000" stroke="none" font-family="Times" font-size="15px" font-style="normal" font-weight="bold" text-decoration="none" x="475" y="172.5">Affecter véhicule à tounée</text></g></g><g transform="translate(-42,-10) scale(1,1)"><rect fill="#ffffff" stroke="none" x="460" y="316" width="230" height="61"></rect></g><g transform="translate(-42,-10) scale(1,1)"><path fill="none" stroke="#000000" d="M 460 316 L 690 316 L 690 377 L 460 377 L 460 316 Z Z" stroke-miterlimit="10"></path></g><g transform="translate(-42,-10) scale(1,1)"><path fill="none" stroke="#000000" d="M 460 358 L 690 358" stroke-miterlimit="10"></path></g><g transform="translate(-42,-10) scale(1,1)"><path fill="none" stroke="#000000" d="M 460 368 L 690 368" stroke-miterlimit="10"></path></g><g transform="translate(-42,-10) scale(1,1)"><g><path fill="none" stroke="none"></path><text fill="#000000" stroke="none" font-family="Times" font-size="15px" font-style="normal" font-weight="normal" text-decoration="none" x="543.5" y="335.5">«module»</text></g></g><g transform="translate(-42,-10) scale(1,1)"><g><path fill="none" stroke="none"></path><text fill="#000000" stroke="none" font-family="Times" font-size="15px" font-style="normal" font-weight="bold" text-decoration="none" x="469.5" y="352.5">Optimisation affectation MiniZinc</text></g></g><g transform="translate(-42,-10) scale(1,1)"><rect fill="#ffffff" stroke="none" x="132" y="316" width="203" height="61"></rect></g><g transform="translate(-42,-10) scale(1,1)"><path fill="none" stroke="#000000" d="M 132 316 L 335 316 L 335 377 L 132 377 L 132 316 Z Z" stroke-miterlimit="10"></path></g><g transform="translate(-42,-10) scale(1,1)"><path fill="none" stroke="#000000" d="M 132 358 L 335 358" stroke-miterlimit="10"></path></g><g transform="translate(-42,-10) scale(1,1)"><path fill="none" stroke="#000000" d="M 132 368 L 335 368" stroke-miterlimit="10"></path></g><g transform="translate(-42,-10) scale(1,1)"><g><path fill="none" stroke="none"></path><text fill="#000000" stroke="none" font-family="Times" font-size="15px" font-style="normal" font-weight="normal" text-decoration="none" x="205" y="335.5">«format»</text></g></g><g transform="translate(-42,-10) scale(1,1)"><g><path fill="none" stroke="none"></path><text fill="#000000" stroke="none" font-family="Times" font-size="15px" font-style="normal" font-weight="bold" text-decoration="none" x="138.5" y="352.5">Données véhicules et tournées</text></g></g><g transform="translate(-42,-10) scale(1,1)"><rect fill="#ffffff" stroke="none" x="752" y="316" width="158" height="61"></rect></g><g transform="translate(-42,-10) scale(1,1)"><path fill="none" stroke="#000000" d="M 752 316 L 910 316 L 910 377 L 752 377 L 752 316 Z Z" stroke-miterlimit="10"></path></g><g transform="translate(-42,-10) scale(1,1)"><path fill="none" stroke="#000000" d="M 752 358 L 910 358" stroke-miterlimit="10"></path></g><g transform="translate(-42,-10) scale(1,1)"><path fill="none" stroke="#000000" d="M 752 368 L 910 368" stroke-miterlimit="10"></path></g><g transform="translate(-42,-10) scale(1,1)"><g><path fill="none" stroke="none"></path><text fill="#000000" stroke="none" font-family="Times" font-size="15px" font-style="normal" font-weight="normal" text-decoration="none" x="802.5" y="335.5">«format»</text></g></g><g transform="translate(-42,-10) scale(1,1)"><g><path fill="none" stroke="none"></path><text fill="#000000" stroke="none" font-family="Times" font-size="15px" font-style="normal" font-weight="bold" text-decoration="none" x="768.5" y="352.5">Données affectation</text></g></g><g transform="translate(-42,-10) scale(1,1)"><rect fill="#ffffff" stroke="none" x="172" y="32" width="109" height="61"></rect></g><g transform="translate(-42,-10) scale(1,1)"><path fill="none" stroke="#000000" d="M 172 32 L 281 32 L 281 93 L 172 93 L 172 32 Z Z" stroke-miterlimit="10"></path></g><g transform="translate(-42,-10) scale(1,1)"><path fill="none" stroke="#000000" d="M 172 74 L 281 74" stroke-miterlimit="10"></path></g><g transform="translate(-42,-10) scale(1,1)"><path fill="none" stroke="#000000" d="M 172 84 L 281 84" stroke-miterlimit="10"></path></g><g transform="translate(-42,-10) scale(1,1)"><g><path fill="none" stroke="none"></path><text fill="#000000" stroke="none" font-family="Times" font-size="15px" font-style="normal" font-weight="normal" text-decoration="none" x="205" y="51.5">«type»</text></g></g><g transform="translate(-42,-10) scale(1,1)"><g><path fill="none" stroke="none"></path><text fill="#000000" stroke="none" font-family="Times" font-size="15px" font-style="normal" font-weight="bold" text-decoration="none" x="200.5" y="68.5">Tournée</text></g></g><g transform="translate(-42,-10) scale(1,1)"><rect fill="#ffffff" stroke="none" x="240" y="136" width="136" height="61"></rect></g><g transform="translate(-42,-10) scale(1,1)"><path fill="none" stroke="#000000" d="M 240 136 L 376 136 L 376 197 L 240 197 L 240 136 Z Z" stroke-miterlimit="10"></path></g><g transform="translate(-42,-10) scale(1,1)"><path fill="none" stroke="#000000" d="M 240 178 L 376 178" stroke-miterlimit="10"></path></g><g transform="translate(-42,-10) scale(1,1)"><path fill="none" stroke="#000000" d="M 240 188 L 376 188" stroke-miterlimit="10"></path></g><g transform="translate(-42,-10) scale(1,1)"><g><path fill="none" stroke="none"></path><text fill="#000000" stroke="none" font-family="Times" font-size="15px" font-style="normal" font-weight="normal" text-decoration="none" x="286.5" y="155.5">«type»</text></g></g><g transform="translate(-42,-10) scale(1,1)"><g><path fill="none" stroke="none"></path><text fill="#000000" stroke="none" font-family="Times" font-size="15px" font-style="normal" font-weight="bold" text-decoration="none" x="246.5" y="172.5">Véhicule Eléctrique</text></g></g><g transform="translate(-42,-10) scale(1,1)"><path fill="none" stroke="#000000" d="M 281 48 L 552 48 L 552 136" stroke-miterlimit="10"></path></g><g transform="translate(-42,-10) scale(1,1)"><g><path fill="none" stroke="none"></path><text fill="#000000" stroke="none" font-family="Times" font-size="15px" font-style="normal" font-weight="normal" text-decoration="none" x="471" y="124">+consomme</text></g></g><g transform="translate(-42,-10) scale(1,1)"><path fill="none" stroke="#000000" d="M 376 164 L 468 164" stroke-miterlimit="10"></path></g><g transform="translate(-42,-10) scale(1,1)"><g><path fill="none" stroke="none"></path><text fill="#000000" stroke="none" font-family="Times" font-size="15px" font-style="normal" font-weight="normal" text-decoration="none" x="383" y="159">+consomme</text></g></g><g transform="translate(-42,-10) scale(1,1)"><rect fill="#ffffff" stroke="none" x="760" y="136" width="109" height="61"></rect></g><g transform="translate(-42,-10) scale(1,1)"><path fill="none" stroke="#000000" d="M 760 136 L 869 136 L 869 197 L 760 197 L 760 136 Z Z" stroke-miterlimit="10"></path></g><g transform="translate(-42,-10) scale(1,1)"><path fill="none" stroke="#000000" d="M 760 178 L 869 178" stroke-miterlimit="10"></path></g><g transform="translate(-42,-10) scale(1,1)"><path fill="none" stroke="#000000" d="M 760 188 L 869 188" stroke-miterlimit="10"></path></g><g transform="translate(-42,-10) scale(1,1)"><g><path fill="none" stroke="none"></path><text fill="#000000" stroke="none" font-family="Times" font-size="15px" font-style="normal" font-weight="normal" text-decoration="none" x="793" y="155.5">«type»</text></g></g><g transform="translate(-42,-10) scale(1,1)"><g><path fill="none" stroke="none"></path><text fill="#000000" stroke="none" font-family="Times" font-size="15px" font-style="normal" font-weight="bold" text-decoration="none" x="779.5" y="172.5">Affectation</text></g></g><g transform="translate(-42,-10) scale(1,1)"><path fill="none" stroke="#000000" d="M 648 166 L 759 166" stroke-miterlimit="10"></path></g><g transform="translate(-42,-10) scale(1,1)"><g><path fill="none" stroke="none"></path><text fill="#000000" stroke="none" font-family="Times" font-size="15px" font-style="normal" font-weight="normal" text-decoration="none" x="652" y="158">+produit</text></g></g><g transform="translate(-42,-10) scale(1,1)"><path fill="none" stroke="#000000" d="M 336 346 L 459 346" stroke-miterlimit="10"></path></g><g transform="translate(-42,-10) scale(1,1)"><g><path fill="none" stroke="none"></path><text fill="#000000" stroke="none" font-family="Times" font-size="15px" font-style="normal" font-weight="normal" text-decoration="none" x="379" y="340">+consomme</text></g></g><g transform="translate(-42,-10) scale(1,1)"><rect fill="#ffffff" stroke="none" x="52" y="128" width="168" height="61"></rect></g><g transform="translate(-42,-10) scale(1,1)"><path fill="none" stroke="#000000" d="M 52 128 L 220 128 L 220 189 L 52 189 L 52 128 Z Z" stroke-miterlimit="10"></path></g><g transform="translate(-42,-10) scale(1,1)"><path fill="none" stroke="#000000" d="M 52 170 L 220 170" stroke-miterlimit="10"></path></g><g transform="translate(-42,-10) scale(1,1)"><path fill="none" stroke="#000000" d="M 52 180 L 220 180" stroke-miterlimit="10"></path></g><g transform="translate(-42,-10) scale(1,1)"><g><path fill="none" stroke="none"></path><text fill="#000000" stroke="none" font-family="Times" font-size="15px" font-style="normal" font-weight="normal" text-decoration="none" x="99.5" y="147.5">«intervues»</text></g></g><g transform="translate(-42,-10) scale(1,1)"><g><path fill="none" stroke="none"></path><text fill="#000000" stroke="none" font-family="Times" font-size="15px" font-style="normal" font-weight="bold" text-decoration="none" x="60.5" y="164.5">Transformation Acceleo</text></g></g><g transform="translate(-42,-10) scale(1,1)"><path fill="none" stroke="#000000" d="M 228 93 L 228 316" stroke-miterlimit="10"></path></g><g transform="translate(-42,-10) scale(1,1)"><g><path fill="none" stroke="none"></path><text fill="#000000" stroke="none" font-family="Times" font-size="15px" font-style="normal" font-weight="normal" text-decoration="none" x="230" y="310">+raffine</text></g></g><g transform="translate(-42,-10) scale(1,1)"><path fill="none" stroke="#000000" d="M 221 156 L 228 156 L 228 203" stroke-miterlimit="10" stroke-dasharray="3"></path></g><g transform="translate(-42,-10) scale(1,1)"><rect fill="#ffffff" stroke="none" x="52" y="232" width="168" height="61"></rect></g><g transform="translate(-42,-10) scale(1,1)"><path fill="none" stroke="#000000" d="M 52 232 L 220 232 L 220 293 L 52 293 L 52 232 Z Z" stroke-miterlimit="10"></path></g><g transform="translate(-42,-10) scale(1,1)"><path fill="none" stroke="#000000" d="M 52 274 L 220 274" stroke-miterlimit="10"></path></g><g transform="translate(-42,-10) scale(1,1)"><path fill="none" stroke="#000000" d="M 52 284 L 220 284" stroke-miterlimit="10"></path></g><g transform="translate(-42,-10) scale(1,1)"><g><path fill="none" stroke="none"></path><text fill="#000000" stroke="none" font-family="Times" font-size="15px" font-style="normal" font-weight="normal" text-decoration="none" x="99.5" y="251.5">«intervues»</text></g></g><g transform="translate(-42,-10) scale(1,1)"><g><path fill="none" stroke="none"></path><text fill="#000000" stroke="none" font-family="Times" font-size="15px" font-style="normal" font-weight="bold" text-decoration="none" x="60.5" y="268.5">Transformation Acceleo</text></g></g><g transform="translate(-42,-10) scale(1,1)"><path fill="none" stroke="#000000" d="M 304 197 L 304 316" stroke-miterlimit="10"></path></g><g transform="translate(-42,-10) scale(1,1)"><g><path fill="none" stroke="none"></path><text fill="#000000" stroke="none" font-family="Times" font-size="15px" font-style="normal" font-weight="normal" text-decoration="none" x="309" y="310">+raffine</text></g></g><g transform="translate(-42,-10) scale(1,1)"><path fill="none" stroke="#000000" d="M 221 275 L 304 275 L 304 257" stroke-miterlimit="10" stroke-dasharray="3"></path></g><g transform="translate(-42,-10) scale(1,1)"><rect fill="#ffffff" stroke="none" x="592" y="232" width="168" height="61"></rect></g><g transform="translate(-42,-10) scale(1,1)"><path fill="none" stroke="#000000" d="M 592 232 L 760 232 L 760 293 L 592 293 L 592 232 Z Z" stroke-miterlimit="10"></path></g><g transform="translate(-42,-10) scale(1,1)"><path fill="none" stroke="#000000" d="M 592 274 L 760 274" stroke-miterlimit="10"></path></g><g transform="translate(-42,-10) scale(1,1)"><path fill="none" stroke="#000000" d="M 592 284 L 760 284" stroke-miterlimit="10"></path></g><g transform="translate(-42,-10) scale(1,1)"><g><path fill="none" stroke="none"></path><text fill="#000000" stroke="none" font-family="Times" font-size="15px" font-style="normal" font-weight="normal" text-decoration="none" x="639.5" y="251.5">«intervues»</text></g></g><g transform="translate(-42,-10) scale(1,1)"><g><path fill="none" stroke="none"></path><text fill="#000000" stroke="none" font-family="Times" font-size="15px" font-style="normal" font-weight="bold" text-decoration="none" x="600.5" y="268.5">Transformation Acceleo</text></g></g><g transform="translate(-42,-10) scale(1,1)"><path fill="none" stroke="#000000" d="M 560 197 L 560 316" stroke-miterlimit="10"></path></g><g transform="translate(-42,-10) scale(1,1)"><path fill="none" stroke="#000000" d="M 591 257 L 561 257" stroke-miterlimit="10" stroke-dasharray="3"></path></g><g transform="translate(-42,-10) scale(1,1)"><path fill="none" stroke="#000000" d="M 690 344 L 752 344" stroke-miterlimit="10"></path></g><g transform="translate(-42,-10) scale(1,1)"><g><path fill="none" stroke="none"></path><text fill="#000000" stroke="none" font-family="Times" font-size="15px" font-style="normal" font-weight="normal" text-decoration="none" x="692" y="338">+produit</text></g></g><g transform="translate(-42,-10) scale(1,1)"><path fill="none" stroke="#000000" d="M 816 197 L 816 316" stroke-miterlimit="10"></path></g><g transform="translate(-42,-10) scale(1,1)"><g><path fill="none" stroke="none"></path><text fill="#000000" stroke="none" font-family="Times" font-size="15px" font-style="normal" font-weight="normal" text-decoration="none" x="821" y="311">+raffine</text></g></g><g transform="translate(-42,-10) scale(1,1)"><rect fill="#ffffff" stroke="none" x="764" y="20" width="214" height="76"></rect></g><g transform="translate(-42,-10) scale(1,1)"><path fill="none" stroke="#000000" d="M 764 20 L 978 20 L 978 96 L 764 96 L 764 20 Z Z" stroke-miterlimit="10"></path></g><g transform="translate(-42,-10) scale(1,1)"><path fill="none" stroke="#000000" d="M 764 62 L 978 62" stroke-miterlimit="10"></path></g><g transform="translate(-42,-10) scale(1,1)"><path fill="none" stroke="#000000" d="M 764 87 L 978 87" stroke-miterlimit="10"></path></g><g transform="translate(-42,-10) scale(1,1)"><g><path fill="none" stroke="none"></path><text fill="#000000" stroke="none" font-family="Times" font-size="15px" font-style="normal" font-weight="normal" text-decoration="none" x="800.5" y="39.5">«Objectif fonctionnel»</text></g></g><g transform="translate(-42,-10) scale(1,1)"><g><path fill="none" stroke="none"></path><text fill="#000000" stroke="none" font-family="Times" font-size="15px" font-style="normal" font-weight="bold" text-decoration="none" x="827.5" y="56.5">Gestion Flotte</text></g></g><g transform="translate(-42,-10) scale(1,1)"><g><path fill="none" stroke="none"></path><text fill="#000000" stroke="none" font-family="Times" font-size="15px" font-style="normal" font-weight="normal" text-decoration="none" x="769" y="81.5">+Optimiser utilisation VE</text></g></g><g transform="translate(-42,-10) scale(1,1)"><path fill="none" stroke="#000000" d="M 764 60 L 612 60 L 612 136" stroke-miterlimit="10"></path></g><g transform="translate(-42,-10) scale(1,1)"><g><path fill="none" stroke="none"></path><text fill="#000000" stroke="none" font-family="Times" font-size="15px" font-style="normal" font-weight="normal" text-decoration="none" x="684" y="53">+rempli par</text></g></g><g transform="translate(-42,-10) scale(1,1)"><rect fill="#ffffff" stroke="none" x="764" y="420" width="200" height="76"></rect></g><g transform="translate(-42,-10) scale(1,1)"><path fill="none" stroke="#000000" d="M 764 420 L 964 420 L 964 496 L 764 496 L 764 420 Z Z" stroke-miterlimit="10"></path></g><g transform="translate(-42,-10) scale(1,1)"><path fill="none" stroke="#000000" d="M 764 462 L 964 462" stroke-miterlimit="10"></path></g><g transform="translate(-42,-10) scale(1,1)"><path fill="none" stroke="#000000" d="M 764 487 L 964 487" stroke-miterlimit="10"></path></g><g transform="translate(-42,-10) scale(1,1)"><g><path fill="none" stroke="none"></path><text fill="#000000" stroke="none" font-family="Times" font-size="15px" font-style="normal" font-weight="normal" text-decoration="none" x="800" y="439.5">«Objectif applicatif»</text></g></g><g transform="translate(-42,-10) scale(1,1)"><g><path fill="none" stroke="none"></path><text fill="#000000" stroke="none" font-family="Times" font-size="15px" font-style="normal" font-weight="bold" text-decoration="none" x="820.5" y="456.5">Gestion Flotte</text></g></g><g transform="translate(-42,-10) scale(1,1)"><g><path fill="none" stroke="none"></path><text fill="#000000" stroke="none" font-family="Times" font-size="15px" font-style="normal" font-weight="normal" text-decoration="none" x="769" y="481.5">+MaximiserDistanceElectrique</text></g></g><g transform="translate(-42,-10) scale(1,1)"><path fill="none" stroke="#000000" d="M 606 377 L 606 448 L 764 448" stroke-miterlimit="10"></path></g><g transform="translate(-42,-10) scale(1,1)"><g><path fill="none" stroke="none"></path><text fill="#000000" stroke="none" font-family="Times" font-size="15px" font-style="normal" font-weight="normal" text-decoration="none" x="681" y="442">+rempli par</text></g></g><g transform="translate(-42,-10) scale(1,1)"><path fill="none" stroke="#000000" d="M 924 96 L 924 420" stroke-miterlimit="10"></path></g><g transform="translate(-42,-10) scale(1,1)"><g><path fill="none" stroke="none"></path><text fill="#000000" stroke="none" font-family="Times" font-size="15px" font-style="normal" font-weight="normal" text-decoration="none" x="929" y="416">+raffine</text></g></g></g></svg>