<svg version="1.1" xmlns="http://www.w3.org/2000/svg" xmlns:xlink="http://www.w3.org/1999/xlink" width="619" height="530"><defs></defs><g><g transform="translate(-159,-146) scale(1,1)"><rect fill="#C0C0C0" stroke="none" x="180" y="245" width="88" height="44" opacity="0.2"></rect></g><g transform="translate(-159,-146) scale(1,1)"><rect fill="#ffffff" stroke="none" x="173" y="238" width="88" height="44"></rect></g><g transform="translate(-159,-146) scale(1,1)"><path fill="none" stroke="#000000" d="M 173 238 L 261 238 L 261 282 L 173 282 L 173 238 Z Z" stroke-miterlimit="10"></path></g><g transform="translate(-159,-146) scale(1,1)"><path fill="none" stroke="#000000" d="M 173 263 L 261 263" stroke-miterlimit="10"></path></g><g transform="translate(-159,-146) scale(1,1)"><path fill="none" stroke="#000000" d="M 173 273 L 261 273" stroke-miterlimit="10"></path></g><g transform="translate(-159,-146) scale(1,1)"><g><path fill="none" stroke="none"></path><text fill="#000000" stroke="none" font-family="Arial" font-size="13px" font-style="normal" font-weight="bold" text-decoration="none" x="199" y="257.5">Métier</text></g></g><g transform="translate(-159,-146) scale(1,1)"><rect fill="#C0C0C0" stroke="none" x="180" y="321" width="94" height="44" opacity="0.2"></rect></g><g transform="translate(-159,-146) scale(1,1)"><rect fill="#ffffff" stroke="none" x="173" y="314" width="94" height="44"></rect></g><g transform="translate(-159,-146) scale(1,1)"><path fill="none" stroke="#000000" d="M 173 314 L 267 314 L 267 358 L 173 358 L 173 314 Z Z" stroke-miterlimit="10"></path></g><g transform="translate(-159,-146) scale(1,1)"><path fill="none" stroke="#000000" d="M 173 339 L 267 339" stroke-miterlimit="10"></path></g><g transform="translate(-159,-146) scale(1,1)"><path fill="none" stroke="#000000" d="M 173 349 L 267 349" stroke-miterlimit="10"></path></g><g transform="translate(-159,-146) scale(1,1)"><g><path fill="none" stroke="none"></path><text fill="#000000" stroke="none" font-family="Arial" font-size="13px" font-style="normal" font-weight="bold" text-decoration="none" x="181.5" y="333.5">Fonctionnelle</text></g></g><g transform="translate(-159,-146) scale(1,1)"><rect fill="#C0C0C0" stroke="none" x="176" y="401" width="88" height="44" opacity="0.2"></rect></g><g transform="translate(-159,-146) scale(1,1)"><rect fill="#ffffff" stroke="none" x="169" y="394" width="88" height="44"></rect></g><g transform="translate(-159,-146) scale(1,1)"><path fill="none" stroke="#000000" d="M 169 394 L 257 394 L 257 438 L 169 438 L 169 394 Z Z" stroke-miterlimit="10"></path></g><g transform="translate(-159,-146) scale(1,1)"><path fill="none" stroke="#000000" d="M 169 419 L 257 419" stroke-miterlimit="10"></path></g><g transform="translate(-159,-146) scale(1,1)"><path fill="none" stroke="#000000" d="M 169 429 L 257 429" stroke-miterlimit="10"></path></g><g transform="translate(-159,-146) scale(1,1)"><g><path fill="none" stroke="none"></path><text fill="#000000" stroke="none" font-family="Arial" font-size="13px" font-style="normal" font-weight="bold" text-decoration="none" x="181" y="413.5">Applicative</text></g></g><g transform="translate(-159,-146) scale(1,1)"><rect fill="#C0C0C0" stroke="none" x="180" y="477" width="88" height="44" opacity="0.2"></rect></g><g transform="translate(-159,-146) scale(1,1)"><rect fill="#ffffff" stroke="none" x="173" y="470" width="88" height="44"></rect></g><g transform="translate(-159,-146) scale(1,1)"><path fill="none" stroke="#000000" d="M 173 470 L 261 470 L 261 514 L 173 514 L 173 470 Z Z" stroke-miterlimit="10"></path></g><g transform="translate(-159,-146) scale(1,1)"><path fill="none" stroke="#000000" d="M 173 495 L 261 495" stroke-miterlimit="10"></path></g><g transform="translate(-159,-146) scale(1,1)"><path fill="none" stroke="#000000" d="M 173 505 L 261 505" stroke-miterlimit="10"></path></g><g transform="translate(-159,-146) scale(1,1)"><g><path fill="none" stroke="none"></path><text fill="#000000" stroke="none" font-family="Arial" font-size="13px" font-style="normal" font-weight="bold" text-decoration="none" x="187" y="489.5">Technique</text></g></g><g transform="translate(-159,-146) scale(1,1)"><rect fill="#C0C0C0" stroke="none" x="448" y="361" width="88" height="44" opacity="0.2"></rect></g><g transform="translate(-159,-146) scale(1,1)"><rect fill="#ffffff" stroke="none" x="441" y="354" width="88" height="44"></rect></g><g transform="translate(-159,-146) scale(1,1)"><path fill="none" stroke="#000000" d="M 441 354 L 529 354 L 529 398 L 441 398 L 441 354 Z Z" stroke-miterlimit="10"></path></g><g transform="translate(-159,-146) scale(1,1)"><path fill="none" stroke="#000000" d="M 441 379 L 529 379" stroke-miterlimit="10"></path></g><g transform="translate(-159,-146) scale(1,1)"><path fill="none" stroke="#000000" d="M 441 389 L 529 389" stroke-miterlimit="10"></path></g><g transform="translate(-159,-146) scale(1,1)"><g><path fill="none" stroke="none"></path><text fill="#000000" stroke="none" font-family="Arial" font-size="13px" font-style="normal" font-weight="bold" text-decoration="none" x="473.5" y="373.5">Vue</text></g></g><g transform="translate(-159,-146) scale(1,1)"><rect fill="#C0C0C0" stroke="none" x="180" y="553" width="88" height="44" opacity="0.2"></rect></g><g transform="translate(-159,-146) scale(1,1)"><rect fill="#ffffff" stroke="none" x="173" y="546" width="88" height="44"></rect></g><g transform="translate(-159,-146) scale(1,1)"><path fill="none" stroke="#000000" d="M 173 546 L 261 546 L 261 590 L 173 590 L 173 546 Z Z" stroke-miterlimit="10"></path></g><g transform="translate(-159,-146) scale(1,1)"><path fill="none" stroke="#000000" d="M 173 571 L 261 571" stroke-miterlimit="10"></path></g><g transform="translate(-159,-146) scale(1,1)"><path fill="none" stroke="#000000" d="M 173 581 L 261 581" stroke-miterlimit="10"></path></g><g transform="translate(-159,-146) scale(1,1)"><g><path fill="none" stroke="none"></path><text fill="#000000" stroke="none" font-family="Arial" font-size="13px" font-style="normal" font-weight="bold" text-decoration="none" x="186.5" y="565.5">Integration</text></g></g><g transform="translate(-159,-146) scale(1,1)"><rect fill="#C0C0C0" stroke="none" x="320" y="165" width="88" height="44" opacity="0.2"></rect></g><g transform="translate(-159,-146) scale(1,1)"><rect fill="#ffffff" stroke="none" x="313" y="158" width="88" height="44"></rect></g><g transform="translate(-159,-146) scale(1,1)"><path fill="none" stroke="#000000" d="M 313 158 L 401 158 L 401 202 L 313 202 L 313 158 Z Z" stroke-miterlimit="10"></path></g><g transform="translate(-159,-146) scale(1,1)"><path fill="none" stroke="#000000" d="M 313 183 L 401 183" stroke-miterlimit="10"></path></g><g transform="translate(-159,-146) scale(1,1)"><path fill="none" stroke="#000000" d="M 313 193 L 401 193" stroke-miterlimit="10"></path></g><g transform="translate(-159,-146) scale(1,1)"><g><path fill="none" stroke="none"></path><text fill="#000000" stroke="none" font-family="Arial" font-size="13px" font-style="normal" font-weight="bold" text-decoration="none" x="324.5" y="177.5">Information</text></g></g><g transform="translate(-159,-146) scale(1,1)"><rect fill="#C0C0C0" stroke="none" x="443" y="163" width="88" height="44" opacity="0.2"></rect></g><g transform="translate(-159,-146) scale(1,1)"><rect fill="#ffffff" stroke="none" x="436" y="156" width="88" height="44"></rect></g><g transform="translate(-159,-146) scale(1,1)"><path fill="none" stroke="#000000" d="M 436 156 L 524 156 L 524 200 L 436 200 L 436 156 Z Z" stroke-miterlimit="10"></path></g><g transform="translate(-159,-146) scale(1,1)"><path fill="none" stroke="#000000" d="M 436 181 L 524 181" stroke-miterlimit="10"></path></g><g transform="translate(-159,-146) scale(1,1)"><path fill="none" stroke="#000000" d="M 436 191 L 524 191" stroke-miterlimit="10"></path></g><g transform="translate(-159,-146) scale(1,1)"><g><path fill="none" stroke="none"></path><text fill="#000000" stroke="none" font-family="Arial" font-size="13px" font-style="normal" font-weight="bold" text-decoration="none" x="449" y="175.5">Processus</text></g></g><g transform="translate(-159,-146) scale(1,1)"><rect fill="#C0C0C0" stroke="none" x="448" y="265" width="88" height="44" opacity="0.2"></rect></g><g transform="translate(-159,-146) scale(1,1)"><rect fill="#ffffff" stroke="none" x="441" y="258" width="88" height="44"></rect></g><g transform="translate(-159,-146) scale(1,1)"><path fill="none" stroke="#000000" d="M 441 258 L 529 258 L 529 302 L 441 302 L 441 258 Z Z" stroke-miterlimit="10"></path></g><g transform="translate(-159,-146) scale(1,1)"><path fill="none" stroke="#000000" d="M 441 283 L 529 283" stroke-miterlimit="10"></path></g><g transform="translate(-159,-146) scale(1,1)"><path fill="none" stroke="#000000" d="M 441 293 L 529 293" stroke-miterlimit="10"></path></g><g transform="translate(-159,-146) scale(1,1)"><g><path fill="none" stroke="none"></path><text fill="#000000" stroke="none" font-family="Arial" font-size="13px" font-style="normal" font-weight="bold" text-decoration="none" x="464.5" y="277.5">Aspect</text></g></g><g transform="translate(-159,-146) scale(1,1)"><path fill="none" stroke="#000000" d="M 456 257 L 386 203" stroke-miterlimit="10"></path></g><g transform="translate(-159,-146) scale(1,1)"><path fill="#FFFFFF" stroke="none" d="M 407.23562721521034 208.74875088837732 L 386 203 L 396.95087527010105 222.0808367431486"></path></g><g transform="translate(-159,-146) scale(1,1)"><path fill="none" stroke="#000000" d="M 407.23562721521034 208.74875088837732 L 386 203 L 396.95087527010105 222.0808367431486 L 407.23562721521034 208.74875088837732" stroke-miterlimit="10"></path></g><g transform="translate(-159,-146) scale(1,1)"><path fill="none" stroke="#000000" d="M 484 257 L 481 201" stroke-miterlimit="10"></path></g><g transform="translate(-159,-146) scale(1,1)"><path fill="#FFFFFF" stroke="none" d="M 490.4942794865631 220.84587254395802 L 481 201 L 473.6803183530325 221.74662046182573"></path></g><g transform="translate(-159,-146) scale(1,1)"><path fill="none" stroke="#000000" d="M 490.4942794865631 220.84587254395802 L 481 201 L 473.6803183530325 221.74662046182573 L 490.4942794865631 220.84587254395802" stroke-miterlimit="10"></path></g><g transform="translate(-159,-146) scale(1,1)"><rect fill="#C0C0C0" stroke="none" x="600" y="361" width="88" height="44" opacity="0.2"></rect></g><g transform="translate(-159,-146) scale(1,1)"><rect fill="#ffffff" stroke="none" x="593" y="354" width="88" height="44"></rect></g><g transform="translate(-159,-146) scale(1,1)"><path fill="none" stroke="#000000" d="M 593 354 L 681 354 L 681 398 L 593 398 L 593 354 Z Z" stroke-miterlimit="10"></path></g><g transform="translate(-159,-146) scale(1,1)"><path fill="none" stroke="#000000" d="M 593 379 L 681 379" stroke-miterlimit="10"></path></g><g transform="translate(-159,-146) scale(1,1)"><path fill="none" stroke="#000000" d="M 593 389 L 681 389" stroke-miterlimit="10"></path></g><g transform="translate(-159,-146) scale(1,1)"><g><path fill="none" stroke="none"></path><text fill="#000000" stroke="none" font-family="Arial" font-size="13px" font-style="normal" font-weight="bold" text-decoration="none" x="620" y="373.5">Entité</text></g></g><g transform="translate(-159,-146) scale(1,1)"><path fill="none" stroke="#000000" d="M 485 303 L 485 353" stroke-miterlimit="10"></path></g><g transform="translate(-159,-146) scale(1,1)"><path fill="#000000" stroke="none" d="M 480.790482243984 342.83732514237585 L 485 353 L 489.209517756016 342.83732514237585 L 485 331"></path></g><g transform="translate(-159,-146) scale(1,1)"><path fill="none" stroke="#000000" d="M 480.790482243984 342.83732514237585 L 485 353 L 489.209517756016 342.83732514237585 L 485 331 L 480.790482243984 342.83732514237585" stroke-miterlimit="10"></path></g><g transform="translate(-159,-146) scale(1,1)"><g><path fill="none" stroke="none"></path><text fill="#000000" stroke="none" font-family="Arial" font-size="13px" font-style="normal" font-weight="normal" text-decoration="none" x="492" y="318">3</text></g></g><g transform="translate(-159,-146) scale(1,1)"><g><path fill="none" stroke="none"></path><text fill="#000000" stroke="none" font-family="Arial" font-size="13px" font-style="normal" font-weight="normal" text-decoration="none" x="493" y="338">2</text></g></g><g transform="translate(-159,-146) scale(1,1)"><path fill="none" stroke="#000000" d="M 637 354 L 637 334 L 711 334 L 711 376 L 681 376" stroke-miterlimit="10"></path></g><g transform="translate(-159,-146) scale(1,1)"><g><path fill="none" stroke="none"></path><text fill="#000000" stroke="none" font-family="Arial" font-size="13px" font-style="normal" font-weight="normal" text-decoration="none" x="688" y="390">+relation</text></g></g><g transform="translate(-159,-146) scale(1,1)"><rect fill="#C0C0C0" stroke="none" x="416" y="553" width="132" height="44" opacity="0.2"></rect></g><g transform="translate(-159,-146) scale(1,1)"><rect fill="#ffffff" stroke="none" x="409" y="546" width="132" height="44"></rect></g><g transform="translate(-159,-146) scale(1,1)"><path fill="none" stroke="#000000" d="M 409 546 L 541 546 L 541 590 L 409 590 L 409 546 Z Z" stroke-miterlimit="10"></path></g><g transform="translate(-159,-146) scale(1,1)"><path fill="none" stroke="#000000" d="M 409 571 L 541 571" stroke-miterlimit="10"></path></g><g transform="translate(-159,-146) scale(1,1)"><path fill="none" stroke="#000000" d="M 409 581 L 541 581" stroke-miterlimit="10"></path></g><g transform="translate(-159,-146) scale(1,1)"><g><path fill="none" stroke="none"></path><text fill="#000000" stroke="none" font-family="Arial" font-size="13px" font-style="normal" font-weight="bold" text-decoration="none" x="422" y="565.5">Lien de cohérence</text></g></g><g transform="translate(-159,-146) scale(1,1)"><path fill="none" stroke="#000000" d="M 408 568 L 262 568" stroke-miterlimit="10"></path></g><g transform="translate(-159,-146) scale(1,1)"><path fill="#000000" stroke="none" d="M 272.16267485762415 563.790482243984 L 262 568 L 272.16267485762415 572.209517756016 L 284 568"></path></g><g transform="translate(-159,-146) scale(1,1)"><path fill="none" stroke="#000000" d="M 272.16267485762415 563.790482243984 L 262 568 L 272.16267485762415 572.209517756016 L 284 568 L 272.16267485762415 563.790482243984" stroke-miterlimit="10"></path></g><g transform="translate(-159,-146) scale(1,1)"><g><path fill="none" stroke="none"></path><text fill="#000000" stroke="none" font-family="Arial" font-size="13px" font-style="normal" font-weight="normal" text-decoration="none" x="384" y="562">*</text></g></g><g transform="translate(-159,-146) scale(1,1)"><g><path fill="none" stroke="none"></path><text fill="#000000" stroke="none" font-family="Arial" font-size="13px" font-style="normal" font-weight="normal" text-decoration="none" x="280" y="562">1</text></g></g><g transform="translate(-159,-146) scale(1,1)"><path fill="none" stroke="#000000" d="M 618 399 L 494 545" stroke-miterlimit="10"></path></g><g transform="translate(-159,-146) scale(1,1)"><path fill="#ffffff" stroke="none" d="M 628 420 L 757 420 L 767 430 L 767 521 L 628 521 L 628 420"></path></g><g transform="translate(-159,-146) scale(1,1)"><path fill="none" stroke="#000000" d="M 628 420 L 757 420 L 767 430 L 767 521 L 628 521 L 628 420 L 628 420" stroke-miterlimit="10"></path></g><g transform="translate(-159,-146) scale(1,1)"><path fill="none" stroke="#000000" d="M 757 420 L 757 430 L 767 430 L 757 420" stroke-miterlimit="10"></path></g><g transform="translate(-159,-146) scale(1,1)"><g><path fill="none" stroke="none"></path><text fill="#000000" stroke="none" font-family="Arial" font-size="13px" font-style="normal" font-weight="normal" text-decoration="none" x="633" y="438">Un lien de cohérence</text><text fill="#000000" stroke="none" font-family="Arial" font-size="13px" font-style="normal" font-weight="normal" text-decoration="none" x="633" y="451">est uniquement</text><text fill="#000000" stroke="none" font-family="Arial" font-size="13px" font-style="normal" font-weight="normal" text-decoration="none" x="633" y="464">appliqué aux vues</text><text fill="#000000" stroke="none" font-family="Arial" font-size="13px" font-style="normal" font-weight="normal" text-decoration="none" x="633" y="477">métier, fonctionnelle,</text><text fill="#000000" stroke="none" font-family="Arial" font-size="13px" font-style="normal" font-weight="normal" text-decoration="none" x="633" y="490">applicative et</text><text fill="#000000" stroke="none" font-family="Arial" font-size="13px" font-style="normal" font-weight="normal" text-decoration="none" x="633" y="503">technique. </text></g></g><g transform="translate(-159,-146) scale(1,1)"><path fill="none" stroke="#000000" d="M 556 472 L 627 472" stroke-miterlimit="10" stroke-dasharray="3"></path></g><g transform="translate(-159,-146) scale(1,1)"><rect fill="#C0C0C0" stroke="none" x="356" y="629" width="92" height="44" opacity="0.2"></rect></g><g transform="translate(-159,-146) scale(1,1)"><rect fill="#ffffff" stroke="none" x="349" y="622" width="92" height="44"></rect></g><g transform="translate(-159,-146) scale(1,1)"><path fill="none" stroke="#000000" d="M 349 622 L 441 622 L 441 666 L 349 666 L 349 622 Z Z" stroke-miterlimit="10"></path></g><g transform="translate(-159,-146) scale(1,1)"><path fill="none" stroke="#000000" d="M 349 647 L 441 647" stroke-miterlimit="10"></path></g><g transform="translate(-159,-146) scale(1,1)"><path fill="none" stroke="#000000" d="M 349 657 L 441 657" stroke-miterlimit="10"></path></g><g transform="translate(-159,-146) scale(1,1)"><g><path fill="none" stroke="none"></path><text fill="#000000" stroke="none" font-family="Arial" font-size="13px" font-style="normal" font-weight="bold" text-decoration="none" x="370.5" y="641.5">IntraVue</text></g></g><g transform="translate(-159,-146) scale(1,1)"><rect fill="#C0C0C0" stroke="none" x="511" y="627" width="92" height="44" opacity="0.2"></rect></g><g transform="translate(-159,-146) scale(1,1)"><rect fill="#ffffff" stroke="none" x="504" y="620" width="92" height="44"></rect></g><g transform="translate(-159,-146) scale(1,1)"><path fill="none" stroke="#000000" d="M 504 620 L 596 620 L 596 664 L 504 664 L 504 620 Z Z" stroke-miterlimit="10"></path></g><g transform="translate(-159,-146) scale(1,1)"><path fill="none" stroke="#000000" d="M 504 645 L 596 645" stroke-miterlimit="10"></path></g><g transform="translate(-159,-146) scale(1,1)"><path fill="none" stroke="#000000" d="M 504 655 L 596 655" stroke-miterlimit="10"></path></g><g transform="translate(-159,-146) scale(1,1)"><g><path fill="none" stroke="none"></path><text fill="#000000" stroke="none" font-family="Arial" font-size="13px" font-style="normal" font-weight="bold" text-decoration="none" x="522" y="639.5">InterVues</text></g></g><g transform="translate(-159,-146) scale(1,1)"><path fill="none" stroke="#000000" d="M 419 621 L 451 591" stroke-miterlimit="10"></path></g><g transform="translate(-159,-146) scale(1,1)"><path fill="#FFFFFF" stroke="none" d="M 441.93002584775945 611.0433422581586 L 451 591 L 430.41377654337714 598.7593430001508"></path></g><g transform="translate(-159,-146) scale(1,1)"><path fill="none" stroke="#000000" d="M 441.93002584775945 611.0433422581586 L 451 591 L 430.41377654337714 598.7593430001508 L 441.93002584775945 611.0433422581586" stroke-miterlimit="10"></path></g><g transform="translate(-159,-146) scale(1,1)"><path fill="none" stroke="#000000" d="M 527 619 L 498 591" stroke-miterlimit="10"></path></g><g transform="translate(-159,-146) scale(1,1)"><path fill="#FFFFFF" stroke="none" d="M 518.4699021500085 599.0612099568909 L 498 591 L 506.77427039541004 611.1745428455822"></path></g><g transform="translate(-159,-146) scale(1,1)"><path fill="none" stroke="#000000" d="M 518.4699021500085 599.0612099568909 L 498 591 L 506.77427039541004 611.1745428455822 L 518.4699021500085 599.0612099568909" stroke-miterlimit="10"></path></g><g transform="translate(-159,-146) scale(1,1)"><rect fill="#C0C0C0" stroke="none" x="592" y="553" width="173" height="44" opacity="0.2"></rect></g><g transform="translate(-159,-146) scale(1,1)"><rect fill="#ffffff" stroke="none" x="585" y="546" width="173" height="44"></rect></g><g transform="translate(-159,-146) scale(1,1)"><path fill="none" stroke="#000000" d="M 585 546 L 758 546 L 758 590 L 585 590 L 585 546 Z Z" stroke-miterlimit="10"></path></g><g transform="translate(-159,-146) scale(1,1)"><path fill="none" stroke="#000000" d="M 585 571 L 758 571" stroke-miterlimit="10"></path></g><g transform="translate(-159,-146) scale(1,1)"><path fill="none" stroke="#000000" d="M 585 581 L 758 581" stroke-miterlimit="10"></path></g><g transform="translate(-159,-146) scale(1,1)"><g><path fill="none" stroke="none"></path><text fill="#000000" stroke="none" font-family="Arial" font-size="13px" font-style="normal" font-weight="bold" text-decoration="none" x="596" y="565.5">Transformation de modèle</text></g></g><g transform="translate(-159,-146) scale(1,1)"><path fill="none" stroke="#000000" d="M 542 568 L 584 568" stroke-miterlimit="10"></path></g><g transform="translate(-159,-146) scale(1,1)"><rect fill="#C0C0C0" stroke="none" x="563" y="163" width="88" height="44" opacity="0.2"></rect></g><g transform="translate(-159,-146) scale(1,1)"><rect fill="#ffffff" stroke="none" x="556" y="156" width="88" height="44"></rect></g><g transform="translate(-159,-146) scale(1,1)"><path fill="none" stroke="#000000" d="M 556 156 L 644 156 L 644 200 L 556 200 L 556 156 Z Z" stroke-miterlimit="10"></path></g><g transform="translate(-159,-146) scale(1,1)"><path fill="none" stroke="#000000" d="M 556 181 L 644 181" stroke-miterlimit="10"></path></g><g transform="translate(-159,-146) scale(1,1)"><path fill="none" stroke="#000000" d="M 556 191 L 644 191" stroke-miterlimit="10"></path></g><g transform="translate(-159,-146) scale(1,1)"><g><path fill="none" stroke="none"></path><text fill="#000000" stroke="none" font-family="Arial" font-size="13px" font-style="normal" font-weight="bold" text-decoration="none" x="577.5" y="175.5">Objectif</text></g></g><g transform="translate(-159,-146) scale(1,1)"><path fill="none" stroke="#000000" d="M 511 257 L 574 201" stroke-miterlimit="10"></path></g><g transform="translate(-159,-146) scale(1,1)"><path fill="#FFFFFF" stroke="none" d="M 564.4019469693382 220.79589295840435 L 574 201 L 553.2153414653002 208.21096176636163"></path></g><g transform="translate(-159,-146) scale(1,1)"><path fill="none" stroke="#000000" d="M 564.4019469693382 220.79589295840435 L 574 201 L 553.2153414653002 208.21096176636163 L 564.4019469693382 220.79589295840435" stroke-miterlimit="10"></path></g><g transform="translate(-159,-146) scale(1,1)"><path fill="none" stroke="#000000" d="M 262 279 L 440 357" stroke-miterlimit="10"></path></g><g transform="translate(-159,-146) scale(1,1)"><path fill="#FFFFFF" stroke="none" d="M 418.00453311792126 356.5534167049955 L 440 357 L 424.76263828858026 341.1310741360557"></path></g><g transform="translate(-159,-146) scale(1,1)"><path fill="none" stroke="#000000" d="M 418.00453311792126 356.5534167049955 L 440 357 L 424.76263828858026 341.1310741360557 L 418.00453311792126 356.5534167049955" stroke-miterlimit="10"></path></g><g transform="translate(-159,-146) scale(1,1)"><path fill="none" stroke="#000000" d="M 268 343 L 440 369" stroke-miterlimit="10"></path></g><g transform="translate(-159,-146) scale(1,1)"><path fill="#FFFFFF" stroke="none" d="M 418.6446145925806 374.2865408445011 L 440 369 L 421.16131328339515 357.6376110437278"></path></g><g transform="translate(-159,-146) scale(1,1)"><path fill="none" stroke="#000000" d="M 418.6446145925806 374.2865408445011 L 440 369 L 421.16131328339515 357.6376110437278 L 418.6446145925806 374.2865408445011" stroke-miterlimit="10"></path></g><g transform="translate(-159,-146) scale(1,1)"><path fill="none" stroke="#000000" d="M 258 409 L 440 383" stroke-miterlimit="10"></path></g><g transform="translate(-159,-146) scale(1,1)"><path fill="#FFFFFF" stroke="none" d="M 421.06956176122543 394.20885846497947 L 440 383 L 418.68829892058216 377.5400185804766"></path></g><g transform="translate(-159,-146) scale(1,1)"><path fill="none" stroke="#000000" d="M 421.06956176122543 394.20885846497947 L 440 383 L 418.68829892058216 377.5400185804766 L 421.06956176122543 394.20885846497947" stroke-miterlimit="10"></path></g><g transform="translate(-159,-146) scale(1,1)"><path fill="none" stroke="#000000" d="M 262 473 L 440 395" stroke-miterlimit="10"></path></g><g transform="translate(-159,-146) scale(1,1)"><path fill="#FFFFFF" stroke="none" d="M 424.76263828858026 410.8689258639443 L 440 395 L 418.00453311792126 395.4465832950045"></path></g><g transform="translate(-159,-146) scale(1,1)"><path fill="none" stroke="#000000" d="M 424.76263828858026 410.8689258639443 L 440 395 L 418.00453311792126 395.4465832950045 L 424.76263828858026 410.8689258639443" stroke-miterlimit="10"></path></g><g transform="translate(-159,-146) scale(1,1)"><path fill="none" stroke="#000000" d="M 251 545 L 456 404 L 461 399" stroke-miterlimit="10"></path></g><g transform="translate(-159,-146) scale(1,1)"><path fill="#FFFFFF" stroke="none" d="M 452.580964487968 419.3253497152483 L 461 399 L 440.6746502847517 407.419035512032"></path></g><g transform="translate(-159,-146) scale(1,1)"><path fill="none" stroke="#000000" d="M 452.580964487968 419.3253497152483 L 461 399 L 440.6746502847517 407.419035512032 L 452.580964487968 419.3253497152483" stroke-miterlimit="10"></path></g></g></svg>