<svg version="1.1" xmlns="http://www.w3.org/2000/svg" xmlns:xlink="http://www.w3.org/1999/xlink" width="556" height="303"><defs></defs><g><g transform="translate(-194,-260) scale(1,1)"><rect fill="#C0C0C0" stroke="none" x="211" y="277" width="108" height="57" opacity="0.2"></rect></g><g transform="translate(-194,-260) scale(1,1)"><rect fill="#ffffff" stroke="none" x="204" y="270" width="108" height="57"></rect></g><g transform="translate(-194,-260) scale(1,1)"><path fill="none" stroke="#000000" d="M 204 270 L 312 270 L 312 327 L 204 327 L 204 270 Z Z" stroke-miterlimit="10"></path></g><g transform="translate(-194,-260) scale(1,1)"><path fill="none" stroke="#000000" d="M 204 308 L 312 308" stroke-miterlimit="10"></path></g><g transform="translate(-194,-260) scale(1,1)"><path fill="none" stroke="#000000" d="M 204 318 L 312 318" stroke-miterlimit="10"></path></g><g transform="translate(-194,-260) scale(1,1)"><g><path fill="none" stroke="none"></path><text fill="#000000" stroke="none" font-family="Arial" font-size="13px" font-style="normal" font-weight="normal" text-decoration="none" x="224" y="287.5">«Applicatif»</text></g></g><g transform="translate(-194,-260) scale(1,1)"><g><path fill="none" stroke="none"></path><text fill="#000000" stroke="none" font-family="Arial" font-size="13px" font-style="normal" font-weight="bold" text-decoration="none" x="237.5" y="302.5">Format</text></g></g><g transform="translate(-194,-260) scale(1,1)"><rect fill="#C0C0C0" stroke="none" x="211" y="389" width="110" height="57" opacity="0.2"></rect></g><g transform="translate(-194,-260) scale(1,1)"><rect fill="#ffffff" stroke="none" x="204" y="382" width="110" height="57"></rect></g><g transform="translate(-194,-260) scale(1,1)"><path fill="none" stroke="#000000" d="M 204 382 L 314 382 L 314 439 L 204 439 L 204 382 Z Z" stroke-miterlimit="10"></path></g><g transform="translate(-194,-260) scale(1,1)"><path fill="none" stroke="#000000" d="M 204 420 L 314 420" stroke-miterlimit="10"></path></g><g transform="translate(-194,-260) scale(1,1)"><path fill="none" stroke="#000000" d="M 204 430 L 314 430" stroke-miterlimit="10"></path></g><g transform="translate(-194,-260) scale(1,1)"><g><path fill="none" stroke="none"></path><text fill="#000000" stroke="none" font-family="Arial" font-size="13px" font-style="normal" font-weight="normal" text-decoration="none" x="218.5" y="399.5">«Functionnel»</text></g></g><g transform="translate(-194,-260) scale(1,1)"><g><path fill="none" stroke="none"></path><text fill="#000000" stroke="none" font-family="Arial" font-size="13px" font-style="normal" font-weight="bold" text-decoration="none" x="244.5" y="414.5">Type</text></g></g><g transform="translate(-194,-260) scale(1,1)"><rect fill="#C0C0C0" stroke="none" x="399" y="277" width="132" height="57" opacity="0.2"></rect></g><g transform="translate(-194,-260) scale(1,1)"><rect fill="#ffffff" stroke="none" x="392" y="270" width="132" height="57"></rect></g><g transform="translate(-194,-260) scale(1,1)"><path fill="none" stroke="#000000" d="M 392 270 L 524 270 L 524 327 L 392 327 L 392 270 Z Z" stroke-miterlimit="10"></path></g><g transform="translate(-194,-260) scale(1,1)"><path fill="none" stroke="#000000" d="M 392 308 L 524 308" stroke-miterlimit="10"></path></g><g transform="translate(-194,-260) scale(1,1)"><path fill="none" stroke="#000000" d="M 392 318 L 524 318" stroke-miterlimit="10"></path></g><g transform="translate(-194,-260) scale(1,1)"><g><path fill="none" stroke="none"></path><text fill="#000000" stroke="none" font-family="Arial" font-size="13px" font-style="normal" font-weight="normal" text-decoration="none" x="433" y="287.5">«Métier»</text></g></g><g transform="translate(-194,-260) scale(1,1)"><g><path fill="none" stroke="none"></path><text fill="#000000" stroke="none" font-family="Arial" font-size="13px" font-style="normal" font-weight="bold" text-decoration="none" x="440" y="302.5">Tâche</text></g></g><g transform="translate(-194,-260) scale(1,1)"><rect fill="#C0C0C0" stroke="none" x="399" y="389" width="132" height="57" opacity="0.2"></rect></g><g transform="translate(-194,-260) scale(1,1)"><rect fill="#ffffff" stroke="none" x="392" y="382" width="132" height="57"></rect></g><g transform="translate(-194,-260) scale(1,1)"><path fill="none" stroke="#000000" d="M 392 382 L 524 382 L 524 439 L 392 439 L 392 382 Z Z" stroke-miterlimit="10"></path></g><g transform="translate(-194,-260) scale(1,1)"><path fill="none" stroke="#000000" d="M 392 420 L 524 420" stroke-miterlimit="10"></path></g><g transform="translate(-194,-260) scale(1,1)"><path fill="none" stroke="#000000" d="M 392 430 L 524 430" stroke-miterlimit="10"></path></g><g transform="translate(-194,-260) scale(1,1)"><g><path fill="none" stroke="none"></path><text fill="#000000" stroke="none" font-family="Arial" font-size="13px" font-style="normal" font-weight="normal" text-decoration="none" x="417.5" y="399.5">«Fonctionnel»</text></g></g><g transform="translate(-194,-260) scale(1,1)"><g><path fill="none" stroke="none"></path><text fill="#000000" stroke="none" font-family="Arial" font-size="13px" font-style="normal" font-weight="bold" text-decoration="none" x="433" y="414.5">Fonction</text></g></g><g transform="translate(-194,-260) scale(1,1)"><rect fill="#C0C0C0" stroke="none" x="399" y="503" width="131" height="57" opacity="0.2"></rect></g><g transform="translate(-194,-260) scale(1,1)"><rect fill="#ffffff" stroke="none" x="392" y="496" width="131" height="57"></rect></g><g transform="translate(-194,-260) scale(1,1)"><path fill="none" stroke="#000000" d="M 392 496 L 523 496 L 523 553 L 392 553 L 392 496 Z Z" stroke-miterlimit="10"></path></g><g transform="translate(-194,-260) scale(1,1)"><path fill="none" stroke="#000000" d="M 392 534 L 523 534" stroke-miterlimit="10"></path></g><g transform="translate(-194,-260) scale(1,1)"><path fill="none" stroke="#000000" d="M 392 544 L 523 544" stroke-miterlimit="10"></path></g><g transform="translate(-194,-260) scale(1,1)"><g><path fill="none" stroke="none"></path><text fill="#000000" stroke="none" font-family="Arial" font-size="13px" font-style="normal" font-weight="normal" text-decoration="none" x="423.5" y="513.5">«Applicatif»</text></g></g><g transform="translate(-194,-260) scale(1,1)"><g><path fill="none" stroke="none"></path><text fill="#000000" stroke="none" font-family="Arial" font-size="13px" font-style="normal" font-weight="bold" text-decoration="none" x="436.5" y="528.5">Module</text></g></g><g transform="translate(-194,-260) scale(1,1)"><rect fill="#C0C0C0" stroke="none" x="611" y="277" width="136" height="58" opacity="0.2"></rect></g><g transform="translate(-194,-260) scale(1,1)"><rect fill="#ffffff" stroke="none" x="604" y="270" width="136" height="58"></rect></g><g transform="translate(-194,-260) scale(1,1)"><path fill="none" stroke="#000000" d="M 604 270 L 740 270 L 740 328 L 604 328 L 604 270 Z Z" stroke-miterlimit="10"></path></g><g transform="translate(-194,-260) scale(1,1)"><path fill="none" stroke="#000000" d="M 604 308 L 740 308" stroke-miterlimit="10"></path></g><g transform="translate(-194,-260) scale(1,1)"><path fill="none" stroke="#000000" d="M 604 318 L 740 318" stroke-miterlimit="10"></path></g><g transform="translate(-194,-260) scale(1,1)"><g><path fill="none" stroke="none"></path><text fill="#000000" stroke="none" font-family="Arial" font-size="13px" font-style="normal" font-weight="normal" text-decoration="none" x="647" y="287.5">«Métier»</text></g></g><g transform="translate(-194,-260) scale(1,1)"><g><path fill="none" stroke="none"></path><text fill="#000000" stroke="none" font-family="Arial" font-size="13px" font-style="normal" font-weight="bold" text-decoration="none" x="629.5" y="302.5">Objectif métier</text></g></g><g transform="translate(-194,-260) scale(1,1)"><rect fill="#C0C0C0" stroke="none" x="612" y="391" width="135" height="57" opacity="0.2"></rect></g><g transform="translate(-194,-260) scale(1,1)"><rect fill="#ffffff" stroke="none" x="605" y="384" width="135" height="57"></rect></g><g transform="translate(-194,-260) scale(1,1)"><path fill="none" stroke="#000000" d="M 605 384 L 740 384 L 740 441 L 605 441 L 605 384 Z Z" stroke-miterlimit="10"></path></g><g transform="translate(-194,-260) scale(1,1)"><path fill="none" stroke="#000000" d="M 605 422 L 740 422" stroke-miterlimit="10"></path></g><g transform="translate(-194,-260) scale(1,1)"><path fill="none" stroke="#000000" d="M 605 432 L 740 432" stroke-miterlimit="10"></path></g><g transform="translate(-194,-260) scale(1,1)"><g><path fill="none" stroke="none"></path><text fill="#000000" stroke="none" font-family="Arial" font-size="13px" font-style="normal" font-weight="normal" text-decoration="none" x="632" y="401.5">«Fonctionnel»</text></g></g><g transform="translate(-194,-260) scale(1,1)"><g><path fill="none" stroke="none"></path><text fill="#000000" stroke="none" font-family="Arial" font-size="13px" font-style="normal" font-weight="bold" text-decoration="none" x="616.5" y="416.5">Objectif fonctionnel</text></g></g><g transform="translate(-194,-260) scale(1,1)"><rect fill="#C0C0C0" stroke="none" x="611" y="503" width="132" height="57" opacity="0.2"></rect></g><g transform="translate(-194,-260) scale(1,1)"><rect fill="#ffffff" stroke="none" x="604" y="496" width="132" height="57"></rect></g><g transform="translate(-194,-260) scale(1,1)"><path fill="none" stroke="#000000" d="M 604 496 L 736 496 L 736 553 L 604 553 L 604 496 Z Z" stroke-miterlimit="10"></path></g><g transform="translate(-194,-260) scale(1,1)"><path fill="none" stroke="#000000" d="M 604 534 L 736 534" stroke-miterlimit="10"></path></g><g transform="translate(-194,-260) scale(1,1)"><path fill="none" stroke="#000000" d="M 604 544 L 736 544" stroke-miterlimit="10"></path></g><g transform="translate(-194,-260) scale(1,1)"><g><path fill="none" stroke="none"></path><text fill="#000000" stroke="none" font-family="Arial" font-size="13px" font-style="normal" font-weight="normal" text-decoration="none" x="636" y="513.5">«Applicatif»</text></g></g><g transform="translate(-194,-260) scale(1,1)"><g><path fill="none" stroke="none"></path><text fill="#000000" stroke="none" font-family="Arial" font-size="13px" font-style="normal" font-weight="bold" text-decoration="none" x="619.5" y="528.5">Objectif applicatif</text></g></g><g transform="translate(-194,-260) scale(1,1)"><path fill="none" stroke="#000000" d="M 252 327 L 252 382" stroke-miterlimit="10"></path></g><g transform="translate(-194,-260) scale(1,1)"><g><path fill="none" stroke="none"></path><text fill="#000000" stroke="none" font-family="Arial" font-size="13px" font-style="normal" font-weight="normal" text-decoration="none" x="253" y="375">+raffine</text></g></g><g transform="translate(-194,-260) scale(1,1)"><path fill="none" stroke="#000000" d="M 392 292 L 312 292" stroke-miterlimit="10"></path></g><g transform="translate(-194,-260) scale(1,1)"><g><path fill="none" stroke="none"></path><text fill="#000000" stroke="none" font-family="Arial" font-size="13px" font-style="normal" font-weight="normal" text-decoration="none" x="343" y="305">+utilise</text></g></g><g transform="translate(-194,-260) scale(1,1)"><path fill="none" stroke="#000000" d="M 392 404 L 314 404" stroke-miterlimit="10"></path></g><g transform="translate(-194,-260) scale(1,1)"><g><path fill="none" stroke="none"></path><text fill="#000000" stroke="none" font-family="Arial" font-size="13px" font-style="normal" font-weight="normal" text-decoration="none" x="343" y="415">+utilise</text></g></g><g transform="translate(-194,-260) scale(1,1)"><path fill="none" stroke="#000000" d="M 604 292 L 524 292" stroke-miterlimit="10"></path></g><g transform="translate(-194,-260) scale(1,1)"><g><path fill="none" stroke="none"></path><text fill="#000000" stroke="none" font-family="Arial" font-size="13px" font-style="normal" font-weight="normal" text-decoration="none" x="536" y="304">+rempli par</text></g></g><g transform="translate(-194,-260) scale(1,1)"><path fill="none" stroke="#000000" d="M 605 403 L 524 403" stroke-miterlimit="10"></path></g><g transform="translate(-194,-260) scale(1,1)"><g><path fill="none" stroke="none"></path><text fill="#000000" stroke="none" font-family="Arial" font-size="13px" font-style="normal" font-weight="normal" text-decoration="none" x="536" y="415">+rempli par</text></g></g><g transform="translate(-194,-260) scale(1,1)"><path fill="none" stroke="#000000" d="M 604 516 L 523 516" stroke-miterlimit="10"></path></g><g transform="translate(-194,-260) scale(1,1)"><g><path fill="none" stroke="none"></path><text fill="#000000" stroke="none" font-family="Arial" font-size="13px" font-style="normal" font-weight="normal" text-decoration="none" x="536" y="529">+rempli par</text></g></g><g transform="translate(-194,-260) scale(1,1)"><path fill="none" stroke="#000000" d="M 672 328 L 672 384" stroke-miterlimit="10"></path></g><g transform="translate(-194,-260) scale(1,1)"><g><path fill="none" stroke="none"></path><text fill="#000000" stroke="none" font-family="Arial" font-size="13px" font-style="normal" font-weight="normal" text-decoration="none" x="671" y="377">+raffine</text></g></g><g transform="translate(-194,-260) scale(1,1)"><path fill="none" stroke="#000000" d="M 672 441 L 672 496" stroke-miterlimit="10"></path></g><g transform="translate(-194,-260) scale(1,1)"><g><path fill="none" stroke="none"></path><text fill="#000000" stroke="none" font-family="Arial" font-size="13px" font-style="normal" font-weight="normal" text-decoration="none" x="673" y="492">+raffine</text></g></g><g transform="translate(-194,-260) scale(1,1)"><path fill="none" stroke="#000000" d="M 460 327 L 460 382" stroke-miterlimit="10"></path></g><g transform="translate(-194,-260) scale(1,1)"><g><path fill="none" stroke="none"></path><text fill="#000000" stroke="none" font-family="Arial" font-size="13px" font-style="normal" font-weight="normal" text-decoration="none" x="459" y="375">+raffine</text></g></g><g transform="translate(-194,-260) scale(1,1)"><path fill="none" stroke="#000000" d="M 456 439 L 456 496" stroke-miterlimit="10"></path></g><g transform="translate(-194,-260) scale(1,1)"><g><path fill="none" stroke="none"></path><text fill="#000000" stroke="none" font-family="Arial" font-size="13px" font-style="normal" font-weight="normal" text-decoration="none" x="457" y="493">+raffine</text></g></g><g transform="translate(-194,-260) scale(1,1)"><rect fill="#C0C0C0" stroke="none" x="215" y="503" width="108" height="57" opacity="0.2"></rect></g><g transform="translate(-194,-260) scale(1,1)"><rect fill="#ffffff" stroke="none" x="208" y="496" width="108" height="57"></rect></g><g transform="translate(-194,-260) scale(1,1)"><path fill="none" stroke="#000000" d="M 208 496 L 316 496 L 316 553 L 208 553 L 208 496 Z Z" stroke-miterlimit="10"></path></g><g transform="translate(-194,-260) scale(1,1)"><path fill="none" stroke="#000000" d="M 208 534 L 316 534" stroke-miterlimit="10"></path></g><g transform="translate(-194,-260) scale(1,1)"><path fill="none" stroke="#000000" d="M 208 544 L 316 544" stroke-miterlimit="10"></path></g><g transform="translate(-194,-260) scale(1,1)"><g><path fill="none" stroke="none"></path><text fill="#000000" stroke="none" font-family="Arial" font-size="13px" font-style="normal" font-weight="normal" text-decoration="none" x="228" y="513.5">«Applicatif»</text></g></g><g transform="translate(-194,-260) scale(1,1)"><g><path fill="none" stroke="none"></path><text fill="#000000" stroke="none" font-family="Arial" font-size="13px" font-style="normal" font-weight="bold" text-decoration="none" x="241.5" y="528.5">Format</text></g></g><g transform="translate(-194,-260) scale(1,1)"><path fill="none" stroke="#000000" d="M 256 439 L 256 496" stroke-miterlimit="10"></path></g><g transform="translate(-194,-260) scale(1,1)"><g><path fill="none" stroke="none"></path><text fill="#000000" stroke="none" font-family="Arial" font-size="13px" font-style="normal" font-weight="normal" text-decoration="none" x="255" y="493">+raffine</text></g></g><g transform="translate(-194,-260) scale(1,1)"><path fill="none" stroke="#000000" d="M 392 512 L 316 512" stroke-miterlimit="10"></path></g><g transform="translate(-194,-260) scale(1,1)"><g><path fill="none" stroke="none"></path><text fill="#000000" stroke="none" font-family="Arial" font-size="13px" font-style="normal" font-weight="normal" text-decoration="none" x="343" y="524">+utilise</text></g></g></g></svg>