<svg version="1.1" xmlns="http://www.w3.org/2000/svg" xmlns:xlink="http://www.w3.org/1999/xlink" width="838" height="490"><defs></defs><g><g transform="translate(-150,-10) scale(1,1)"><rect fill="#C0C0C0" stroke="none" x="535" y="143" width="169" height="57" opacity="0.2"></rect></g><g transform="translate(-150,-10) scale(1,1)"><rect fill="#ffffff" stroke="none" x="528" y="136" width="169" height="57"></rect></g><g transform="translate(-150,-10) scale(1,1)"><path fill="none" stroke="#000000" d="M 528 136 L 697 136 L 697 193 L 528 193 L 528 136 Z Z" stroke-miterlimit="10"></path></g><g transform="translate(-150,-10) scale(1,1)"><path fill="none" stroke="#000000" d="M 528 174 L 697 174" stroke-miterlimit="10"></path></g><g transform="translate(-150,-10) scale(1,1)"><path fill="none" stroke="#000000" d="M 528 184 L 697 184" stroke-miterlimit="10"></path></g><g transform="translate(-150,-10) scale(1,1)"><g><path fill="none" stroke="none"></path><text fill="#000000" stroke="none" font-family="Arial" font-size="13px" font-style="normal" font-weight="normal" text-decoration="none" x="562.5" y="153.5">«functional view»</text></g></g><g transform="translate(-150,-10) scale(1,1)"><g><path fill="none" stroke="none"></path><text fill="#000000" stroke="none" font-family="Arial" font-size="13px" font-style="normal" font-weight="bold" text-decoration="none" x="536.5" y="168.5">Affecter véhicule à tounée</text></g></g><g transform="translate(-150,-10) scale(1,1)"><rect fill="#C0C0C0" stroke="none" x="491" y="323" width="215" height="57" opacity="0.2"></rect></g><g transform="translate(-150,-10) scale(1,1)"><rect fill="#ffffff" stroke="none" x="484" y="316" width="215" height="57"></rect></g><g transform="translate(-150,-10) scale(1,1)"><path fill="none" stroke="#000000" d="M 484 316 L 699 316 L 699 373 L 484 373 L 484 316 Z Z" stroke-miterlimit="10"></path></g><g transform="translate(-150,-10) scale(1,1)"><path fill="none" stroke="#000000" d="M 484 354 L 699 354" stroke-miterlimit="10"></path></g><g transform="translate(-150,-10) scale(1,1)"><path fill="none" stroke="#000000" d="M 484 364 L 699 364" stroke-miterlimit="10"></path></g><g transform="translate(-150,-10) scale(1,1)"><g><path fill="none" stroke="none"></path><text fill="#000000" stroke="none" font-family="Arial" font-size="13px" font-style="normal" font-weight="normal" text-decoration="none" x="563.5" y="333.5">«module»</text></g></g><g transform="translate(-150,-10) scale(1,1)"><g><path fill="none" stroke="none"></path><text fill="#000000" stroke="none" font-family="Arial" font-size="13px" font-style="normal" font-weight="bold" text-decoration="none" x="496" y="348.5">Optimisation affectation MiniZinc</text></g></g><g transform="translate(-150,-10) scale(1,1)"><rect fill="#C0C0C0" stroke="none" x="247" y="323" width="199" height="57" opacity="0.2"></rect></g><g transform="translate(-150,-10) scale(1,1)"><rect fill="#ffffff" stroke="none" x="240" y="316" width="199" height="57"></rect></g><g transform="translate(-150,-10) scale(1,1)"><path fill="none" stroke="#000000" d="M 240 316 L 439 316 L 439 373 L 240 373 L 240 316 Z Z" stroke-miterlimit="10"></path></g><g transform="translate(-150,-10) scale(1,1)"><path fill="none" stroke="#000000" d="M 240 354 L 439 354" stroke-miterlimit="10"></path></g><g transform="translate(-150,-10) scale(1,1)"><path fill="none" stroke="#000000" d="M 240 364 L 439 364" stroke-miterlimit="10"></path></g><g transform="translate(-150,-10) scale(1,1)"><g><path fill="none" stroke="none"></path><text fill="#000000" stroke="none" font-family="Arial" font-size="13px" font-style="normal" font-weight="normal" text-decoration="none" x="314" y="333.5">«format»</text></g></g><g transform="translate(-150,-10) scale(1,1)"><g><path fill="none" stroke="none"></path><text fill="#000000" stroke="none" font-family="Arial" font-size="13px" font-style="normal" font-weight="bold" text-decoration="none" x="250" y="348.5">Données véhicules et tournées</text></g></g><g transform="translate(-150,-10) scale(1,1)"><rect fill="#C0C0C0" stroke="none" x="759" y="323" width="158" height="57" opacity="0.2"></rect></g><g transform="translate(-150,-10) scale(1,1)"><rect fill="#ffffff" stroke="none" x="752" y="316" width="158" height="57"></rect></g><g transform="translate(-150,-10) scale(1,1)"><path fill="none" stroke="#000000" d="M 752 316 L 910 316 L 910 373 L 752 373 L 752 316 Z Z" stroke-miterlimit="10"></path></g><g transform="translate(-150,-10) scale(1,1)"><path fill="none" stroke="#000000" d="M 752 354 L 910 354" stroke-miterlimit="10"></path></g><g transform="translate(-150,-10) scale(1,1)"><path fill="none" stroke="#000000" d="M 752 364 L 910 364" stroke-miterlimit="10"></path></g><g transform="translate(-150,-10) scale(1,1)"><g><path fill="none" stroke="none"></path><text fill="#000000" stroke="none" font-family="Arial" font-size="13px" font-style="normal" font-weight="normal" text-decoration="none" x="805.5" y="333.5">«format»</text></g></g><g transform="translate(-150,-10) scale(1,1)"><g><path fill="none" stroke="none"></path><text fill="#000000" stroke="none" font-family="Arial" font-size="13px" font-style="normal" font-weight="bold" text-decoration="none" x="773" y="348.5">Données affectation</text></g></g><g transform="translate(-150,-10) scale(1,1)"><rect fill="#C0C0C0" stroke="none" x="287" y="39" width="109" height="57" opacity="0.2"></rect></g><g transform="translate(-150,-10) scale(1,1)"><rect fill="#ffffff" stroke="none" x="280" y="32" width="109" height="57"></rect></g><g transform="translate(-150,-10) scale(1,1)"><path fill="none" stroke="#000000" d="M 280 32 L 389 32 L 389 89 L 280 89 L 280 32 Z Z" stroke-miterlimit="10"></path></g><g transform="translate(-150,-10) scale(1,1)"><path fill="none" stroke="#000000" d="M 280 70 L 389 70" stroke-miterlimit="10"></path></g><g transform="translate(-150,-10) scale(1,1)"><path fill="none" stroke="#000000" d="M 280 80 L 389 80" stroke-miterlimit="10"></path></g><g transform="translate(-150,-10) scale(1,1)"><g><path fill="none" stroke="none"></path><text fill="#000000" stroke="none" font-family="Arial" font-size="13px" font-style="normal" font-weight="normal" text-decoration="none" x="315" y="49.5">«type»</text></g></g><g transform="translate(-150,-10) scale(1,1)"><g><path fill="none" stroke="none"></path><text fill="#000000" stroke="none" font-family="Arial" font-size="13px" font-style="normal" font-weight="bold" text-decoration="none" x="311" y="64.5">Tournée</text></g></g><g transform="translate(-150,-10) scale(1,1)"><rect fill="#C0C0C0" stroke="none" x="355" y="143" width="130" height="57" opacity="0.2"></rect></g><g transform="translate(-150,-10) scale(1,1)"><rect fill="#ffffff" stroke="none" x="348" y="136" width="130" height="57"></rect></g><g transform="translate(-150,-10) scale(1,1)"><path fill="none" stroke="#000000" d="M 348 136 L 478 136 L 478 193 L 348 193 L 348 136 Z Z" stroke-miterlimit="10"></path></g><g transform="translate(-150,-10) scale(1,1)"><path fill="none" stroke="#000000" d="M 348 174 L 478 174" stroke-miterlimit="10"></path></g><g transform="translate(-150,-10) scale(1,1)"><path fill="none" stroke="#000000" d="M 348 184 L 478 184" stroke-miterlimit="10"></path></g><g transform="translate(-150,-10) scale(1,1)"><g><path fill="none" stroke="none"></path><text fill="#000000" stroke="none" font-family="Arial" font-size="13px" font-style="normal" font-weight="normal" text-decoration="none" x="393.5" y="153.5">«type»</text></g></g><g transform="translate(-150,-10) scale(1,1)"><g><path fill="none" stroke="none"></path><text fill="#000000" stroke="none" font-family="Arial" font-size="13px" font-style="normal" font-weight="bold" text-decoration="none" x="357" y="168.5">Véhicule Eléctrique</text></g></g><g transform="translate(-150,-10) scale(1,1)"><path fill="none" stroke="#000000" d="M 389 48 L 556 48 L 556 136" stroke-miterlimit="10"></path></g><g transform="translate(-150,-10) scale(1,1)"><g><path fill="none" stroke="none"></path><text fill="#000000" stroke="none" font-family="Arial" font-size="13px" font-style="normal" font-weight="normal" text-decoration="none" x="393" y="40">+utilise</text></g></g><g transform="translate(-150,-10) scale(1,1)"><path fill="none" stroke="#000000" d="M 478 164 L 528 164" stroke-miterlimit="10"></path></g><g transform="translate(-150,-10) scale(1,1)"><g><path fill="none" stroke="none"></path><text fill="#000000" stroke="none" font-family="Arial" font-size="13px" font-style="normal" font-weight="normal" text-decoration="none" x="480" y="161">+input</text></g></g><g transform="translate(-150,-10) scale(1,1)"><rect fill="#C0C0C0" stroke="none" x="767" y="143" width="109" height="57" opacity="0.2"></rect></g><g transform="translate(-150,-10) scale(1,1)"><rect fill="#ffffff" stroke="none" x="760" y="136" width="109" height="57"></rect></g><g transform="translate(-150,-10) scale(1,1)"><path fill="none" stroke="#000000" d="M 760 136 L 869 136 L 869 193 L 760 193 L 760 136 Z Z" stroke-miterlimit="10"></path></g><g transform="translate(-150,-10) scale(1,1)"><path fill="none" stroke="#000000" d="M 760 174 L 869 174" stroke-miterlimit="10"></path></g><g transform="translate(-150,-10) scale(1,1)"><path fill="none" stroke="#000000" d="M 760 184 L 869 184" stroke-miterlimit="10"></path></g><g transform="translate(-150,-10) scale(1,1)"><g><path fill="none" stroke="none"></path><text fill="#000000" stroke="none" font-family="Arial" font-size="13px" font-style="normal" font-weight="normal" text-decoration="none" x="795" y="153.5">«type»</text></g></g><g transform="translate(-150,-10) scale(1,1)"><g><path fill="none" stroke="none"></path><text fill="#000000" stroke="none" font-family="Arial" font-size="13px" font-style="normal" font-weight="bold" text-decoration="none" x="783" y="168.5">Affectation</text></g></g><g transform="translate(-150,-10) scale(1,1)"><path fill="none" stroke="#000000" d="M 698 164 L 759 164" stroke-miterlimit="10"></path></g><g transform="translate(-150,-10) scale(1,1)"><g><path fill="none" stroke="none"></path><text fill="#000000" stroke="none" font-family="Arial" font-size="13px" font-style="normal" font-weight="normal" text-decoration="none" x="703" y="160">+output</text></g></g><g transform="translate(-150,-10) scale(1,1)"><path fill="none" stroke="#000000" d="M 440 344 L 483 344" stroke-miterlimit="10"></path></g><g transform="translate(-150,-10) scale(1,1)"><g><path fill="none" stroke="none"></path><text fill="#000000" stroke="none" font-family="Arial" font-size="13px" font-style="normal" font-weight="normal" text-decoration="none" x="444" y="340">+input</text></g></g><g transform="translate(-150,-10) scale(1,1)"><rect fill="#C0C0C0" stroke="none" x="167" y="135" width="157" height="57" opacity="0.2"></rect></g><g transform="translate(-150,-10) scale(1,1)"><rect fill="#ffffff" stroke="none" x="160" y="128" width="157" height="57"></rect></g><g transform="translate(-150,-10) scale(1,1)"><path fill="none" stroke="#000000" d="M 160 128 L 317 128 L 317 185 L 160 185 L 160 128 Z Z" stroke-miterlimit="10"></path></g><g transform="translate(-150,-10) scale(1,1)"><path fill="none" stroke="#000000" d="M 160 166 L 317 166" stroke-miterlimit="10"></path></g><g transform="translate(-150,-10) scale(1,1)"><path fill="none" stroke="#000000" d="M 160 176 L 317 176" stroke-miterlimit="10"></path></g><g transform="translate(-150,-10) scale(1,1)"><g><path fill="none" stroke="none"></path><text fill="#000000" stroke="none" font-family="Arial" font-size="13px" font-style="normal" font-weight="normal" text-decoration="none" x="205" y="145.5">«intervues»</text></g></g><g transform="translate(-150,-10) scale(1,1)"><g><path fill="none" stroke="none"></path><text fill="#000000" stroke="none" font-family="Arial" font-size="13px" font-style="normal" font-weight="bold" text-decoration="none" x="169.5" y="160.5">Transformation Acceleo</text></g></g><g transform="translate(-150,-10) scale(1,1)"><path fill="none" stroke="#000000" d="M 336 89 L 336 316" stroke-miterlimit="10"></path></g><g transform="translate(-150,-10) scale(1,1)"><g><path fill="none" stroke="none"></path><text fill="#000000" stroke="none" font-family="Arial" font-size="13px" font-style="normal" font-weight="normal" text-decoration="none" x="340" y="309">+raffine</text></g></g><g transform="translate(-150,-10) scale(1,1)"><path fill="none" stroke="#000000" d="M 318 156 L 336 156 L 336 201" stroke-miterlimit="10" stroke-dasharray="3"></path></g><g transform="translate(-150,-10) scale(1,1)"><rect fill="#C0C0C0" stroke="none" x="167" y="239" width="157" height="57" opacity="0.2"></rect></g><g transform="translate(-150,-10) scale(1,1)"><rect fill="#ffffff" stroke="none" x="160" y="232" width="157" height="57"></rect></g><g transform="translate(-150,-10) scale(1,1)"><path fill="none" stroke="#000000" d="M 160 232 L 317 232 L 317 289 L 160 289 L 160 232 Z Z" stroke-miterlimit="10"></path></g><g transform="translate(-150,-10) scale(1,1)"><path fill="none" stroke="#000000" d="M 160 270 L 317 270" stroke-miterlimit="10"></path></g><g transform="translate(-150,-10) scale(1,1)"><path fill="none" stroke="#000000" d="M 160 280 L 317 280" stroke-miterlimit="10"></path></g><g transform="translate(-150,-10) scale(1,1)"><g><path fill="none" stroke="none"></path><text fill="#000000" stroke="none" font-family="Arial" font-size="13px" font-style="normal" font-weight="normal" text-decoration="none" x="205" y="249.5">«intervues»</text></g></g><g transform="translate(-150,-10) scale(1,1)"><g><path fill="none" stroke="none"></path><text fill="#000000" stroke="none" font-family="Arial" font-size="13px" font-style="normal" font-weight="bold" text-decoration="none" x="169.5" y="264.5">Transformation Acceleo</text></g></g><g transform="translate(-150,-10) scale(1,1)"><path fill="none" stroke="#000000" d="M 412 193 L 412 316" stroke-miterlimit="10"></path></g><g transform="translate(-150,-10) scale(1,1)"><g><path fill="none" stroke="none"></path><text fill="#000000" stroke="none" font-family="Arial" font-size="13px" font-style="normal" font-weight="normal" text-decoration="none" x="419" y="309">+raffine</text></g></g><g transform="translate(-150,-10) scale(1,1)"><path fill="none" stroke="#000000" d="M 318 275 L 412 275 L 412 255" stroke-miterlimit="10" stroke-dasharray="3"></path></g><g transform="translate(-150,-10) scale(1,1)"><rect fill="#C0C0C0" stroke="none" x="599" y="239" width="157" height="57" opacity="0.2"></rect></g><g transform="translate(-150,-10) scale(1,1)"><rect fill="#ffffff" stroke="none" x="592" y="232" width="157" height="57"></rect></g><g transform="translate(-150,-10) scale(1,1)"><path fill="none" stroke="#000000" d="M 592 232 L 749 232 L 749 289 L 592 289 L 592 232 Z Z" stroke-miterlimit="10"></path></g><g transform="translate(-150,-10) scale(1,1)"><path fill="none" stroke="#000000" d="M 592 270 L 749 270" stroke-miterlimit="10"></path></g><g transform="translate(-150,-10) scale(1,1)"><path fill="none" stroke="#000000" d="M 592 280 L 749 280" stroke-miterlimit="10"></path></g><g transform="translate(-150,-10) scale(1,1)"><g><path fill="none" stroke="none"></path><text fill="#000000" stroke="none" font-family="Arial" font-size="13px" font-style="normal" font-weight="normal" text-decoration="none" x="637" y="249.5">«intervues»</text></g></g><g transform="translate(-150,-10) scale(1,1)"><g><path fill="none" stroke="none"></path><text fill="#000000" stroke="none" font-family="Arial" font-size="13px" font-style="normal" font-weight="bold" text-decoration="none" x="601.5" y="264.5">Transformation Acceleo</text></g></g><g transform="translate(-150,-10) scale(1,1)"><path fill="none" stroke="#000000" d="M 560 193 L 560 316" stroke-miterlimit="10"></path></g><g transform="translate(-150,-10) scale(1,1)"><path fill="none" stroke="#000000" d="M 591 257 L 561 257 L 561 255" stroke-miterlimit="10" stroke-dasharray="3"></path></g><g transform="translate(-150,-10) scale(1,1)"><path fill="none" stroke="#000000" d="M 699 344 L 752 344" stroke-miterlimit="10"></path></g><g transform="translate(-150,-10) scale(1,1)"><g><path fill="none" stroke="none"></path><text fill="#000000" stroke="none" font-family="Arial" font-size="13px" font-style="normal" font-weight="normal" text-decoration="none" x="704" y="337">+output</text></g></g><g transform="translate(-150,-10) scale(1,1)"><path fill="none" stroke="#000000" d="M 796 193 L 796 316" stroke-miterlimit="10"></path></g><g transform="translate(-150,-10) scale(1,1)"><g><path fill="none" stroke="none"></path><text fill="#000000" stroke="none" font-family="Arial" font-size="13px" font-style="normal" font-weight="normal" text-decoration="none" x="803" y="308">+raffine</text></g></g><g transform="translate(-150,-10) scale(1,1)"><rect fill="#C0C0C0" stroke="none" x="771" y="27" width="214" height="70" opacity="0.2"></rect></g><g transform="translate(-150,-10) scale(1,1)"><rect fill="#ffffff" stroke="none" x="764" y="20" width="214" height="70"></rect></g><g transform="translate(-150,-10) scale(1,1)"><path fill="none" stroke="#000000" d="M 764 20 L 978 20 L 978 90 L 764 90 L 764 20 Z Z" stroke-miterlimit="10"></path></g><g transform="translate(-150,-10) scale(1,1)"><path fill="none" stroke="#000000" d="M 764 58 L 978 58" stroke-miterlimit="10"></path></g><g transform="translate(-150,-10) scale(1,1)"><path fill="none" stroke="#000000" d="M 764 81 L 978 81" stroke-miterlimit="10"></path></g><g transform="translate(-150,-10) scale(1,1)"><g><path fill="none" stroke="none"></path><text fill="#000000" stroke="none" font-family="Arial" font-size="13px" font-style="normal" font-weight="normal" text-decoration="none" x="808" y="37.5">«Objectif fonctionnel»</text></g></g><g transform="translate(-150,-10) scale(1,1)"><g><path fill="none" stroke="none"></path><text fill="#000000" stroke="none" font-family="Arial" font-size="13px" font-style="normal" font-weight="bold" text-decoration="none" x="830" y="52.5">Gestion Flotte</text></g></g><g transform="translate(-150,-10) scale(1,1)"><g><path fill="none" stroke="none"></path><text fill="#000000" stroke="none" font-family="Arial" font-size="13px" font-style="normal" font-weight="normal" text-decoration="none" x="769" y="75.5">+Optimiser utilisation VE</text></g></g><g transform="translate(-150,-10) scale(1,1)"><path fill="none" stroke="#000000" d="M 764 60 L 612 60 L 612 136" stroke-miterlimit="10"></path></g><g transform="translate(-150,-10) scale(1,1)"><g><path fill="none" stroke="none"></path><text fill="#000000" stroke="none" font-family="Arial" font-size="13px" font-style="normal" font-weight="normal" text-decoration="none" x="688" y="52">+rempli par</text></g></g><g transform="translate(-150,-10) scale(1,1)"><rect fill="#C0C0C0" stroke="none" x="771" y="427" width="199" height="70" opacity="0.2"></rect></g><g transform="translate(-150,-10) scale(1,1)"><rect fill="#ffffff" stroke="none" x="764" y="420" width="199" height="70"></rect></g><g transform="translate(-150,-10) scale(1,1)"><path fill="none" stroke="#000000" d="M 764 420 L 963 420 L 963 490 L 764 490 L 764 420 Z Z" stroke-miterlimit="10"></path></g><g transform="translate(-150,-10) scale(1,1)"><path fill="none" stroke="#000000" d="M 764 458 L 963 458" stroke-miterlimit="10"></path></g><g transform="translate(-150,-10) scale(1,1)"><path fill="none" stroke="#000000" d="M 764 481 L 963 481" stroke-miterlimit="10"></path></g><g transform="translate(-150,-10) scale(1,1)"><g><path fill="none" stroke="none"></path><text fill="#000000" stroke="none" font-family="Arial" font-size="13px" font-style="normal" font-weight="normal" text-decoration="none" x="806" y="437.5">«Objectif applicatif»</text></g></g><g transform="translate(-150,-10) scale(1,1)"><g><path fill="none" stroke="none"></path><text fill="#000000" stroke="none" font-family="Arial" font-size="13px" font-style="normal" font-weight="bold" text-decoration="none" x="822.5" y="452.5">Gestion Flotte</text></g></g><g transform="translate(-150,-10) scale(1,1)"><g><path fill="none" stroke="none"></path><text fill="#000000" stroke="none" font-family="Arial" font-size="13px" font-style="normal" font-weight="normal" text-decoration="none" x="769" y="475.5">+MaximiserDistanceElectrique</text></g></g><g transform="translate(-150,-10) scale(1,1)"><path fill="none" stroke="#000000" d="M 606 373 L 606 448 L 764 448" stroke-miterlimit="10"></path></g><g transform="translate(-150,-10) scale(1,1)"><g><path fill="none" stroke="none"></path><text fill="#000000" stroke="none" font-family="Arial" font-size="13px" font-style="normal" font-weight="normal" text-decoration="none" x="685" y="441">+rempli par</text></g></g><g transform="translate(-150,-10) scale(1,1)"><path fill="none" stroke="#000000" d="M 924 90 L 924 420" stroke-miterlimit="10"></path></g><g transform="translate(-150,-10) scale(1,1)"><g><path fill="none" stroke="none"></path><text fill="#000000" stroke="none" font-family="Arial" font-size="13px" font-style="normal" font-weight="normal" text-decoration="none" x="931" y="412">+raffine</text></g></g></g></svg>