<svg version="1.1" xmlns="http://www.w3.org/2000/svg" xmlns:xlink="http://www.w3.org/1999/xlink" width="1092" height="464"><defs></defs><g><g transform="translate(-10,-98) scale(1,1)"><rect fill="#ffffff" stroke="none" x="20" y="108" width="21" height="224"></rect></g><g transform="translate(-10,-98) scale(1,1)"><path fill="none" stroke="#000000" d="M 20 108 L 41 108 L 41 332 L 20 332 L 20 108 Z Z" stroke-miterlimit="10" stroke-width="2"></path></g><g transform="translate(-10,-98) scale(1,1)"><path fill="none" stroke="#000000" d="M 1044 108 L 20 108 L 20 332 L 1044 332" stroke-miterlimit="10" stroke-width="2"></path></g><g transform="translate(-10,-98) scale(1,1)"><g><path fill="none" stroke="none" transform="translate(24,220) rotate(-90,0,0)"></path><text fill="#000000" stroke="none" font-family="Arial" font-size="13px" font-style="normal" font-weight="normal" text-decoration="none" x="-81.5" y="13">IS for vehicles management</text></g></g><g transform="translate(-10,-98) scale(1,1)"><path fill="#C0C0C0" stroke="none" d="M 67 220.5 C 67 215.2532944 71.2532944 211 76.5 211 C 81.7467056 211 86 215.2532944 86 220.5 C 86 225.7467056 81.7467056 230 76.5 230 C 71.2532944 230 67 225.7467056 67 220.5 Z" opacity="0.2"></path></g><g transform="translate(-10,-98) scale(1,1)"><path fill="#000000" stroke="none" d="M 60 213.5 C 60 208.2532944 64.2532944 204 69.5 204 C 74.7467056 204 79 208.2532944 79 213.5 C 79 218.7467056 74.7467056 223 69.5 223 C 64.2532944 223 60 218.7467056 60 213.5 Z"></path></g><g transform="translate(-10,-98) scale(1,1)"><path fill="#C0C0C0" stroke="none" d="M 130 147 L 129 147 Q 132 147 132 150 L 132 288 Q 132 291 129 291 L 130 291 Q 127 291 127 288 L 127 150 Q 127 147 130 147 Z" opacity="0.2"></path></g><g transform="translate(-10,-98) scale(1,1)"><path fill="#000000" stroke="none" d="M 123 140 L 123 140 Q 126 140 126 143 L 126 281 Q 126 284 123 284 L 123 284 Q 120 284 120 281 L 120 143 Q 120 140 123 140 Z"></path></g><g transform="translate(-10,-98) scale(1,1)"><path fill="#C0C0C0" stroke="none" d="M 341 167 L 425 167 Q 435 167 435 177 L 435 197 Q 435 207 425 207 L 341 207 Q 331 207 331 197 L 331 177 Q 331 167 341 167 Z" opacity="0.2"></path></g><g transform="translate(-10,-98) scale(1,1)"><path fill="#ffffff" stroke="none" d="M 334 160 L 418 160 Q 428 160 428 170 L 428 190 Q 428 200 418 200 L 334 200 Q 324 200 324 190 L 324 170 Q 324 160 334 160 Z"></path></g><g transform="translate(-10,-98) scale(1,1)"><path fill="none" stroke="#000000" d="M 334 160 L 418 160 Q 428 160 428 170 L 428 190 Q 428 200 418 200 L 334 200 Q 324 200 324 190 L 324 170 Q 324 160 334 160 Z" stroke-miterlimit="10"></path></g><g transform="translate(-10,-98) scale(1,1)"><g><path fill="none" stroke="none"></path><text fill="#000000" stroke="none" font-family="Arial" font-size="13px" font-style="normal" font-weight="bold" text-decoration="none" x="330.5" y="179.5">Collect EV data</text></g></g><g transform="translate(-10,-98) scale(1,1)"><path fill="#C0C0C0" stroke="none" d="M 177 239 L 275 239 Q 285 239 285 249 L 285 269 Q 285 279 275 279 L 177 279 Q 167 279 167 269 L 167 249 Q 167 239 177 239 Z" opacity="0.2"></path></g><g transform="translate(-10,-98) scale(1,1)"><path fill="#ffffff" stroke="none" d="M 170 232 L 268 232 Q 278 232 278 242 L 278 262 Q 278 272 268 272 L 170 272 Q 160 272 160 262 L 160 242 Q 160 232 170 232 Z"></path></g><g transform="translate(-10,-98) scale(1,1)"><path fill="none" stroke="#000000" d="M 170 232 L 268 232 Q 278 232 278 242 L 278 262 Q 278 272 268 272 L 170 272 Q 160 272 160 262 L 160 242 Q 160 232 170 232 Z" stroke-miterlimit="10"></path></g><g transform="translate(-10,-98) scale(1,1)"><g><path fill="none" stroke="none"></path><text fill="#000000" stroke="none" font-family="Arial" font-size="13px" font-style="normal" font-weight="bold" text-decoration="none" x="168" y="251.5">Collect tours data</text></g></g><g transform="translate(-10,-98) scale(1,1)"><rect fill="#C0C0C0" stroke="none" x="491" y="175" width="88" height="24" opacity="0.2"></rect></g><g transform="translate(-10,-98) scale(1,1)"><rect fill="#ffffff" stroke="none" x="484" y="168" width="88" height="24"></rect></g><g transform="translate(-10,-98) scale(1,1)"><path fill="none" stroke="#000000" d="M 484 168 L 572 168 L 572 192 L 484 192 L 484 168 Z Z" stroke-miterlimit="10"></path></g><g transform="translate(-10,-98) scale(1,1)"><rect fill="#ffffff" stroke="none" x="484" y="168" width="88" height="24"></rect></g><g transform="translate(-10,-98) scale(1,1)"><path fill="none" stroke="#000000" d="M 484 168 L 572 168 L 572 192 L 484 192 L 484 168 Z Z" stroke-miterlimit="10"></path></g><g transform="translate(-10,-98) scale(1,1)"><g><path fill="none" stroke="none"></path><text fill="#000000" stroke="none" font-family="Arial" font-size="13px" font-style="normal" font-weight="bold" text-decoration="none" x="504.5" y="187.5">EV data</text></g></g><g transform="translate(-10,-98) scale(1,1)"><rect fill="#C0C0C0" stroke="none" x="319" y="247" width="88" height="24" opacity="0.2"></rect></g><g transform="translate(-10,-98) scale(1,1)"><rect fill="#ffffff" stroke="none" x="312" y="240" width="88" height="24"></rect></g><g transform="translate(-10,-98) scale(1,1)"><path fill="none" stroke="#000000" d="M 312 240 L 400 240 L 400 264 L 312 264 L 312 240 Z Z" stroke-miterlimit="10"></path></g><g transform="translate(-10,-98) scale(1,1)"><rect fill="#ffffff" stroke="none" x="312" y="240" width="88" height="24"></rect></g><g transform="translate(-10,-98) scale(1,1)"><path fill="none" stroke="#000000" d="M 312 240 L 400 240 L 400 264 L 312 264 L 312 240 Z Z" stroke-miterlimit="10"></path></g><g transform="translate(-10,-98) scale(1,1)"><g><path fill="none" stroke="none"></path><text fill="#000000" stroke="none" font-family="Arial" font-size="13px" font-style="normal" font-weight="bold" text-decoration="none" x="325" y="259.5">Tours data</text></g></g><g transform="translate(-10,-98) scale(1,1)"><path fill="#C0C0C0" stroke="none" d="M 461 239 L 609 239 Q 619 239 619 249 L 619 269 Q 619 279 609 279 L 461 279 Q 451 279 451 269 L 451 249 Q 451 239 461 239 Z" opacity="0.2"></path></g><g transform="translate(-10,-98) scale(1,1)"><path fill="#ffffff" stroke="none" d="M 454 232 L 602 232 Q 612 232 612 242 L 612 262 Q 612 272 602 272 L 454 272 Q 444 272 444 262 L 444 242 Q 444 232 454 232 Z"></path></g><g transform="translate(-10,-98) scale(1,1)"><path fill="none" stroke="#000000" d="M 454 232 L 602 232 Q 612 232 612 242 L 612 262 Q 612 272 602 272 L 454 272 Q 444 272 444 262 L 444 242 Q 444 232 454 232 Z" stroke-miterlimit="10"></path></g><g transform="translate(-10,-98) scale(1,1)"><g><path fill="none" stroke="none"></path><text fill="#000000" stroke="none" font-family="Arial" font-size="13px" font-style="normal" font-weight="bold" text-decoration="none" x="454.5" y="251.5">Calculate required energy</text></g></g><g transform="translate(-10,-98) scale(1,1)"><path fill="#C0C0C0" stroke="none" d="M 790 151 L 789 151 Q 792 151 792 154 L 792 284 Q 792 287 789 287 L 790 287 Q 787 287 787 284 L 787 154 Q 787 151 790 151 Z" opacity="0.2"></path></g><g transform="translate(-10,-98) scale(1,1)"><path fill="#000000" stroke="none" d="M 783 144 L 783 144 Q 786 144 786 147 L 786 277 Q 786 280 783 280 L 783 280 Q 780 280 780 277 L 780 147 Q 780 144 783 144 Z"></path></g><g transform="translate(-10,-98) scale(1,1)"><rect fill="#C0C0C0" stroke="none" x="647" y="251" width="111" height="24" opacity="0.2"></rect></g><g transform="translate(-10,-98) scale(1,1)"><rect fill="#ffffff" stroke="none" x="640" y="244" width="111" height="24"></rect></g><g transform="translate(-10,-98) scale(1,1)"><path fill="none" stroke="#000000" d="M 640 244 L 751 244 L 751 268 L 640 268 L 640 244 Z Z" stroke-miterlimit="10"></path></g><g transform="translate(-10,-98) scale(1,1)"><rect fill="#ffffff" stroke="none" x="640" y="244" width="111" height="24"></rect></g><g transform="translate(-10,-98) scale(1,1)"><path fill="none" stroke="#000000" d="M 640 244 L 751 244 L 751 268 L 640 268 L 640 244 Z Z" stroke-miterlimit="10"></path></g><g transform="translate(-10,-98) scale(1,1)"><g><path fill="none" stroke="none"></path><text fill="#000000" stroke="none" font-family="Arial" font-size="13px" font-style="normal" font-weight="bold" text-decoration="none" x="648.5" y="263.5">Required energy</text></g></g><g transform="translate(-10,-98) scale(1,1)"><path fill="none" stroke="#000000" d="M 79 213 L 120 213" stroke-miterlimit="10"></path></g><g transform="translate(-10,-98) scale(1,1)"><path fill="none" stroke="#000000" d="M 109.83732514237585 217.209517756016 L 120 213 L 109.83732514237585 208.790482243984" stroke-miterlimit="10"></path></g><g transform="translate(-10,-98) scale(1,1)"><path fill="#C0C0C0" stroke="none" d="M 837 203 L 957 203 Q 967 203 967 213 L 967 233 Q 967 243 957 243 L 837 243 Q 827 243 827 233 L 827 213 Q 827 203 837 203 Z" opacity="0.2"></path></g><g transform="translate(-10,-98) scale(1,1)"><path fill="#ffffff" stroke="none" d="M 830 196 L 950 196 Q 960 196 960 206 L 960 226 Q 960 236 950 236 L 830 236 Q 820 236 820 226 L 820 206 Q 820 196 830 196 Z"></path></g><g transform="translate(-10,-98) scale(1,1)"><path fill="none" stroke="#000000" d="M 830 196 L 950 196 Q 960 196 960 206 L 960 226 Q 960 236 950 236 L 830 236 Q 820 236 820 226 L 820 206 Q 820 196 830 196 Z" stroke-miterlimit="10"></path></g><g transform="translate(-10,-98) scale(1,1)"><g><path fill="none" stroke="none"></path><text fill="#000000" stroke="none" font-family="Arial" font-size="13px" font-style="normal" font-weight="bold" text-decoration="none" x="831.5" y="215.5">Allocate EV to tours</text></g></g><g transform="translate(-10,-98) scale(1,1)"><path fill="none" stroke="#000000" d="M 125 180 L 324 180" stroke-miterlimit="10"></path></g><g transform="translate(-10,-98) scale(1,1)"><path fill="none" stroke="#000000" d="M 313.83732514237585 184.209517756016 L 324 180 L 313.83732514237585 175.790482243984" stroke-miterlimit="10"></path></g><g transform="translate(-10,-98) scale(1,1)"><path fill="none" stroke="#000000" d="M 125 252 L 160 252" stroke-miterlimit="10"></path></g><g transform="translate(-10,-98) scale(1,1)"><path fill="none" stroke="#000000" d="M 149.83732514237585 256.209517756016 L 160 252 L 149.83732514237585 247.790482243984" stroke-miterlimit="10"></path></g><g transform="translate(-10,-98) scale(1,1)"><path fill="none" stroke="#000000" d="M 428 180 L 484 180" stroke-miterlimit="10"></path></g><g transform="translate(-10,-98) scale(1,1)"><path fill="none" stroke="#000000" d="M 473.83732514237585 184.209517756016 L 484 180 L 473.83732514237585 175.790482243984" stroke-miterlimit="10"></path></g><g transform="translate(-10,-98) scale(1,1)"><path fill="none" stroke="#000000" d="M 278 252 L 312 252" stroke-miterlimit="10"></path></g><g transform="translate(-10,-98) scale(1,1)"><path fill="none" stroke="#000000" d="M 301.83732514237585 256.209517756016 L 312 252 L 301.83732514237585 247.790482243984" stroke-miterlimit="10"></path></g><g transform="translate(-10,-98) scale(1,1)"><path fill="none" stroke="#000000" d="M 400 252 L 444 252" stroke-miterlimit="10"></path></g><g transform="translate(-10,-98) scale(1,1)"><path fill="none" stroke="#000000" d="M 433.83732514237585 256.209517756016 L 444 252 L 433.83732514237585 247.790482243984" stroke-miterlimit="10"></path></g><g transform="translate(-10,-98) scale(1,1)"><path fill="none" stroke="#000000" d="M 572 180 L 780 180" stroke-miterlimit="10"></path></g><g transform="translate(-10,-98) scale(1,1)"><path fill="none" stroke="#000000" d="M 769.8373251423759 184.209517756016 L 780 180 L 769.8373251423758 175.790482243984" stroke-miterlimit="10"></path></g><g transform="translate(-10,-98) scale(1,1)"><path fill="none" stroke="#000000" d="M 612 255 L 640 255" stroke-miterlimit="10"></path></g><g transform="translate(-10,-98) scale(1,1)"><path fill="none" stroke="#000000" d="M 629.8373251423759 259.209517756016 L 640 255 L 629.8373251423758 250.790482243984" stroke-miterlimit="10"></path></g><g transform="translate(-10,-98) scale(1,1)"><path fill="none" stroke="#000000" d="M 751 256 L 780 256" stroke-miterlimit="10"></path></g><g transform="translate(-10,-98) scale(1,1)"><path fill="none" stroke="#000000" d="M 769.8373251423759 260.209517756016 L 780 256 L 769.8373251423758 251.790482243984" stroke-miterlimit="10"></path></g><g transform="translate(-10,-98) scale(1,1)"><path fill="none" stroke="#000000" d="M 786 212 L 819 213" stroke-miterlimit="10"></path></g><g transform="translate(-10,-98) scale(1,1)"><path fill="none" stroke="#000000" d="M 808.7144853731307 216.8997677957101 L 819 213 L 808.9694906059477 208.48459511274683" stroke-miterlimit="10"></path></g><g transform="translate(-10,-98) scale(1,1)"><rect fill="#ffffff" stroke="none" x="20" y="332" width="21" height="220"></rect></g><g transform="translate(-10,-98) scale(1,1)"><path fill="none" stroke="#000000" d="M 20 332 L 41 332 L 41 552 L 20 552 L 20 332 Z Z" stroke-miterlimit="10" stroke-width="2"></path></g><g transform="translate(-10,-98) scale(1,1)"><path fill="none" stroke="#000000" d="M 1092 332 L 20 332 L 20 552 L 1092 552" stroke-miterlimit="10" stroke-width="2"></path></g><g transform="translate(-10,-98) scale(1,1)"><g><path fill="none" stroke="none" transform="translate(24,442) rotate(-90,0,0)"></path><text fill="#000000" stroke="none" font-family="Arial" font-size="13px" font-style="normal" font-weight="normal" text-decoration="none" x="-41.5" y="13">Fleet manager</text></g></g><g transform="translate(-10,-98) scale(1,1)"><path fill="#C0C0C0" stroke="none" d="M 837 439 L 1009 439 Q 1019 439 1019 449 L 1019 469 Q 1019 479 1009 479 L 837 479 Q 827 479 827 469 L 827 449 Q 827 439 837 439 Z" opacity="0.2"></path></g><g transform="translate(-10,-98) scale(1,1)"><path fill="#ffffff" stroke="none" d="M 830 432 L 1002 432 Q 1012 432 1012 442 L 1012 462 Q 1012 472 1002 472 L 830 472 Q 820 472 820 462 L 820 442 Q 820 432 830 432 Z"></path></g><g transform="translate(-10,-98) scale(1,1)"><path fill="none" stroke="#000000" d="M 830 432 L 1002 432 Q 1012 432 1012 442 L 1012 462 Q 1012 472 1002 472 L 830 472 Q 820 472 820 462 L 820 442 Q 820 432 830 432 Z" stroke-miterlimit="10"></path></g><g transform="translate(-10,-98) scale(1,1)"><g><path fill="none" stroke="none"></path><text fill="#000000" stroke="none" font-family="Arial" font-size="13px" font-style="normal" font-weight="bold" text-decoration="none" x="831.5" y="451.5">Validate or correct  allocation</text></g></g><g transform="translate(-10,-98) scale(1,1)"><rect fill="#C0C0C0" stroke="none" x="875" y="327" width="88" height="24" opacity="0.2"></rect></g><g transform="translate(-10,-98) scale(1,1)"><rect fill="#ffffff" stroke="none" x="868" y="320" width="88" height="24"></rect></g><g transform="translate(-10,-98) scale(1,1)"><path fill="none" stroke="#000000" d="M 868 320 L 956 320 L 956 344 L 868 344 L 868 320 Z Z" stroke-miterlimit="10"></path></g><g transform="translate(-10,-98) scale(1,1)"><rect fill="#ffffff" stroke="none" x="868" y="320" width="88" height="24"></rect></g><g transform="translate(-10,-98) scale(1,1)"><path fill="none" stroke="#000000" d="M 868 320 L 956 320 L 956 344 L 868 344 L 868 320 Z Z" stroke-miterlimit="10"></path></g><g transform="translate(-10,-98) scale(1,1)"><g><path fill="none" stroke="none"></path><text fill="#000000" stroke="none" font-family="Arial" font-size="13px" font-style="normal" font-weight="bold" text-decoration="none" x="883.5" y="339.5">Allocation</text></g></g><g transform="translate(-10,-98) scale(1,1)"><path fill="none" stroke="#000000" d="M 890 236 L 890 320" stroke-miterlimit="10"></path></g><g transform="translate(-10,-98) scale(1,1)"><path fill="none" stroke="#000000" d="M 885.790482243984 309.83732514237585 L 890 320 L 894.209517756016 309.83732514237585" stroke-miterlimit="10"></path></g><g transform="translate(-10,-98) scale(1,1)"><path fill="none" stroke="#000000" d="M 892 344 L 892 432" stroke-miterlimit="10"></path></g><g transform="translate(-10,-98) scale(1,1)"><path fill="none" stroke="#000000" d="M 887.790482243984 421.83732514237585 L 892 432 L 896.209517756016 421.83732514237585" stroke-miterlimit="10"></path></g><g transform="translate(-10,-98) scale(1,1)"><path fill="#C0C0C0" stroke="none" d="M 1039 455.5 C 1039 448.59644 1044.59644 443 1051.5 443 C 1058.40356 443 1064 448.59644 1064 455.5 C 1064 462.40356 1058.40356 468 1051.5 468 C 1044.59644 468 1039 462.40356 1039 455.5 Z" opacity="0.2"></path></g><g transform="translate(-10,-98) scale(1,1)"><path fill="none" stroke="#000000" d="M 1032 448.5 C 1032 441.59644 1037.59644 436 1044.5 436 C 1051.40356 436 1057 441.59644 1057 448.5 C 1057 455.40356 1051.40356 461 1044.5 461 C 1037.59644 461 1032 455.40356 1032 448.5 Z" stroke-miterlimit="10"></path></g><g transform="translate(-10,-98) scale(1,1)"><path fill="#000000" stroke="none" d="M 1037 448.5 C 1037 444.357864 1040.357864 441 1044.5 441 C 1048.642136 441 1052 444.357864 1052 448.5 C 1052 452.642136 1048.642136 456 1044.5 456 C 1040.357864 456 1037 452.642136 1037 448.5 Z"></path></g><g transform="translate(-10,-98) scale(1,1)"><path fill="none" stroke="#000000" d="M 1012 448 L 1032 448" stroke-miterlimit="10"></path></g><g transform="translate(-10,-98) scale(1,1)"><path fill="none" stroke="#000000" d="M 1021.8373251423759 452.209517756016 L 1032 448 L 1021.8373251423758 443.790482243984" stroke-miterlimit="10"></path></g></g></svg>