<svg version="1.1" xmlns="http://www.w3.org/2000/svg" xmlns:xlink="http://www.w3.org/1999/xlink" width="886" height="366"><defs></defs><g><g transform="translate(10,-190) scale(1,1)"><rect fill="#ffffff" stroke="none" x="424" y="200" width="169" height="57"></rect></g><g transform="translate(10,-190) scale(1,1)"><path fill="none" stroke="#000000" d="M 424 200 L 593 200 L 593 257 L 424 257 L 424 200 Z Z" stroke-miterlimit="10"></path></g><g transform="translate(10,-190) scale(1,1)"><path fill="none" stroke="#000000" d="M 424 238 L 593 238" stroke-miterlimit="10"></path></g><g transform="translate(10,-190) scale(1,1)"><path fill="none" stroke="#000000" d="M 424 248 L 593 248" stroke-miterlimit="10"></path></g><g transform="translate(10,-190) scale(1,1)"><g><path fill="none" stroke="none"></path><text fill="#000000" stroke="none" font-family="Arial" font-size="13px" font-style="normal" font-weight="normal" text-decoration="none" x="478.5" y="217.5">«fonction»</text></g></g><g transform="translate(10,-190) scale(1,1)"><g><path fill="none" stroke="none"></path><text fill="#000000" stroke="none" font-family="Arial" font-size="13px" font-style="normal" font-weight="bold" text-decoration="none" x="432.5" y="232.5">Affecter véhicule à tounée</text></g></g><g transform="translate(10,-190) scale(1,1)"><rect fill="#ffffff" stroke="none" x="452" y="485" width="215" height="57"></rect></g><g transform="translate(10,-190) scale(1,1)"><path fill="none" stroke="#000000" d="M 452 485 L 667 485 L 667 542 L 452 542 L 452 485 Z Z" stroke-miterlimit="10"></path></g><g transform="translate(10,-190) scale(1,1)"><path fill="none" stroke="#000000" d="M 452 523 L 667 523" stroke-miterlimit="10"></path></g><g transform="translate(10,-190) scale(1,1)"><path fill="none" stroke="#000000" d="M 452 533 L 667 533" stroke-miterlimit="10"></path></g><g transform="translate(10,-190) scale(1,1)"><g><path fill="none" stroke="none"></path><text fill="#000000" stroke="none" font-family="Arial" font-size="13px" font-style="normal" font-weight="normal" text-decoration="none" x="531.5" y="502.5">«module»</text></g></g><g transform="translate(10,-190) scale(1,1)"><g><path fill="none" stroke="none"></path><text fill="#000000" stroke="none" font-family="Arial" font-size="13px" font-style="normal" font-weight="bold" text-decoration="none" x="464" y="517.5">Optimisation affectation MiniZinc</text></g></g><g transform="translate(10,-190) scale(1,1)"><rect fill="#ffffff" stroke="none" x="148" y="489" width="199" height="57"></rect></g><g transform="translate(10,-190) scale(1,1)"><path fill="none" stroke="#000000" d="M 148 489 L 347 489 L 347 546 L 148 546 L 148 489 Z Z" stroke-miterlimit="10"></path></g><g transform="translate(10,-190) scale(1,1)"><path fill="none" stroke="#000000" d="M 148 527 L 347 527" stroke-miterlimit="10"></path></g><g transform="translate(10,-190) scale(1,1)"><path fill="none" stroke="#000000" d="M 148 537 L 347 537" stroke-miterlimit="10"></path></g><g transform="translate(10,-190) scale(1,1)"><g><path fill="none" stroke="none"></path><text fill="#000000" stroke="none" font-family="Arial" font-size="13px" font-style="normal" font-weight="normal" text-decoration="none" x="222" y="506.5">«format»</text></g></g><g transform="translate(10,-190) scale(1,1)"><g><path fill="none" stroke="none"></path><text fill="#000000" stroke="none" font-family="Arial" font-size="13px" font-style="normal" font-weight="bold" text-decoration="none" x="158" y="521.5">Données véhicules et tournées</text></g></g><g transform="translate(10,-190) scale(1,1)"><rect fill="#ffffff" stroke="none" x="735" y="485" width="131" height="57"></rect></g><g transform="translate(10,-190) scale(1,1)"><path fill="none" stroke="#000000" d="M 735 485 L 866 485 L 866 542 L 735 542 L 735 485 Z Z" stroke-miterlimit="10"></path></g><g transform="translate(10,-190) scale(1,1)"><path fill="none" stroke="#000000" d="M 735 523 L 866 523" stroke-miterlimit="10"></path></g><g transform="translate(10,-190) scale(1,1)"><path fill="none" stroke="#000000" d="M 735 533 L 866 533" stroke-miterlimit="10"></path></g><g transform="translate(10,-190) scale(1,1)"><g><path fill="none" stroke="none"></path><text fill="#000000" stroke="none" font-family="Arial" font-size="13px" font-style="normal" font-weight="normal" text-decoration="none" x="775" y="502.5">«format»</text></g></g><g transform="translate(10,-190) scale(1,1)"><g><path fill="none" stroke="none"></path><text fill="#000000" stroke="none" font-family="Arial" font-size="13px" font-style="normal" font-weight="bold" text-decoration="none" x="742.5" y="517.5">Données affectation</text></g></g><g transform="translate(10,-190) scale(1,1)"><rect fill="#ffffff" stroke="none" x="120" y="205" width="109" height="57"></rect></g><g transform="translate(10,-190) scale(1,1)"><path fill="none" stroke="#000000" d="M 120 205 L 229 205 L 229 262 L 120 262 L 120 205 Z Z" stroke-miterlimit="10"></path></g><g transform="translate(10,-190) scale(1,1)"><path fill="none" stroke="#000000" d="M 120 243 L 229 243" stroke-miterlimit="10"></path></g><g transform="translate(10,-190) scale(1,1)"><path fill="none" stroke="#000000" d="M 120 253 L 229 253" stroke-miterlimit="10"></path></g><g transform="translate(10,-190) scale(1,1)"><g><path fill="none" stroke="none"></path><text fill="#000000" stroke="none" font-family="Arial" font-size="13px" font-style="normal" font-weight="normal" text-decoration="none" x="155" y="222.5">«type»</text></g></g><g transform="translate(10,-190) scale(1,1)"><g><path fill="none" stroke="none"></path><text fill="#000000" stroke="none" font-family="Arial" font-size="13px" font-style="normal" font-weight="bold" text-decoration="none" x="151" y="237.5">Tournée</text></g></g><g transform="translate(10,-190) scale(1,1)"><rect fill="#ffffff" stroke="none" x="188" y="309" width="130" height="57"></rect></g><g transform="translate(10,-190) scale(1,1)"><path fill="none" stroke="#000000" d="M 188 309 L 318 309 L 318 366 L 188 366 L 188 309 Z Z" stroke-miterlimit="10"></path></g><g transform="translate(10,-190) scale(1,1)"><path fill="none" stroke="#000000" d="M 188 347 L 318 347" stroke-miterlimit="10"></path></g><g transform="translate(10,-190) scale(1,1)"><path fill="none" stroke="#000000" d="M 188 357 L 318 357" stroke-miterlimit="10"></path></g><g transform="translate(10,-190) scale(1,1)"><g><path fill="none" stroke="none"></path><text fill="#000000" stroke="none" font-family="Arial" font-size="13px" font-style="normal" font-weight="normal" text-decoration="none" x="233.5" y="326.5">«type»</text></g></g><g transform="translate(10,-190) scale(1,1)"><g><path fill="none" stroke="none"></path><text fill="#000000" stroke="none" font-family="Arial" font-size="13px" font-style="normal" font-weight="bold" text-decoration="none" x="197" y="341.5">Véhicule Eléctrique</text></g></g><g transform="translate(10,-190) scale(1,1)"><path fill="none" stroke="#000000" d="M 229 228 L 424 228" stroke-miterlimit="10"></path></g><g transform="translate(10,-190) scale(1,1)"><g><path fill="none" stroke="none"></path><text fill="#000000" stroke="none" font-family="Arial" font-size="13px" font-style="normal" font-weight="normal" text-decoration="none" x="235" y="221">+consomme</text></g></g><g transform="translate(10,-190) scale(1,1)"><path fill="none" stroke="#000000" d="M 318 333 L 440 333 L 440 257" stroke-miterlimit="10"></path></g><g transform="translate(10,-190) scale(1,1)"><g><path fill="none" stroke="none"></path><text fill="#000000" stroke="none" font-family="Arial" font-size="13px" font-style="normal" font-weight="normal" text-decoration="none" x="319" y="330">+consomme</text></g></g><g transform="translate(10,-190) scale(1,1)"><rect fill="#ffffff" stroke="none" x="748" y="200" width="109" height="57"></rect></g><g transform="translate(10,-190) scale(1,1)"><path fill="none" stroke="#000000" d="M 748 200 L 857 200 L 857 257 L 748 257 L 748 200 Z Z" stroke-miterlimit="10"></path></g><g transform="translate(10,-190) scale(1,1)"><path fill="none" stroke="#000000" d="M 748 238 L 857 238" stroke-miterlimit="10"></path></g><g transform="translate(10,-190) scale(1,1)"><path fill="none" stroke="#000000" d="M 748 248 L 857 248" stroke-miterlimit="10"></path></g><g transform="translate(10,-190) scale(1,1)"><g><path fill="none" stroke="none"></path><text fill="#000000" stroke="none" font-family="Arial" font-size="13px" font-style="normal" font-weight="normal" text-decoration="none" x="783" y="217.5">«type»</text></g></g><g transform="translate(10,-190) scale(1,1)"><g><path fill="none" stroke="none"></path><text fill="#000000" stroke="none" font-family="Arial" font-size="13px" font-style="normal" font-weight="bold" text-decoration="none" x="771" y="232.5">Affectation</text></g></g><g transform="translate(10,-190) scale(1,1)"><path fill="none" stroke="#000000" d="M 594 228 L 747 228" stroke-miterlimit="10"></path></g><g transform="translate(10,-190) scale(1,1)"><g><path fill="none" stroke="none"></path><text fill="#000000" stroke="none" font-family="Arial" font-size="13px" font-style="normal" font-weight="normal" text-decoration="none" x="694" y="223">+produit</text></g></g><g transform="translate(10,-190) scale(1,1)"><path fill="none" stroke="#000000" d="M 348 516 L 451 514" stroke-miterlimit="10"></path></g><g transform="translate(10,-190) scale(1,1)"><g><path fill="none" stroke="none"></path><text fill="#000000" stroke="none" font-family="Arial" font-size="13px" font-style="normal" font-weight="normal" text-decoration="none" x="355" y="512">+consomme</text></g></g><g transform="translate(10,-190) scale(1,1)"><rect fill="#ffffff" stroke="none" x="0" y="301" width="157" height="57"></rect></g><g transform="translate(10,-190) scale(1,1)"><path fill="none" stroke="#000000" d="M 0 301 L 157 301 L 157 358 L 0 358 L 0 301 Z Z" stroke-miterlimit="10"></path></g><g transform="translate(10,-190) scale(1,1)"><path fill="none" stroke="#000000" d="M 0 339 L 157 339" stroke-miterlimit="10"></path></g><g transform="translate(10,-190) scale(1,1)"><path fill="none" stroke="#000000" d="M 0 349 L 157 349" stroke-miterlimit="10"></path></g><g transform="translate(10,-190) scale(1,1)"><g><path fill="none" stroke="none"></path><text fill="#000000" stroke="none" font-family="Arial" font-size="13px" font-style="normal" font-weight="normal" text-decoration="none" x="45" y="318.5">«intervues»</text></g></g><g transform="translate(10,-190) scale(1,1)"><g><path fill="none" stroke="none"></path><text fill="#000000" stroke="none" font-family="Arial" font-size="13px" font-style="normal" font-weight="bold" text-decoration="none" x="9.5" y="333.5">Transformation Acceleo</text></g></g><g transform="translate(10,-190) scale(1,1)"><path fill="none" stroke="#000000" d="M 176 262 L 176 489" stroke-miterlimit="10"></path></g><g transform="translate(10,-190) scale(1,1)"><g><path fill="none" stroke="none"></path><text fill="#000000" stroke="none" font-family="Arial" font-size="13px" font-style="normal" font-weight="normal" text-decoration="none" x="177" y="482">+raffine</text></g></g><g transform="translate(10,-190) scale(1,1)"><path fill="none" stroke="#000000" d="M 158 329 L 176 329 L 176 374" stroke-miterlimit="10" stroke-dasharray="3"></path></g><g transform="translate(10,-190) scale(1,1)"><rect fill="#ffffff" stroke="none" x="0" y="405" width="157" height="57"></rect></g><g transform="translate(10,-190) scale(1,1)"><path fill="none" stroke="#000000" d="M 0 405 L 157 405 L 157 462 L 0 462 L 0 405 Z Z" stroke-miterlimit="10"></path></g><g transform="translate(10,-190) scale(1,1)"><path fill="none" stroke="#000000" d="M 0 443 L 157 443" stroke-miterlimit="10"></path></g><g transform="translate(10,-190) scale(1,1)"><path fill="none" stroke="#000000" d="M 0 453 L 157 453" stroke-miterlimit="10"></path></g><g transform="translate(10,-190) scale(1,1)"><g><path fill="none" stroke="none"></path><text fill="#000000" stroke="none" font-family="Arial" font-size="13px" font-style="normal" font-weight="normal" text-decoration="none" x="45" y="422.5">«intervues»</text></g></g><g transform="translate(10,-190) scale(1,1)"><g><path fill="none" stroke="none"></path><text fill="#000000" stroke="none" font-family="Arial" font-size="13px" font-style="normal" font-weight="bold" text-decoration="none" x="9.5" y="437.5">Transformation Acceleo</text></g></g><g transform="translate(10,-190) scale(1,1)"><path fill="none" stroke="#000000" d="M 252 366 L 252 489" stroke-miterlimit="10"></path></g><g transform="translate(10,-190) scale(1,1)"><g><path fill="none" stroke="none"></path><text fill="#000000" stroke="none" font-family="Arial" font-size="13px" font-style="normal" font-weight="normal" text-decoration="none" x="252" y="482">+raffine</text></g></g><g transform="translate(10,-190) scale(1,1)"><path fill="none" stroke="#000000" d="M 158 448 L 252 448 L 252 428" stroke-miterlimit="10" stroke-dasharray="3"></path></g><g transform="translate(10,-190) scale(1,1)"><rect fill="#ffffff" stroke="none" x="575" y="401" width="157" height="57"></rect></g><g transform="translate(10,-190) scale(1,1)"><path fill="none" stroke="#000000" d="M 575 401 L 732 401 L 732 458 L 575 458 L 575 401 Z Z" stroke-miterlimit="10"></path></g><g transform="translate(10,-190) scale(1,1)"><path fill="none" stroke="#000000" d="M 575 439 L 732 439" stroke-miterlimit="10"></path></g><g transform="translate(10,-190) scale(1,1)"><path fill="none" stroke="#000000" d="M 575 449 L 732 449" stroke-miterlimit="10"></path></g><g transform="translate(10,-190) scale(1,1)"><g><path fill="none" stroke="none"></path><text fill="#000000" stroke="none" font-family="Arial" font-size="13px" font-style="normal" font-weight="normal" text-decoration="none" x="620" y="418.5">«intervues»</text></g></g><g transform="translate(10,-190) scale(1,1)"><g><path fill="none" stroke="none"></path><text fill="#000000" stroke="none" font-family="Arial" font-size="13px" font-style="normal" font-weight="bold" text-decoration="none" x="584.5" y="433.5">Transformation Acceleo</text></g></g><g transform="translate(10,-190) scale(1,1)"><path fill="none" stroke="#000000" d="M 508 257 L 508 485" stroke-miterlimit="10"></path></g><g transform="translate(10,-190) scale(1,1)"><path fill="none" stroke="#000000" d="M 574 426 L 508 426 L 508 372" stroke-miterlimit="10" stroke-dasharray="3"></path></g><g transform="translate(10,-190) scale(1,1)"><path fill="none" stroke="#000000" d="M 667 513 L 735 513" stroke-miterlimit="10"></path></g><g transform="translate(10,-190) scale(1,1)"><g><path fill="none" stroke="none"></path><text fill="#000000" stroke="none" font-family="Arial" font-size="13px" font-style="normal" font-weight="normal" text-decoration="none" x="679" y="506">+produit</text></g></g><g transform="translate(10,-190) scale(1,1)"><path fill="none" stroke="#000000" d="M 779 257 L 779 485" stroke-miterlimit="10"></path></g><g transform="translate(10,-190) scale(1,1)"><g><path fill="none" stroke="none"></path><text fill="#000000" stroke="none" font-family="Arial" font-size="13px" font-style="normal" font-weight="normal" text-decoration="none" x="782" y="417">+raffine</text></g></g></g></svg>