<svg version="1.1" xmlns="http://www.w3.org/2000/svg" xmlns:xlink="http://www.w3.org/1999/xlink" width="1092" height="464"><defs></defs><g><g transform="translate(-10,-98) scale(1,1)"><rect fill="#ffffff" stroke="none" x="20" y="108" width="21" height="224"></rect></g><g transform="translate(-10,-98) scale(1,1)"><path fill="none" stroke="#000000" d="M 20 108 L 41 108 L 41 332 L 20 332 L 20 108 Z Z" stroke-miterlimit="10" stroke-width="2"></path></g><g transform="translate(-10,-98) scale(1,1)"><path fill="none" stroke="#000000" d="M 1044 108 L 20 108 L 20 332 L 1044 332" stroke-miterlimit="10" stroke-width="2"></path></g><g transform="translate(-10,-98) scale(1,1)"><g><path fill="none" stroke="none" transform="translate(24,220) rotate(-90,0,0)"></path><text fill="#000000" stroke="none" font-family="Arial" font-size="13px" font-style="normal" font-weight="normal" text-decoration="none" x="-93.5" y="13">SI gestion de flotte de véhicules</text></g></g><g transform="translate(-10,-98) scale(1,1)"><path fill="#C0C0C0" stroke="none" d="M 67 220.5 C 67 215.2532944 71.2532944 211 76.5 211 C 81.7467056 211 86 215.2532944 86 220.5 C 86 225.7467056 81.7467056 230 76.5 230 C 71.2532944 230 67 225.7467056 67 220.5 Z" opacity="0.2"></path></g><g transform="translate(-10,-98) scale(1,1)"><path fill="#000000" stroke="none" d="M 60 213.5 C 60 208.2532944 64.2532944 204 69.5 204 C 74.7467056 204 79 208.2532944 79 213.5 C 79 218.7467056 74.7467056 223 69.5 223 C 64.2532944 223 60 218.7467056 60 213.5 Z"></path></g><g transform="translate(-10,-98) scale(1,1)"><path fill="#C0C0C0" stroke="none" d="M 106 147 L 105 147 Q 108 147 108 150 L 108 288 Q 108 291 105 291 L 106 291 Q 103 291 103 288 L 103 150 Q 103 147 106 147 Z" opacity="0.2"></path></g><g transform="translate(-10,-98) scale(1,1)"><path fill="#000000" stroke="none" d="M 99 140 L 99 140 Q 102 140 102 143 L 102 281 Q 102 284 99 284 L 99 284 Q 96 284 96 281 L 96 143 Q 96 140 99 140 Z"></path></g><g transform="translate(-10,-98) scale(1,1)"><path fill="#C0C0C0" stroke="none" d="M 285 167 L 449 167 Q 459 167 459 177 L 459 197 Q 459 207 449 207 L 285 207 Q 275 207 275 197 L 275 177 Q 275 167 285 167 Z" opacity="0.2"></path></g><g transform="translate(-10,-98) scale(1,1)"><path fill="#ffffff" stroke="none" d="M 278 160 L 442 160 Q 452 160 452 170 L 452 190 Q 452 200 442 200 L 278 200 Q 268 200 268 190 L 268 170 Q 268 160 278 160 Z"></path></g><g transform="translate(-10,-98) scale(1,1)"><path fill="none" stroke="#000000" d="M 278 160 L 442 160 Q 452 160 452 170 L 452 190 Q 452 200 442 200 L 278 200 Q 268 200 268 190 L 268 170 Q 268 160 278 160 Z" stroke-miterlimit="10"></path></g><g transform="translate(-10,-98) scale(1,1)"><g><path fill="none" stroke="none"></path><text fill="#000000" stroke="none" font-family="Arial" font-size="13px" font-style="normal" font-weight="bold" text-decoration="none" x="278.5" y="179.5">Collecter données véhicules</text></g></g><g transform="translate(-10,-98) scale(1,1)"><path fill="#C0C0C0" stroke="none" d="M 137 239 L 296 239 Q 306 239 306 249 L 306 269 Q 306 279 296 279 L 137 279 Q 127 279 127 269 L 127 249 Q 127 239 137 239 Z" opacity="0.2"></path></g><g transform="translate(-10,-98) scale(1,1)"><path fill="#ffffff" stroke="none" d="M 130 232 L 289 232 Q 299 232 299 242 L 299 262 Q 299 272 289 272 L 130 272 Q 120 272 120 262 L 120 242 Q 120 232 130 232 Z"></path></g><g transform="translate(-10,-98) scale(1,1)"><path fill="none" stroke="#000000" d="M 130 232 L 289 232 Q 299 232 299 242 L 299 262 Q 299 272 289 272 L 130 272 Q 120 272 120 262 L 120 242 Q 120 232 130 232 Z" stroke-miterlimit="10"></path></g><g transform="translate(-10,-98) scale(1,1)"><g><path fill="none" stroke="none"></path><text fill="#000000" stroke="none" font-family="Arial" font-size="13px" font-style="normal" font-weight="bold" text-decoration="none" x="130.5" y="251.5">Collecter données tournées</text></g></g><g transform="translate(-10,-98) scale(1,1)"><rect fill="#C0C0C0" stroke="none" x="491" y="175" width="126" height="24" opacity="0.2"></rect></g><g transform="translate(-10,-98) scale(1,1)"><rect fill="#ffffff" stroke="none" x="484" y="168" width="126" height="24"></rect></g><g transform="translate(-10,-98) scale(1,1)"><path fill="none" stroke="#000000" d="M 484 168 L 610 168 L 610 192 L 484 192 L 484 168 Z Z" stroke-miterlimit="10"></path></g><g transform="translate(-10,-98) scale(1,1)"><rect fill="#ffffff" stroke="none" x="484" y="168" width="126" height="24"></rect></g><g transform="translate(-10,-98) scale(1,1)"><path fill="none" stroke="#000000" d="M 484 168 L 610 168 L 610 192 L 484 192 L 484 168 Z Z" stroke-miterlimit="10"></path></g><g transform="translate(-10,-98) scale(1,1)"><g><path fill="none" stroke="none"></path><text fill="#000000" stroke="none" font-family="Arial" font-size="13px" font-style="normal" font-weight="bold" text-decoration="none" x="492" y="187.5">Données véhicules</text></g></g><g transform="translate(-10,-98) scale(1,1)"><rect fill="#C0C0C0" stroke="none" x="323" y="247" width="121" height="24" opacity="0.2"></rect></g><g transform="translate(-10,-98) scale(1,1)"><rect fill="#ffffff" stroke="none" x="316" y="240" width="121" height="24"></rect></g><g transform="translate(-10,-98) scale(1,1)"><path fill="none" stroke="#000000" d="M 316 240 L 437 240 L 437 264 L 316 264 L 316 240 Z Z" stroke-miterlimit="10"></path></g><g transform="translate(-10,-98) scale(1,1)"><rect fill="#ffffff" stroke="none" x="316" y="240" width="121" height="24"></rect></g><g transform="translate(-10,-98) scale(1,1)"><path fill="none" stroke="#000000" d="M 316 240 L 437 240 L 437 264 L 316 264 L 316 240 Z Z" stroke-miterlimit="10"></path></g><g transform="translate(-10,-98) scale(1,1)"><g><path fill="none" stroke="none"></path><text fill="#000000" stroke="none" font-family="Arial" font-size="13px" font-style="normal" font-weight="bold" text-decoration="none" x="324" y="259.5">Données tournées</text></g></g><g transform="translate(-10,-98) scale(1,1)"><path fill="#C0C0C0" stroke="none" d="M 473 239 L 633 239 Q 643 239 643 249 L 643 269 Q 643 279 633 279 L 473 279 Q 463 279 463 269 L 463 249 Q 463 239 473 239 Z" opacity="0.2"></path></g><g transform="translate(-10,-98) scale(1,1)"><path fill="#ffffff" stroke="none" d="M 466 232 L 626 232 Q 636 232 636 242 L 636 262 Q 636 272 626 272 L 466 272 Q 456 272 456 262 L 456 242 Q 456 232 466 232 Z"></path></g><g transform="translate(-10,-98) scale(1,1)"><path fill="none" stroke="#000000" d="M 466 232 L 626 232 Q 636 232 636 242 L 636 262 Q 636 272 626 272 L 466 272 Q 456 272 456 262 L 456 242 Q 456 232 466 232 Z" stroke-miterlimit="10"></path></g><g transform="translate(-10,-98) scale(1,1)"><g><path fill="none" stroke="none"></path><text fill="#000000" stroke="none" font-family="Arial" font-size="13px" font-style="normal" font-weight="bold" text-decoration="none" x="466" y="251.5">Calculer énergie nécessaire</text></g></g><g transform="translate(-10,-98) scale(1,1)"><path fill="#C0C0C0" stroke="none" d="M 810 151 L 809 151 Q 812 151 812 154 L 812 284 Q 812 287 809 287 L 810 287 Q 807 287 807 284 L 807 154 Q 807 151 810 151 Z" opacity="0.2"></path></g><g transform="translate(-10,-98) scale(1,1)"><path fill="#000000" stroke="none" d="M 803 144 L 803 144 Q 806 144 806 147 L 806 277 Q 806 280 803 280 L 803 280 Q 800 280 800 277 L 800 147 Q 800 144 803 144 Z"></path></g><g transform="translate(-10,-98) scale(1,1)"><rect fill="#C0C0C0" stroke="none" x="659" y="247" width="127" height="24" opacity="0.2"></rect></g><g transform="translate(-10,-98) scale(1,1)"><rect fill="#ffffff" stroke="none" x="652" y="240" width="127" height="24"></rect></g><g transform="translate(-10,-98) scale(1,1)"><path fill="none" stroke="#000000" d="M 652 240 L 779 240 L 779 264 L 652 264 L 652 240 Z Z" stroke-miterlimit="10"></path></g><g transform="translate(-10,-98) scale(1,1)"><rect fill="#ffffff" stroke="none" x="652" y="240" width="127" height="24"></rect></g><g transform="translate(-10,-98) scale(1,1)"><path fill="none" stroke="#000000" d="M 652 240 L 779 240 L 779 264 L 652 264 L 652 240 Z Z" stroke-miterlimit="10"></path></g><g transform="translate(-10,-98) scale(1,1)"><g><path fill="none" stroke="none"></path><text fill="#000000" stroke="none" font-family="Arial" font-size="13px" font-style="normal" font-weight="bold" text-decoration="none" x="660" y="259.5">Énergie nécessaire</text></g></g><g transform="translate(-10,-98) scale(1,1)"><path fill="none" stroke="#000000" d="M 79 213 L 96 213" stroke-miterlimit="10"></path></g><g transform="translate(-10,-98) scale(1,1)"><path fill="none" stroke="#000000" d="M 85.83732514237585 217.209517756016 L 96 213 L 85.83732514237585 208.790482243984" stroke-miterlimit="10"></path></g><g transform="translate(-10,-98) scale(1,1)"><path fill="#C0C0C0" stroke="none" d="M 853 203 L 1036 203 Q 1046 203 1046 213 L 1046 233 Q 1046 243 1036 243 L 853 243 Q 843 243 843 233 L 843 213 Q 843 203 853 203 Z" opacity="0.2"></path></g><g transform="translate(-10,-98) scale(1,1)"><path fill="#ffffff" stroke="none" d="M 846 196 L 1029 196 Q 1039 196 1039 206 L 1039 226 Q 1039 236 1029 236 L 846 236 Q 836 236 836 226 L 836 206 Q 836 196 846 196 Z"></path></g><g transform="translate(-10,-98) scale(1,1)"><path fill="none" stroke="#000000" d="M 846 196 L 1029 196 Q 1039 196 1039 206 L 1039 226 Q 1039 236 1029 236 L 846 236 Q 836 236 836 226 L 836 206 Q 836 196 846 196 Z" stroke-miterlimit="10"></path></g><g transform="translate(-10,-98) scale(1,1)"><g><path fill="none" stroke="none"></path><text fill="#000000" stroke="none" font-family="Arial" font-size="13px" font-style="normal" font-weight="bold" text-decoration="none" x="845.5" y="215.5">Affecter véhicules aux tournées</text></g></g><g transform="translate(-10,-98) scale(1,1)"><path fill="none" stroke="#000000" d="M 101 180 L 268 180" stroke-miterlimit="10"></path></g><g transform="translate(-10,-98) scale(1,1)"><path fill="none" stroke="#000000" d="M 257.83732514237585 184.209517756016 L 268 180 L 257.83732514237585 175.790482243984" stroke-miterlimit="10"></path></g><g transform="translate(-10,-98) scale(1,1)"><path fill="none" stroke="#000000" d="M 101 252 L 120 252" stroke-miterlimit="10"></path></g><g transform="translate(-10,-98) scale(1,1)"><path fill="none" stroke="#000000" d="M 109.83732514237585 256.209517756016 L 120 252 L 109.83732514237585 247.790482243984" stroke-miterlimit="10"></path></g><g transform="translate(-10,-98) scale(1,1)"><path fill="none" stroke="#000000" d="M 452 180 L 484 180" stroke-miterlimit="10"></path></g><g transform="translate(-10,-98) scale(1,1)"><path fill="none" stroke="#000000" d="M 473.83732514237585 184.209517756016 L 484 180 L 473.83732514237585 175.790482243984" stroke-miterlimit="10"></path></g><g transform="translate(-10,-98) scale(1,1)"><path fill="none" stroke="#000000" d="M 299 252 L 316 252" stroke-miterlimit="10"></path></g><g transform="translate(-10,-98) scale(1,1)"><path fill="none" stroke="#000000" d="M 305.83732514237585 256.209517756016 L 316 252 L 305.83732514237585 247.790482243984" stroke-miterlimit="10"></path></g><g transform="translate(-10,-98) scale(1,1)"><path fill="none" stroke="#000000" d="M 437 252 L 456 252" stroke-miterlimit="10"></path></g><g transform="translate(-10,-98) scale(1,1)"><path fill="none" stroke="#000000" d="M 445.83732514237585 256.209517756016 L 456 252 L 445.83732514237585 247.790482243984" stroke-miterlimit="10"></path></g><g transform="translate(-10,-98) scale(1,1)"><path fill="none" stroke="#000000" d="M 610 180 L 800 180" stroke-miterlimit="10"></path></g><g transform="translate(-10,-98) scale(1,1)"><path fill="none" stroke="#000000" d="M 789.8373251423759 184.209517756016 L 800 180 L 789.8373251423758 175.790482243984" stroke-miterlimit="10"></path></g><g transform="translate(-10,-98) scale(1,1)"><path fill="none" stroke="#000000" d="M 636 252 L 652 252" stroke-miterlimit="10"></path></g><g transform="translate(-10,-98) scale(1,1)"><path fill="none" stroke="#000000" d="M 641.8373251423759 256.209517756016 L 652 252 L 641.8373251423758 247.790482243984" stroke-miterlimit="10"></path></g><g transform="translate(-10,-98) scale(1,1)"><path fill="none" stroke="#000000" d="M 779 252 L 800 252" stroke-miterlimit="10"></path></g><g transform="translate(-10,-98) scale(1,1)"><path fill="none" stroke="#000000" d="M 789.8373251423759 256.209517756016 L 800 252 L 789.8373251423758 247.790482243984" stroke-miterlimit="10"></path></g><g transform="translate(-10,-98) scale(1,1)"><path fill="none" stroke="#000000" d="M 806 212 L 835 213" stroke-miterlimit="10"></path></g><g transform="translate(-10,-98) scale(1,1)"><path fill="none" stroke="#000000" d="M 824.6982922157503 216.8567883955344 L 835 213 L 824.9884313398708 208.44275379603874" stroke-miterlimit="10"></path></g><g transform="translate(-10,-98) scale(1,1)"><rect fill="#ffffff" stroke="none" x="20" y="332" width="21" height="220"></rect></g><g transform="translate(-10,-98) scale(1,1)"><path fill="none" stroke="#000000" d="M 20 332 L 41 332 L 41 552 L 20 552 L 20 332 Z Z" stroke-miterlimit="10" stroke-width="2"></path></g><g transform="translate(-10,-98) scale(1,1)"><path fill="none" stroke="#000000" d="M 1092 332 L 20 332 L 20 552 L 1092 552" stroke-miterlimit="10" stroke-width="2"></path></g><g transform="translate(-10,-98) scale(1,1)"><g><path fill="none" stroke="none" transform="translate(24,442) rotate(-90,0,0)"></path><text fill="#000000" stroke="none" font-family="Arial" font-size="13px" font-style="normal" font-weight="normal" text-decoration="none" x="-69" y="13">Gestionnaire de la flotte</text></g></g><g transform="translate(-10,-98) scale(1,1)"><path fill="#C0C0C0" stroke="none" d="M 837 439 L 1018 439 Q 1028 439 1028 449 L 1028 469 Q 1028 479 1018 479 L 837 479 Q 827 479 827 469 L 827 449 Q 827 439 837 439 Z" opacity="0.2"></path></g><g transform="translate(-10,-98) scale(1,1)"><path fill="#ffffff" stroke="none" d="M 830 432 L 1011 432 Q 1021 432 1021 442 L 1021 462 Q 1021 472 1011 472 L 830 472 Q 820 472 820 462 L 820 442 Q 820 432 830 432 Z"></path></g><g transform="translate(-10,-98) scale(1,1)"><path fill="none" stroke="#000000" d="M 830 432 L 1011 432 Q 1021 432 1021 442 L 1021 462 Q 1021 472 1011 472 L 830 472 Q 820 472 820 462 L 820 442 Q 820 432 830 432 Z" stroke-miterlimit="10"></path></g><g transform="translate(-10,-98) scale(1,1)"><g><path fill="none" stroke="none"></path><text fill="#000000" stroke="none" font-family="Arial" font-size="13px" font-style="normal" font-weight="bold" text-decoration="none" x="832" y="451.5">Valider ou corriger affectations</text></g></g><g transform="translate(-10,-98) scale(1,1)"><rect fill="#C0C0C0" stroke="none" x="887" y="327" width="88" height="24" opacity="0.2"></rect></g><g transform="translate(-10,-98) scale(1,1)"><rect fill="#ffffff" stroke="none" x="880" y="320" width="88" height="24"></rect></g><g transform="translate(-10,-98) scale(1,1)"><path fill="none" stroke="#000000" d="M 880 320 L 968 320 L 968 344 L 880 344 L 880 320 Z Z" stroke-miterlimit="10"></path></g><g transform="translate(-10,-98) scale(1,1)"><rect fill="#ffffff" stroke="none" x="880" y="320" width="88" height="24"></rect></g><g transform="translate(-10,-98) scale(1,1)"><path fill="none" stroke="#000000" d="M 880 320 L 968 320 L 968 344 L 880 344 L 880 320 Z Z" stroke-miterlimit="10"></path></g><g transform="translate(-10,-98) scale(1,1)"><g><path fill="none" stroke="none"></path><text fill="#000000" stroke="none" font-family="Arial" font-size="13px" font-style="normal" font-weight="bold" text-decoration="none" x="889" y="339.5">Affectations</text></g></g><g transform="translate(-10,-98) scale(1,1)"><path fill="none" stroke="#000000" d="M 920 236 L 920 320" stroke-miterlimit="10"></path></g><g transform="translate(-10,-98) scale(1,1)"><path fill="none" stroke="#000000" d="M 915.790482243984 309.83732514237585 L 920 320 L 924.209517756016 309.83732514237585" stroke-miterlimit="10"></path></g><g transform="translate(-10,-98) scale(1,1)"><path fill="none" stroke="#000000" d="M 920 344 L 920 432" stroke-miterlimit="10"></path></g><g transform="translate(-10,-98) scale(1,1)"><path fill="none" stroke="#000000" d="M 915.790482243984 421.83732514237585 L 920 432 L 924.209517756016 421.83732514237585" stroke-miterlimit="10"></path></g><g transform="translate(-10,-98) scale(1,1)"><path fill="#C0C0C0" stroke="none" d="M 1051 451.5 C 1051 444.59644 1056.59644 439 1063.5 439 C 1070.40356 439 1076 444.59644 1076 451.5 C 1076 458.40356 1070.40356 464 1063.5 464 C 1056.59644 464 1051 458.40356 1051 451.5 Z" opacity="0.2"></path></g><g transform="translate(-10,-98) scale(1,1)"><path fill="none" stroke="#000000" d="M 1044 444.5 C 1044 437.59644 1049.59644 432 1056.5 432 C 1063.40356 432 1069 437.59644 1069 444.5 C 1069 451.40356 1063.40356 457 1056.5 457 C 1049.59644 457 1044 451.40356 1044 444.5 Z" stroke-miterlimit="10"></path></g><g transform="translate(-10,-98) scale(1,1)"><path fill="#000000" stroke="none" d="M 1049 444.5 C 1049 440.357864 1052.357864 437 1056.5 437 C 1060.642136 437 1064 440.357864 1064 444.5 C 1064 448.642136 1060.642136 452 1056.5 452 C 1052.357864 452 1049 448.642136 1049 444.5 Z"></path></g><g transform="translate(-10,-98) scale(1,1)"><path fill="none" stroke="#000000" d="M 1021 448 L 1044 448" stroke-miterlimit="10"></path></g><g transform="translate(-10,-98) scale(1,1)"><path fill="none" stroke="#000000" d="M 1033.837325142376 452.209517756016 L 1044 448 L 1033.837325142376 443.790482243984" stroke-miterlimit="10"></path></g></g></svg>